<?xml version="1.0" encoding="UTF-8" standalone="no"?>
<!DOCTYPE svg PUBLIC "-//W3C//DTD SVG 1.1//EN" "http://www.w3.org/Graphics/SVG/1.1/DTD/svg11.dtd">
<svg version="1.1" xmlns="http://www.w3.org/2000/svg" xmlns:xlink="http://www.w3.org/1999/xlink" preserveAspectRatio="xMidYMid meet" viewBox="0 0 3000 2300" width="3000" height="2300"><defs><path d="M2804.32 1495.04L2798.69 1392.11L2577.07 1360.09C2556.32 1418.34 2544.8 1450.7 2542.5 1457.17C2521.3 1459.49 2500.17 1463.09 2479.25 1468C2484.47 1492.75 2526.26 1690.76 2531.49 1715.51C2609.84 1695.23 2694.17 1710.64 2760.46 1758.26C2772.5 1735.91 2868.86 1557.09 2880.9 1534.74C2856.37 1519.32 2830.74 1506.09 2804.32 1495.04" id="athkNgT9a"></path><linearGradient id="gradientarzNl8SSj" gradientUnits="userSpaceOnUse" x1="4766.42" y1="1652.24" x2="4405.24" y2="662.11"><stop style="stop-color: #ff9f55;stop-opacity: 1" offset="0%"></stop><stop style="stop-color: #ffd255;stop-opacity: 1" offset="100%"></stop></linearGradient><path d="M1002.44 1535.06C1002.44 1528.66 1002.44 1525.11 1002.44 1524.4C1113.64 1524.4 1212.26 1457.72 1253.66 1354.54C1254.65 1354.93 1262.56 1358.11 1263.55 1358.51C1220.52 1465.76 1118.03 1535.06 1002.44 1535.06" id="aDtDCkMrs"></path><linearGradient id="gradientaUCtp75kr" gradientUnits="userSpaceOnUse" x1="1163.08" y1="1485.53" x2="1121.47" y2="1431.95"><stop style="stop-color: #ff9f55;stop-opacity: 1" offset="0%"></stop><stop style="stop-color: #ffd255;stop-opacity: 1" offset="100%"></stop></linearGradient><path d="M1002.44 1613.86C1002.44 1607.46 1002.44 1603.9 1002.44 1603.19C1084.45 1603.19 1161.7 1576.36 1225.84 1525.57C1226.5 1526.41 1231.8 1533.09 1232.46 1533.93C1166.41 1586.22 1086.87 1613.86 1002.44 1613.86" id="bjI7bMWKe"></path><linearGradient id="gradienta1vTDclgUF" gradientUnits="userSpaceOnUse" x1="1141.37" y1="1604.7" x2="1088.37" y2="1536.46"><stop style="stop-color: #ff9f55;stop-opacity: 1" offset="0%"></stop><stop style="stop-color: #ffd255;stop-opacity: 1" offset="100%"></stop></linearGradient><path d="M1264.86 1632.19C1261.28 1626.89 1259.29 1623.95 1258.9 1623.36C1330.96 1574.67 1387.52 1506.99 1422.44 1427.64C1423.42 1428.07 1431.24 1431.51 1432.21 1431.94C1396.46 1513.14 1338.6 1582.37 1264.86 1632.19" id="e2qZ9WkH6k"></path><linearGradient id="gradienth1vgBIEuvb" gradientUnits="userSpaceOnUse" x1="1366.19" y1="1554.8" x2="1325.75" y2="1502.74"><stop style="stop-color: #ff9f55;stop-opacity: 1" offset="0%"></stop><stop style="stop-color: #ffd255;stop-opacity: 1" offset="100%"></stop></linearGradient><path d="M2090.54 599.69L1903.06 393.07L1910.95 385.91L2098.44 592.51L2090.54 599.69" id="aHZmknjW"></path><path d="M563.33 1681.3L738.66 1806.08L812.98 1736.32C814.86 1737.04 815.89 1737.44 816.1 1737.52C835.67 1745 855.81 1751.32 876.08 1756.34C880.59 1732.48 916.74 1541.57 921.25 1517.71C892.37 1508.98 865.12 1495.57 840.2 1477.83C714.49 1388.34 684.99 1213.28 774.44 1087.57C863.91 961.84 1038.98 932.35 1164.71 1021.81C1251.54 1083.61 1295.9 1190.62 1278.61 1295.59C1302.15 1301.39 1490.53 1347.8 1514.08 1353.6C1517.98 1334.26 1520.81 1314.57 1522.49 1294.99C1522.51 1294.77 1522.6 1293.66 1522.77 1291.66L1618.07 1255.2L1582.32 1043.04L1480.34 1039.8C1479.53 1037.96 1479.08 1036.95 1478.99 1036.74C1459.18 992.33 1433.33 951.01 1402.18 913.96C1402.04 913.79 1401.32 912.93 1400.02 911.4L1441.58 818.31L1266.25 693.56L1191.92 763.32C1190.05 762.6 1189.01 762.2 1188.8 762.12C1143.62 744.82 1096.11 733.94 1047.63 729.79C1047.41 729.78 1046.29 729.68 1044.29 729.5L1007.84 634.19L795.67 669.95L792.43 771.93C790.59 772.75 789.58 773.2 789.37 773.29C744.88 793.14 703.56 818.98 666.59 850.1C666.42 850.25 665.57 850.96 664.03 852.25L570.94 810.7L446.2 986.03L515.95 1060.35C515.23 1062.22 514.83 1063.26 514.75 1063.47C497.45 1108.66 486.57 1156.15 482.42 1204.62C482.4 1204.84 482.31 1205.95 482.13 1207.95L386.81 1244.45L422.56 1456.62L524.56 1459.85C525.38 1461.68 525.83 1462.69 525.93 1462.9C545.75 1507.35 571.59 1548.65 602.73 1585.65C602.88 1585.82 603.59 1586.68 604.88 1588.21L563.33 1681.3ZM739.59 1819.82L550.03 1684.92C575.47 1627.94 589.6 1596.29 592.43 1589.96C562.31 1553.7 537.14 1513.48 517.56 1470.3C510.62 1470.08 475.93 1468.98 413.5 1467L374.85 1237.61C433.19 1215.27 465.61 1202.86 472.09 1200.38C476.43 1153.18 487.03 1106.93 503.61 1062.79C498.86 1057.74 475.14 1032.46 432.45 986.95L567.32 797.41C624.3 822.84 655.96 836.97 662.29 839.8C698.52 809.7 738.76 784.53 781.98 764.92C782.2 757.99 783.3 723.31 785.28 660.9L1014.67 622.22C1036.99 680.56 1049.39 712.98 1051.87 719.46C1099.08 723.8 1145.35 734.39 1189.48 750.98C1194.53 746.23 1219.81 722.51 1265.32 679.82L1454.88 814.68C1429.44 871.67 1415.31 903.33 1412.48 909.66C1442.61 945.96 1467.78 986.19 1487.35 1029.34C1494.28 1029.57 1528.96 1030.67 1591.38 1032.65L1630.03 1262.04C1571.7 1284.36 1539.3 1296.75 1532.82 1299.23C1530.9 1319.99 1527.74 1340.81 1523.39 1361.22C1523.32 1361.58 1522.94 1363.37 1522.25 1366.6L1266.34 1303.55C1266.89 1300.59 1267.19 1298.95 1267.25 1298.62C1286.06 1196.12 1243.37 1090.88 1158.52 1030.5C1037.59 944.44 869.19 972.82 783.13 1093.76C697.09 1214.67 725.46 1383.06 846.39 1469.15C871.65 1487.13 899.41 1500.47 928.84 1508.82C929.15 1508.91 930.72 1509.35 933.54 1510.15L884.48 1769.31C881.21 1768.55 879.4 1768.12 879.04 1768.03C857.57 1762.95 836.21 1756.45 815.42 1748.66C810.37 1753.41 785.09 1777.13 739.59 1819.82" id="c1tgAtowCO"></path><linearGradient id="gradienta3ZlSnsyTm" gradientUnits="userSpaceOnUse" x1="1254.68" y1="1574.43" x2="619.62" y2="756.74"><stop style="stop-color: #ff9f55;stop-opacity: 1" offset="0%"></stop><stop style="stop-color: #ffd255;stop-opacity: 1" offset="100%"></stop></linearGradient><path d="M855.68 1017.78C843.14 995.81 742.84 820.03 730.3 798.06C706.87 812.15 684.4 828.15 663.16 846.02C656.89 843.22 625.55 829.23 569.14 804.05L504.24 895.26L439.34 986.48C481.61 1031.53 505.1 1056.56 509.79 1061.57C492.04 1107.93 481.24 1155.94 477.12 1204.16C470.7 1206.62 438.6 1218.9 380.83 1241.02L399.45 1351.42L418.05 1461.8C479.85 1463.76 514.19 1464.85 521.05 1465.07C540.79 1509.28 566.7 1551.11 598.67 1589.09C595.87 1595.36 581.88 1626.7 556.69 1683.11L647.9 1748.05L739.14 1812.95C784.18 1770.68 809.2 1747.2 814.21 1742.5C835.91 1750.78 857.97 1757.58 880.29 1762.83C885 1737.94 922.7 1538.84 927.41 1513.95C898.04 1505.64 869.58 1492.19 843.3 1473.49C719.78 1385.57 690.9 1214.17 778.8 1090.65C800.12 1060.68 826.38 1036.27 855.68 1017.78ZM1605.48 1148.23L1586.87 1037.83C1525.06 1035.87 1490.72 1034.78 1483.85 1034.56C1464.14 990.35 1438.19 948.5 1406.27 910.51C1409.07 904.25 1423.06 872.91 1448.25 816.51L1265.79 686.68C1220.75 728.94 1195.73 752.43 1190.73 757.12C1171.77 749.87 1152.55 743.78 1133.14 738.84C1128.5 763.8 1091.39 963.55 1086.75 988.52C1112.84 996.92 1138.1 1009.42 1161.62 1026.16C1251.38 1090.01 1291.17 1197.95 1272.52 1299.58C1297.09 1305.63 1493.63 1354.04 1518.19 1360.09C1522.75 1338.67 1525.96 1317.08 1527.82 1295.44C1534.23 1292.99 1566.31 1280.71 1624.06 1258.61L1605.48 1148.23" id="b1GkKbRr1Q"></path><linearGradient id="gradienteXShuQNeJ" gradientUnits="userSpaceOnUse" x1="1547.48" y1="1951.55" x2="588.45" y2="716.72"><stop style="stop-color: #ff9f55;stop-opacity: 1" offset="0%"></stop><stop style="stop-color: #ffd255;stop-opacity: 1" offset="100%"></stop></linearGradient><path d="M962.55 2208.23L951.19 2208.23L951.19 1691.93L962.55 1691.93L962.55 2208.23" id="chRYSxNXS"></path><path d="M707.37 2208.23L696.02 2208.23L696.02 1691.93L707.37 1691.93L707.37 2208.23" id="cahgOl5Wd"></path><path d="M978.5 2123.02C795.17 2123.02 693.31 2123.02 672.94 2123.02C654.11 2123.02 638.85 2107.75 638.85 2088.92C638.85 2031.06 638.85 1568.18 638.85 1510.32C638.85 1491.49 654.11 1476.22 672.94 1476.22C703.5 1476.22 947.95 1476.22 978.5 1476.22C997.34 1476.22 1012.6 1491.49 1012.6 1510.32C1012.6 1568.18 1012.6 2031.06 1012.6 2088.92C1012.6 2107.75 997.34 2123.02 978.5 2123.02" id="l1L4PeVovR"></path><path d="M968.66 2097.75C797.14 2097.75 701.85 2097.75 682.79 2097.75C664.18 2097.75 649.1 2082.66 649.1 2064.06C649.1 2009.69 649.1 1574.71 649.1 1520.33C649.1 1501.72 664.18 1486.65 682.79 1486.65C711.38 1486.65 940.08 1486.65 968.66 1486.65C987.26 1486.65 1002.35 1501.72 1002.35 1520.33C1002.35 1574.71 1002.35 2009.69 1002.35 2064.06C1002.35 2082.66 987.26 2097.75 968.66 2097.75" id="b53fZ1OYC9"></path><path d="M881.41 1496.47L770.04 1496.47L770.04 1471.32L881.41 1471.32L881.41 1496.47" id="d3IdJpEdNU"></path><path d="M436.75 414.23C472.53 363.94 542.31 352.18 592.59 387.97C642.88 423.76 654.63 493.53 618.85 543.82C583.07 594.11 513.29 605.87 463.01 570.08C412.72 534.29 400.96 464.52 436.75 414.23ZM728.36 555.66C735.59 536.79 739.98 517.24 741.67 497.61C744.28 496.61 757.34 491.61 780.85 482.61L773.28 437.67L765.71 392.72C740.55 391.92 726.57 391.48 723.78 391.39C715.75 373.39 705.19 356.36 692.18 340.91C693.32 338.36 699.02 325.6 709.27 302.63L672.14 276.2L635 249.77C616.66 266.98 606.47 276.55 604.44 278.46C585.57 271.24 566.02 266.84 546.38 265.15C545.38 262.54 540.38 249.48 531.39 225.97L486.44 233.54L441.5 241.12C440.7 266.28 440.26 280.26 440.17 283.05C422.16 291.08 405.14 301.63 389.68 314.64C387.13 313.5 374.37 307.8 351.4 297.55L324.97 334.68L298.55 371.83C315.76 390.16 325.32 400.35 327.23 402.39C320.01 421.26 315.61 440.81 313.93 460.44C311.32 461.44 298.25 466.44 274.74 475.43L282.32 520.38L289.89 565.33C315.05 566.13 329.03 566.57 331.82 566.66C339.85 584.66 350.41 601.69 363.42 617.14C362.28 619.69 356.58 632.45 346.33 655.42L383.46 681.85L420.6 708.28C438.94 691.07 449.13 681.5 451.16 679.59C470.03 686.81 489.58 691.21 509.22 692.9C510.22 695.51 515.22 708.57 524.21 732.08L569.16 724.51L614.1 716.93C614.9 691.77 615.34 677.79 615.43 675C633.44 666.97 650.46 656.42 665.92 643.4C668.47 644.54 681.23 650.24 704.2 660.5L730.62 623.37L757.05 586.22L728.36 555.66" id="b7BvO1zLIk"></path><path d="M788.69 1735.57C790.57 1736.28 791.61 1736.68 791.81 1736.76C800.04 1739.91 808.68 1741.89 817.5 1742.65C817.72 1742.67 818.83 1742.76 820.82 1742.93L827.47 1760.29L860.86 1754.66L861.45 1736.09C863.28 1735.28 864.3 1734.82 864.5 1734.73C872.59 1731.12 880.11 1726.42 886.84 1720.75C887.01 1720.61 887.87 1719.89 889.4 1718.6L906.36 1726.18L925.99 1698.57L913.29 1685.04C914 1683.17 914.4 1682.13 914.48 1681.92C917.62 1673.7 919.61 1665.06 920.37 1656.23C920.39 1656.01 920.48 1654.9 920.65 1652.9L938 1646.26L932.38 1612.86L913.81 1612.27C912.99 1610.44 912.54 1609.42 912.45 1609.22C908.84 1601.14 904.13 1593.62 898.47 1586.89C898.32 1586.72 897.61 1585.87 896.32 1584.33L903.89 1567.38L876.29 1547.74L862.76 1560.44C860.89 1559.72 859.85 1559.32 859.64 1559.24C851.41 1556.1 842.78 1554.13 833.95 1553.37C833.73 1553.35 832.62 1553.25 830.62 1553.07L823.98 1535.72L790.57 1541.36L789.99 1559.92C788.16 1560.74 787.14 1561.19 786.94 1561.28C778.85 1564.9 771.34 1569.59 764.6 1575.25C764.43 1575.4 763.58 1576.12 762.05 1577.41L745.09 1569.84L725.46 1597.43L738.16 1610.98C737.44 1612.85 737.05 1613.89 736.97 1614.1C733.82 1622.32 731.84 1630.96 731.08 1639.78C731.06 1640 730.97 1641.11 730.79 1643.1L713.44 1649.75L719.06 1683.15L737.64 1683.73C738.46 1685.56 738.91 1686.58 739 1686.79C742.61 1694.88 747.31 1702.39 752.98 1709.13C753.12 1709.3 753.84 1710.15 755.13 1711.69L747.56 1728.64L775.15 1748.28L788.69 1735.57ZM820.62 1772.26C816.19 1760.66 813.73 1754.22 813.24 1752.93C805.7 1752.05 798.31 1750.34 791.16 1747.88C790.16 1748.82 785.13 1753.53 776.09 1762.02L734.26 1732.27C739.32 1720.93 742.13 1714.64 742.69 1713.38C738.02 1707.45 733.99 1701.01 730.68 1694.18C729.3 1694.14 722.41 1693.92 710 1693.53L701.47 1642.9C713.07 1638.47 719.51 1636.01 720.8 1635.52C721.69 1627.99 723.38 1620.59 725.85 1613.44C724.91 1612.44 720.19 1607.41 711.7 1598.37L741.47 1556.54C752.8 1561.6 759.09 1564.41 760.35 1564.98C766.28 1560.3 772.71 1556.27 779.54 1552.97C779.59 1551.59 779.8 1544.69 780.2 1532.28L830.82 1523.76C835.26 1535.35 837.72 1541.79 838.22 1543.07C845.75 1543.97 853.15 1545.66 860.28 1548.14C861.28 1547.2 866.31 1542.48 875.35 1533.98L917.18 1563.75C912.13 1575.08 909.32 1581.38 908.76 1582.64C913.42 1588.57 917.45 1594.99 920.77 1601.82C922.15 1601.86 929.04 1602.09 941.44 1602.49L949.98 1653.1C938.38 1657.54 931.94 1660.01 930.65 1660.5C929.75 1668.03 928.06 1675.43 925.59 1682.56C926.54 1683.57 931.25 1688.6 939.74 1697.65L909.99 1739.47C898.65 1734.41 892.36 1731.6 891.1 1731.04C885.16 1735.71 878.73 1739.73 871.9 1743.05C871.86 1744.43 871.64 1751.32 871.25 1763.73L820.62 1772.26" id="b9Clr3x3ji"></path><path d="M852.85 1609.75C844.88 1604.1 835.51 1601.1 825.77 1601.1C825.77 1601.1 825.77 1601.1 825.77 1601.1C819.05 1601.1 812.28 1602.58 806.17 1605.37C805.73 1604.4 802.19 1596.64 801.75 1595.67C809.22 1592.25 817.53 1590.44 825.77 1590.44C825.77 1590.44 825.77 1590.44 825.77 1590.44C837.74 1590.44 849.24 1594.12 859.02 1601.06C857.79 1602.8 854.09 1608.01 852.85 1609.75ZM792.52 1695.02C792.38 1694.93 792.3 1694.87 792.28 1694.86C777.2 1684.12 768.16 1666.58 768.16 1647.96C768.16 1646.17 768.24 1644.37 768.41 1642.58C769.47 1642.68 777.97 1643.48 779.03 1643.58C778.89 1645.04 778.82 1646.5 778.82 1647.96C778.82 1663.14 786.19 1677.43 798.53 1686.21C797.73 1687.39 795.73 1690.32 792.52 1695.02ZM849.79 1700.3C847.12 1694.49 845.63 1691.26 845.33 1690.61C852.75 1687.21 859.17 1681.88 863.93 1675.2C868.73 1668.46 871.67 1660.55 872.42 1652.37C873.48 1652.46 881.98 1653.24 883.05 1653.34C882.11 1663.4 878.51 1673.11 872.62 1681.39C866.78 1689.58 858.88 1696.13 849.79 1700.3" id="aPks9Ga3P"></path><path d="M886 1807.93C878.97 1817.83 881.29 1831.62 891.19 1838.65C891.19 1838.65 891.19 1838.65 891.19 1838.65C895.98 1842.07 901.81 1843.41 907.61 1842.43C913.42 1841.45 918.49 1838.27 921.9 1833.48C928.95 1823.58 926.63 1809.79 916.73 1802.76C912.86 1800 908.4 1798.68 903.99 1798.68C897.09 1798.68 890.3 1801.9 886 1807.93ZM885 1847.35C885 1847.35 885 1847.35 885 1847.35C870.31 1836.89 866.86 1816.43 877.31 1801.74C887.76 1787.05 908.23 1783.61 922.92 1794.07C937.6 1804.52 941.04 1824.98 930.59 1839.67C925.53 1846.77 918 1851.49 909.39 1852.94C907.55 1853.25 905.71 1853.41 903.89 1853.41C897.15 1853.41 890.6 1851.33 885 1847.35ZM883.98 1863.63C885.85 1864.35 886.89 1864.75 887.1 1864.83C891.19 1866.41 895.48 1867.38 899.87 1867.77C900.09 1867.79 901.2 1867.88 903.19 1868.05L906.49 1876.68L919.9 1874.43L920.2 1865.18C922.03 1864.36 923.04 1863.91 923.25 1863.82C927.26 1862.03 930.99 1859.69 934.34 1856.88C934.51 1856.73 935.36 1856.02 936.9 1854.73L945.34 1858.49L953.21 1847.43L946.9 1840.68C947.61 1838.81 948 1837.77 948.08 1837.56C949.66 1833.48 950.64 1829.19 951.01 1824.79C951.03 1824.57 951.13 1823.46 951.29 1821.47L959.93 1818.17L957.68 1804.77L948.44 1804.48C947.62 1802.64 947.16 1801.63 947.07 1801.42C945.28 1797.4 942.95 1793.67 940.12 1790.32C939.98 1790.15 939.27 1789.3 937.98 1787.76L941.75 1779.32L930.67 1771.44L923.94 1777.76C922.06 1777.05 921.02 1776.66 920.81 1776.58C916.73 1775 912.44 1774.03 908.05 1773.64C907.83 1773.62 906.72 1773.53 904.72 1773.36L901.41 1764.73L888.02 1766.98L887.72 1776.23C885.89 1777.05 884.87 1777.5 884.67 1777.59C880.66 1779.38 876.91 1781.72 873.57 1784.53C873.4 1784.68 872.54 1785.39 871.01 1786.68L862.57 1782.92L854.69 1793.99L861.02 1800.73C860.3 1802.6 859.9 1803.64 859.82 1803.85C858.26 1807.93 857.28 1812.22 856.9 1816.61C856.89 1816.83 856.79 1817.94 856.61 1819.94L847.97 1823.24L850.24 1836.64L859.48 1836.93C860.29 1838.77 860.75 1839.78 860.84 1839.99C862.64 1844.01 864.97 1847.75 867.78 1851.09C867.93 1851.26 868.65 1852.11 869.94 1853.65L866.17 1862.09L877.25 1869.97L883.98 1863.63ZM899.65 1888.65C897.21 1882.26 895.86 1878.7 895.59 1877.99C892.5 1877.55 889.46 1876.84 886.48 1875.91C885.93 1876.43 883.16 1879.04 878.18 1883.72L852.87 1865.71C855.66 1859.47 857.21 1856 857.52 1855.3C855.67 1852.81 854.01 1850.16 852.57 1847.39C851.81 1847.36 848.01 1847.24 841.16 1847.03L836.02 1816.41C842.41 1813.96 845.96 1812.6 846.67 1812.33C847.11 1809.23 847.81 1806.2 848.75 1803.24C848.23 1802.68 845.63 1799.91 840.95 1794.92L858.94 1769.62C865.2 1772.41 868.67 1773.96 869.37 1774.27C871.86 1772.4 874.5 1770.75 877.27 1769.32C877.3 1768.56 877.42 1764.76 877.63 1757.91L908.25 1752.76C910.7 1759.15 912.06 1762.71 912.33 1763.42C915.42 1763.86 918.46 1764.55 921.42 1765.5C921.98 1764.98 924.75 1762.38 929.74 1757.7L955.04 1775.7C952.25 1781.94 950.7 1785.41 950.39 1786.11C952.25 1788.6 953.91 1791.25 955.35 1794.03C956.11 1794.05 959.91 1794.17 966.74 1794.39L971.9 1825C965.51 1827.45 961.96 1828.81 961.25 1829.08C960.8 1832.18 960.11 1835.21 959.16 1838.17C959.68 1838.73 962.28 1841.5 966.97 1846.49L948.96 1871.79C942.72 1869 939.25 1867.45 938.55 1867.14C936.06 1869.01 933.41 1870.66 930.65 1872.09C930.62 1872.85 930.5 1876.65 930.29 1883.5L899.65 1888.65" id="d2fSnvuDHU"></path><path d="M626.91 1922.11C626.91 1922.11 629.47 1926.31 629.79 1929.74C630.05 1932.44 632.33 1936.5 633.32 1938.74C634.3 1940.98 637.48 1951.12 637.59 1953.75C637.64 1954.82 635.24 1961.62 635.58 1963.8C635.92 1965.97 637.16 1970.27 635.21 1970.57C633.26 1970.85 631.04 1967.32 631.04 1967.32C631.04 1967.32 631.23 1969.31 629.58 1970.09C626.37 1971.57 624.67 1970.26 624.67 1970.26C624.67 1970.26 623.48 1972.46 621.99 1972.75C618.72 1973.41 617.11 1972.1 617.11 1972.1C617.11 1972.1 615.67 1973.33 613.4 1973.29C610.5 1973.23 609.28 1970.73 609.28 1970.73C609.28 1970.73 605.61 1971.47 604.55 1969.75C603.48 1968.05 603.67 1966.22 603.23 1964.68C602.79 1963.12 603.12 1949.11 607.88 1939.02C612.64 1928.92 606.67 1919.09 606.67 1919.09C608.02 1919.29 614.77 1920.3 626.91 1922.11" id="aWqc1nlHM"></path><path d="M631.56 1966.01C631.56 1966.01 631.89 1953.44 628.58 1950.76C625.27 1948.08 624.89 1952.61 624.89 1952.61C624.89 1952.61 625.34 1948.13 621.73 1947.53C618.11 1946.92 617.96 1952.25 617.96 1952.25C617.96 1952.25 617.37 1948.79 613.57 1949.51C609.77 1950.21 610.67 1954.62 610.67 1954.62C610.67 1954.62 607.05 1950.29 604.69 1954.45C600.72 1961.48 604.55 1969.75 604.55 1969.75C604.55 1969.75 605.67 1971.66 609.28 1970.73C609.28 1970.73 611.7 1975.61 617.11 1972.1C617.11 1972.1 622.65 1975.15 624.67 1970.26C624.67 1970.26 630.77 1973.17 631.56 1966.01" id="a2lcI1jm5V"></path><path d="M669.56 1741C669.56 1741 648.04 1812.74 640.77 1839.19C638.48 1847.49 632.96 1926.74 631.99 1929.94C631.02 1933.12 603.72 1937.5 603.72 1937.5C603.72 1937.5 607.02 1838.36 607.33 1832.95C607.64 1827.54 637.45 1716.83 646.13 1712.89C652.62 1709.93 656.05 1712.37 664.24 1718.44C675.72 1726.98 669.56 1741 669.56 1741" id="b4bOjZ5zxB"></path><path d="M881.85 1644.18L879.45 1640.52L928.71 1608.27L931.11 1611.94L881.85 1644.18" id="b68yTeXnPM"></path><path d="M936.37 1626.81C936.37 1626.81 935.9 1629.6 935.1 1630.72C935.1 1630.72 933.49 1632.64 932.42 1634.08C932.09 1634.53 931.81 1634.94 931.65 1635.22C930.99 1636.4 929.93 1639.16 927.58 1641.54C925.23 1643.93 916.09 1651.49 916.09 1651.49C915.57 1651.04 912.96 1648.83 908.27 1644.85C903.39 1642.66 900.68 1641.44 900.13 1641.2C900.13 1641.2 904.68 1621.41 906.61 1618.95C906.8 1618.71 907 1618.48 907.2 1618.27C909.04 1616.34 911.21 1615.67 912.29 1614.76C912.69 1614.44 916.88 1611.43 918.37 1611.82C920.44 1612.35 921.65 1613.56 922.13 1614.95C922.13 1614.95 926.13 1616.18 927.69 1618.54C927.69 1618.54 931.42 1619.55 932.53 1623.03C932.53 1623.03 936.21 1624.48 936.37 1626.81" id="a1cu3k2KCJ"></path><path d="M652.1 2230.78C652.1 2230.78 650.13 2244.39 649.89 2246.45C649.64 2248.48 628.06 2245.23 628.06 2245.23C627.89 2243.61 626.49 2230.64 626.32 2229.02C626.32 2229.02 649.4 2228.86 652.1 2230.78" id="e3530IMjUy"></path><path d="M650.12 2244.71C650.12 2244.71 656.96 2252.91 663.57 2256.5C670.18 2260.07 680.57 2261.48 684.48 2265.19C687.31 2267.85 694.76 2279.37 667.3 2279.13C639.84 2278.9 626.59 2280.76 623.65 2276.34C620.71 2271.93 627.91 2243.79 627.91 2243.79C627.91 2243.79 634.41 2246.13 650.12 2244.71" id="aYyt8YL3Z"></path><path d="M806.72 2230.78C806.72 2230.78 804.76 2244.39 804.5 2246.45C804.26 2248.48 782.68 2245.23 782.68 2245.23C782.51 2243.61 781.11 2230.64 780.94 2229.02C780.94 2229.02 804.01 2228.86 806.72 2230.78" id="c2jenCdG6e"></path><path d="M804.73 2244.71C804.73 2244.71 811.57 2252.91 818.18 2256.5C824.81 2260.07 849.13 2263 853.04 2266.71C855.87 2269.39 860.56 2280.14 821.91 2279.13C794.47 2278.41 781.21 2280.76 778.27 2276.34C775.33 2271.93 782.53 2243.79 782.53 2243.79C782.53 2243.79 788.65 2246.29 804.73 2244.71" id="bQvt4Nbdr"></path><path d="M669.97 1880.87C669.97 1880.87 649.69 1913.08 651.2 1942.2C652.71 1971.33 643.85 2003.12 640.8 2033.54C637.41 2067.45 623.51 2147.74 623.01 2165.88C622.5 2184.01 625.16 2241.94 625.16 2241.94C627.95 2242 650.2 2242.52 652.98 2242.58C652.98 2242.58 676.34 2102.21 682.4 2087.9C688.45 2073.57 718.45 1971.47 719.46 1960.02C720.47 1948.56 669.97 1880.87 669.97 1880.87" id="buKD4aBHn"></path><path d="M776.71 1885.23C776.71 1885.23 791.99 1965.05 794 1982.87C796.01 2000.69 797.36 2069.12 798.37 2080.26C799.39 2091.4 807.8 2225.69 810.48 2242.58C806.92 2242.58 778.47 2242.58 774.91 2242.58C774.91 2242.58 747.61 2144.71 747.61 2098.4C747.61 2052.09 726.52 1997.73 712.91 1967.18C699.29 1936.63 668.13 1935.9 659.76 1879.22C659.76 1879.22 765.37 1867.25 776.71 1885.23" id="dVR2iNtvG"></path><path d="M703.8 1610.02C703.8 1610.02 731.02 1599.86 743.57 1620.58C756.11 1641.29 754.91 1682.76 741.19 1687.87C727.47 1692.97 706.86 1690.29 699.84 1677.33C692.81 1664.36 686.47 1645.64 686.78 1633.11C687.08 1620.58 696.66 1613.63 703.8 1610.02" id="fMcC9HMpm"></path><path d="M738.23 1688.81C738.23 1688.81 737.1 1696.16 738.97 1699.78C740.84 1703.39 703.71 1703.5 703.71 1703.5C703.71 1703.5 700.7 1683.8 694.98 1667.18C689.27 1650.54 738.23 1688.81 738.23 1688.81" id="e3fdAbUMst"></path><path d="M694.98 1667.18C694.98 1667.18 697.55 1671.4 708.01 1669.76C718.47 1668.12 731.23 1654.19 735.6 1652.67C739.97 1651.14 740.01 1648.58 740.01 1648.58C740.19 1648.85 741.1 1650.18 742.74 1652.57C745.53 1652.74 747.07 1652.84 747.38 1652.86C747.38 1652.86 743.15 1640.41 749.53 1635.34C755.92 1630.27 742.91 1595.03 709.36 1606.77C709.36 1606.77 683.59 1613.87 684.53 1628.52C685.47 1643.18 689.22 1659.87 694.98 1667.18" id="b3HwLdCpno"></path><path d="M741.18 1699.34C741.18 1699.34 741.06 1692.42 737.92 1691.77C734.79 1691.1 703.32 1688.08 699.47 1689.58C699.47 1690.39 699.47 1696.84 699.47 1697.65C699.47 1697.65 706.89 1702.21 741.18 1699.34" id="a1HKvjTfDW"></path><path d="M739.31 1643.25C738.73 1640.8 732.48 1633.77 730.08 1641.29C727.69 1648.81 733.7 1658.93 737.05 1658.06C740.4 1657.19 740.8 1649.47 739.31 1643.25" id="bfnQfpqmU"></path><path d="M793.23 1709.82C771.65 1706.97 741.18 1699.34 741.18 1699.34C737 1699.17 703.64 1697.82 699.47 1697.65C699.47 1697.65 661.2 1706.07 646.13 1712.89C644.7 1713.53 644.69 1747.02 640.77 1755.81C642.02 1758.44 652.01 1779.54 653.26 1782.17C653.26 1782.17 660.48 1834.4 661.98 1857.62C662.67 1868.29 647.09 1957.61 647.09 1957.61C647.09 1957.61 663.78 1962.53 692.24 1965.66C720.71 1968.79 791.81 1964.53 792.27 1961.17C792.72 1957.81 778.5 1835.99 777.87 1829.68C776.9 1820.01 781.2 1768.55 781.2 1768.55C787.77 1763.46 845.47 1736.67 861.21 1722.71C865.42 1718.98 883.21 1701.66 888.26 1695.69C906.16 1674.52 920.84 1656.37 922.62 1652.46C924.65 1650.23 902.56 1638.36 900.61 1637.72C898.91 1637.14 875.33 1668.68 866.01 1678.77C861.86 1683.27 844.6 1695.82 844.6 1695.82C844.6 1695.82 806.72 1710.59 793.23 1709.82" id="p1w0XG8RZ4"></path><path d="M696.05 1612.47C696.05 1612.47 661.35 1615.18 694.98 1667.18C695.05 1663.53 695.41 1645.29 696.05 1612.47" id="cvJxG9ObK"></path><path d="M931.11 1611.94L933.95 1607.59L928.71 1608.27L931.11 1611.94Z" id="c27r8qvGIZ"></path><path d="M1907.01 395.93C1922.08 395.93 1934.35 383.65 1934.35 368.57C1933.7 368.57 1928.55 368.57 1927.9 368.57C1927.9 380.11 1918.54 389.49 1907.01 389.49C1895.47 389.49 1886.11 380.11 1886.11 368.57C1886.11 357.05 1895.47 347.68 1907.01 347.68C1907.22 347.68 1908.29 347.68 1910.23 347.68L1910.23 16.67L1903.8 16.67C1903.8 211.52 1903.8 319.77 1903.8 341.42C1890.23 343.03 1879.67 354.59 1879.67 368.57C1879.67 383.65 1891.93 395.93 1907.01 395.93" id="cca9kSnoj"></path><path d="M1899.59 340.03L1914.99 340.03L1914.99 183.72L1899.59 183.72L1899.59 340.03" id="c5XhKPTSaW"></path><path d="M1723.74 599.69L1715.84 592.53L1907.43 381.61L1914.44 389.77L1723.74 599.69" id="a2ZHaqMEdj"></path><path d="M2223.18 802.4C2245.05 785.98 2265.43 768.01 2284.21 748.69C2266.64 730.48 2126.08 584.82 2108.51 566.61C2082.19 595.23 2049.32 618.71 2010.99 634.5C1900.61 679.94 1777.73 648.2 1702.25 564.24C1685.01 582.79 1547.06 731.24 1529.82 749.79C1548.01 768.38 1567.47 785.47 1588.01 800.98C1586.67 807.72 1579.98 841.42 1567.94 902.07L1671.27 945.14L1774.61 988.18C1809.19 936.92 1828.4 908.45 1832.24 902.75C1880.18 909.61 1929.39 909.92 1978.56 903.14C1982.37 908.85 2001.44 937.38 2035.77 988.75L2139.3 946.11L2242.83 903.47L2223.18 802.4" id="bdsRAP0IR"></path><linearGradient id="gradientb2icUD3uu7" gradientUnits="userSpaceOnUse" x1="2704.61" y1="832.81" x2="2615.25" y2="-69.7"><stop style="stop-color: #ff9f55;stop-opacity: 1" offset="0%"></stop><stop style="stop-color: #ffd255;stop-opacity: 1" offset="100%"></stop></linearGradient><path d="M1711.01 1465.32L1538.67 1465.32L1538.67 1590.22L1538.67 1616.54L1564.99 1590.22L1711.01 1590.22L1711.01 1465.32" id="aakN9puUP"></path><path d="M1540.51 1748.69C1540.51 1748.69 1544.23 1739.47 1544.84 1738.08C1545.45 1736.69 1549.04 1734.41 1553.38 1732.17C1557.72 1729.92 1564.59 1728.84 1565.33 1729.24C1566.07 1729.65 1567.01 1729.72 1567.95 1731.67C1568.9 1733.61 1568.63 1735.79 1568.63 1735.79C1568.63 1735.79 1570.94 1737.63 1570.41 1740.28C1570.41 1740.28 1572.49 1742.1 1571.39 1745.01C1571.39 1745.01 1573.38 1746.86 1572.41 1748.9C1572.41 1748.9 1568.82 1751.18 1567.73 1752.41C1566.65 1753.64 1558.85 1757.87 1550.76 1760.78C1550.76 1760.78 1542.19 1760.94 1540.51 1748.69" id="cTdT64dkC"></path><path d="M1553.7 1743.66C1553.7 1743.66 1553.8 1748.65 1553.12 1750.08C1552.42 1751.49 1563.25 1754.63 1563.25 1754.63C1563.25 1754.63 1559.78 1743.7 1553.7 1743.66" id="b4ohDihlWp"></path><path d="M1351.91 2232.04L1356.63 2217.32L1376.61 2220.56L1373.63 2233.82L1351.91 2232.04" id="g4sdFuklo"></path><path d="M1515.69 2230.29L1516.81 2238.38L1538.68 2234.73L1537.52 2222.65L1515.69 2230.29" id="hd9zy8tgu"></path><path d="M1468.31 2003.75C1468.31 2003.75 1465.1 2021.3 1461.35 2040.78C1460.71 2044.18 1460.05 2047.63 1459.37 2051.05C1455.72 2069.84 1452.02 2087.9 1450.66 2091.63C1447.56 2100.12 1380.59 2222.85 1380.59 2222.85C1380.59 2222.85 1353.19 2220.76 1352.17 2217.24C1352.17 2217.24 1408.31 2083.99 1407.99 2079.13C1407.69 2074.28 1414.86 1937.67 1414.86 1937.67C1414.86 1937.67 1466.83 1995.85 1468.31 2003.75" id="e14SXE3Ok"></path><path d="M1498.92 1929.86C1498.92 1929.86 1525.12 2064.05 1527.36 2074.33C1529.6 2084.61 1539.53 2222.06 1539.53 2222.06C1539.53 2222.06 1533.64 2234.21 1511.89 2229.64C1511.89 2229.64 1482.23 2081.94 1479.74 2076.99C1470.03 2057.79 1422.42 1964.73 1417.79 1951.45C1413.18 1938.18 1414.54 1922.67 1414.54 1922.67C1414.54 1922.67 1449.92 1902.8 1498.92 1929.86" id="f9E1opgob"></path><path d="M1487.91 1756.05C1487.91 1756.05 1499.4 1784.69 1502.29 1783.85C1505.17 1783 1538.21 1744.21 1538.21 1744.21C1538.21 1744.21 1553.32 1763.07 1551.3 1765.25C1548.48 1768.26 1509.46 1833.12 1504.1 1831.95C1498.73 1830.78 1474.74 1791.13 1474.74 1791.13C1474.74 1791.13 1473.39 1761.22 1487.91 1756.05" id="c3aAb6FmKQ"></path><path d="M1438.75 1701.33C1438.75 1701.33 1468.55 1724.11 1476.78 1733.15C1485 1742.18 1507.72 1779.66 1506.08 1790.93C1499.8 1834.15 1496.81 1870.98 1496.62 1900.47C1496.46 1926.15 1504.65 1932.71 1499.54 1933.08C1493.69 1933.52 1418.68 1960.7 1407.59 1964.01C1407.59 1964.01 1414.86 1873.57 1418.55 1863.13C1422.23 1852.69 1406.75 1743.32 1438.75 1701.33" id="b5490oCOC"></path><path d="M1630.73 1658.11L1637.41 1691.81C1641.43 1712.03 1643.66 1723.26 1644.1 1725.51C1644.1 1725.51 1605.84 1713.52 1562.41 1722.15C1562.21 1721.16 1561.23 1716.2 1559.46 1707.28C1557.68 1698.32 1556.69 1693.34 1556.49 1692.34C1599.91 1683.71 1630.73 1658.11 1630.73 1658.11" id="c1WfSHfjN"></path><path d="M1516.81 2238.38C1516.81 2238.38 1533.32 2235.18 1533.9 2234.67C1534.47 2234.18 1538.01 2227.66 1540.57 2228.8C1543.12 2229.93 1543.16 2237.87 1545.65 2239.22C1548.15 2240.55 1567.85 2253.87 1570.27 2256.3C1572.7 2258.72 1587.62 2257.3 1589.34 2261.51C1591.04 2265.72 1591.19 2275.66 1568.93 2273.32C1546.65 2270.99 1521.23 2274.61 1516.45 2271.97C1511.65 2269.35 1515.27 2244.79 1516.81 2238.38" id="a5sy1UqC5"></path><path d="M1351.65 2231.68C1351.65 2231.68 1368.46 2231.16 1369.11 2230.76C1369.76 2230.36 1374.3 2224.48 1376.64 2226.01C1378.97 2227.54 1377.73 2235.39 1379.99 2237.11C1382.24 2238.83 1399.56 2255.14 1401.56 2257.91C1403.55 2260.7 1418.52 2261.68 1419.54 2266.11C1420.55 2270.53 1419.1 2280.38 1397.5 2274.5C1375.9 2268.64 1350.22 2268.15 1345.92 2264.77C1341.6 2261.41 1349.12 2237.75 1351.65 2231.68" id="bsXZK6TMu"></path><path d="M1482.19 1936.08C1482.19 1936.08 1484.2 1944.25 1487.43 1946.03C1490.65 1947.79 1472.39 1965.26 1472.39 1965.26C1472.39 1965.26 1464.98 1949.07 1465.18 1947.44C1465.38 1945.8 1482.19 1936.08 1482.19 1936.08" id="bL7sJ3is0"></path><path d="M1425.51 1736.67C1425.51 1736.67 1404.11 1838.41 1402.36 1848.84C1400.7 1858.7 1465.07 1952.84 1465.07 1952.84C1467.21 1951.57 1484.34 1941.42 1486.48 1940.15C1486.48 1940.15 1434.53 1845.69 1434.61 1841.37C1434.69 1837.07 1459.55 1755.03 1459.55 1755.03C1459.55 1755.03 1469.94 1737.17 1451.5 1728.49C1433.07 1719.83 1425.51 1736.67 1425.51 1736.67" id="clkJHWREg"></path><path d="M1494.75 1943.09C1494.75 1943.09 1501.7 1977.7 1501.28 1988.3C1500.84 1998.89 1461.34 1971.62 1463.34 1961.08C1465.43 1959.88 1475.9 1953.88 1494.75 1943.09" id="b64w4fkYhc"></path><path d="M1438.75 1701.33C1438.75 1701.33 1493.04 1760.63 1489.69 1754.06C1477.78 1730.61 1469.45 1726.66 1469.62 1722.28C1469.75 1718.94 1470.84 1709.27 1471.06 1706.01C1471.48 1699.8 1472.16 1694.66 1472.16 1694.66C1472.16 1694.66 1445.21 1656.81 1446.4 1669.7C1447.58 1682.6 1438.75 1701.33 1438.75 1701.33" id="a1t0pSZipI"></path><path d="M1490.45 1631.52C1490.45 1631.52 1497.92 1649.05 1498.02 1653.14C1498.13 1657.25 1497.09 1660.39 1497.72 1665.11C1498.38 1670 1502.48 1680.28 1501.98 1683.12C1501.37 1686.55 1494.15 1684.76 1493.15 1690.41C1492.15 1696.06 1486.89 1706.69 1484.28 1706.9C1477.56 1707.46 1451.82 1696.96 1450.18 1691.57C1448.54 1686.19 1439.23 1656.17 1436.32 1650.46C1433.41 1644.74 1481.67 1613.46 1486.05 1622.48C1490.45 1631.52 1490.45 1631.52 1490.45 1631.52" id="buzLiSP7z"></path><path d="M1424.84 1644.52C1421.43 1629.65 1438.53 1627.83 1438.53 1627.83C1438.53 1627.83 1449.65 1614.87 1476.28 1616.4C1502.92 1617.95 1498.85 1652.7 1498.85 1652.7C1498.85 1652.7 1480.43 1649.94 1472.42 1651.97C1472.42 1651.97 1471.43 1666.8 1472.3 1670.48C1471.29 1670.39 1463.26 1669.68 1462.26 1669.59C1462.26 1669.59 1463.38 1656.42 1458.57 1655.79C1453.74 1655.18 1452.12 1683.68 1443.15 1689.96C1443.15 1689.96 1443.05 1687.95 1441.93 1685.97C1441.93 1685.97 1441.93 1685.97 1441.93 1685.97C1441.93 1685.97 1441.93 1685.97 1441.93 1685.97C1440.13 1682.84 1437.35 1677.57 1434.95 1671.43C1431.03 1662.82 1426.59 1652.14 1424.84 1644.52" id="bokHNugQ"></path><path d="M1465.25 1658.98C1465.25 1658.98 1461.51 1648.93 1452.69 1655.45C1446.26 1660.19 1452.86 1677.16 1459.11 1677.08C1465.37 1677 1467.91 1667.76 1465.25 1658.98" id="aLWQLIVW3"></path><path d="M1448.73 1686.88C1448.73 1686.88 1450.05 1692.21 1451.49 1693.46C1452.93 1694.7 1459.69 1700.2 1471.42 1703.87C1471.3 1704.94 1470.39 1713.46 1470.27 1714.53C1470.27 1714.53 1447.56 1705.61 1448.73 1686.88" id="dtZHfJJz"></path><path d="M1568.45 1759.01L1572.29 1757.18L1554.92 1720.34L1545.19 1724.92C1554.02 1743.66 1558.92 1754.07 1559.9 1756.15C1561.54 1759.63 1564.98 1760.65 1568.45 1759.01" id="aJeLL89DJ"></path><path d="M1564.17 1729.79C1564.17 1729.79 1553.3 1735.76 1554.05 1737.63C1554.78 1739.49 1556.2 1739.73 1556.2 1739.73C1555.86 1740.18 1553.17 1743.76 1552.84 1744.21C1552.84 1744.21 1552.29 1748.44 1557.05 1747.8C1557.05 1747.8 1556.13 1751.69 1560.65 1750.53C1560.65 1750.53 1561.2 1753.37 1563.38 1753.2C1565.57 1753.04 1572.41 1748.9 1572.41 1748.9C1572.41 1748.9 1573.46 1747.38 1571.39 1745.01C1571.39 1745.01 1572.61 1742.29 1570.41 1740.28C1570.41 1740.28 1571.03 1737.95 1568.63 1735.79C1568.63 1735.79 1569.63 1730.48 1565.33 1729.24C1565.33 1729.24 1564.62 1729.53 1564.17 1729.79" id="a14SXMEyWT"></path><path d="M1532.36 1728.36L1570.67 1721.22L1564.43 1689.8L1526.43 1698.46L1532.36 1728.36" id="bx4RtFkrE"></path><path d="M1545.16 1737.85C1545.16 1737.85 1553.66 1737.61 1558.37 1739.52C1559.42 1739.96 1560.38 1740.57 1560.38 1741.72C1560.38 1742.86 1558.72 1744.33 1555.04 1744.62C1551.36 1744.9 1546.73 1746.97 1546.73 1746.97C1546.73 1746.97 1542.87 1746.16 1545.16 1737.85" id="b7eOHQgsa"></path><path d="M1461.35 2040.78C1460.71 2044.18 1460.05 2047.63 1459.37 2051.05C1457.19 2045.3 1439.79 1999.24 1437.61 1993.48C1440.49 1999.29 1461.35 2040.78 1461.35 2040.78" id="a2WhYlAuu"></path><path d="M1853.17 1931.52L2204.4 1931.52L2093.7 2271.48L2104.06 2274.85L2219.39 1920.63L1845.25 1920.63L1731.02 2271.48L1741.37 2274.85L1853.17 1931.52" id="ateFmUP5u"></path><path d="M1972.7 2271.48L1861.99 1931.53L2213.22 1931.53L2325.01 2274.85L2335.38 2271.48L2221.13 1920.64L1847 1920.64L1962.34 2274.85L1972.7 2271.48" id="a9R3yiBh9e"></path><path d="M1820.5 2038.58L2250.38 2038.58L2250.38 2027.69L1820.5 2027.69L1820.5 2038.58" id="aaFCencrDI"></path><path d="M1776.19 2156.77L2290.53 2156.77L2290.53 2145.88L1776.19 2145.88L1776.19 2156.77" id="cO5L8fhVb"></path><path d="M2219.61 1256.82C2219.61 1256.82 2222.1 1248.31 2218.3 1244.96C2215.08 1242.11 2212.97 1236.1 2212.32 1234.24C2211.44 1231.78 2205.93 1225.18 2209.03 1224.04C2212.13 1222.91 2218.66 1234.47 2220.49 1236.63C2222.34 1238.77 2224.43 1226.26 2226.62 1224.27C2228.81 1222.29 2249.34 1226.92 2246.9 1235.35C2244.49 1243.77 2236.32 1251.17 2236.2 1252.74C2236.06 1254.3 2234.66 1258.94 2234.66 1258.94C2233.65 1258.8 2228.64 1258.1 2219.61 1256.82" id="a1Tqwe9wRH"></path><path d="M2225.58 1226.12C2225.58 1226.12 2234.73 1200.82 2236.76 1199.64C2238.77 1198.47 2240.11 1199.04 2239.35 1201.44C2238.6 1203.84 2231.22 1226.14 2231.22 1226.14C2231.22 1226.14 2247.09 1198.02 2248.53 1196.7C2249.38 1195.92 2252.03 1196.88 2251.75 1198.2C2251.47 1199.54 2237.34 1228.3 2237.34 1228.3C2237.34 1228.3 2252.2 1202.07 2253.74 1201.32C2255.09 1200.67 2257.3 1202.16 2256.34 1204.19C2255.36 1206.21 2242.96 1231.33 2242.96 1231.33C2242.96 1231.33 2254.97 1212.92 2256.65 1213.05C2257.67 1213.13 2260 1213.87 2256.77 1218.52C2253.5 1223.17 2246.99 1234.95 2246.99 1234.95C2245.56 1234.36 2238.42 1231.42 2225.58 1226.12" id="btMW5gFJP"></path><path d="M1866.65 1486.58C1866.65 1486.58 1858.53 1490.15 1854.72 1486.83C1851.46 1484.01 1845.24 1482.69 1843.3 1482.29C1840.74 1481.74 1833.49 1477.14 1832.78 1480.37C1832.05 1483.59 1844.37 1488.54 1846.74 1490.08C1849.12 1491.63 1836.98 1495.35 1835.31 1497.78C1833.62 1500.2 1840.91 1519.94 1848.95 1516.44C1856.97 1512.93 1863.23 1503.87 1864.77 1503.53C1866.31 1503.2 1870.73 1501.21 1870.73 1501.21C1870.46 1500.24 1869.1 1495.36 1866.65 1486.58" id="aAcrAhBtg"></path><path d="M1836.97 1496.52C1836.97 1496.52 1813.08 1508.9 1812.19 1511.06C1811.29 1513.22 1812.03 1514.47 1814.31 1513.41C1816.59 1512.34 1837.73 1502.11 1837.73 1502.11C1837.73 1502.11 1811.94 1521.51 1810.81 1523.12C1810.15 1524.07 1811.45 1526.58 1812.73 1526.12C1814.01 1525.67 1840.68 1507.89 1840.68 1507.89C1840.68 1507.89 1816.62 1526.05 1816.09 1527.68C1815.61 1529.09 1817.38 1531.11 1819.26 1529.88C1821.14 1528.65 1844.41 1513.06 1844.41 1513.06C1844.41 1513.06 1827.74 1527.38 1828.09 1529.03C1828.31 1530.03 1829.34 1532.25 1833.52 1528.43C1837.7 1524.59 1848.54 1516.59 1848.54 1516.59C1847.77 1515.25 1843.91 1508.56 1836.97 1496.52" id="peGGcxVYJ"></path><path d="M1858.08 1487C1865.75 1496.46 1870 1501.72 1870.85 1502.77C1870.85 1502.77 1953.15 1468.76 1965.73 1456.97C1965.73 1456.97 1969.07 1455.68 1986.08 1442.18C1986.08 1442.18 1986.08 1442.18 1986.08 1442.18C1989.72 1439.29 1993.29 1436.56 1996.55 1434.17C1996.55 1434.17 1997.39 1433.41 1998.75 1432.18C1998.77 1432.18 1998.77 1432.17 1998.77 1432.17C2004.89 1426.71 2021.48 1411.9 2021.48 1411.9C2021.48 1411.9 2062.76 1389.98 2045.94 1366.31C2045.94 1366.31 2038.94 1359.99 2028.21 1365.09C2017.46 1370.19 2001.93 1383.61 1998.26 1387.14C1994.58 1390.66 1970.73 1411 1969.45 1412.3C1964.69 1417.12 1948.48 1431.56 1940.12 1437.86C1925.36 1448.98 1858.08 1487 1858.08 1487" id="f4iCoiH25"></path><path d="M2093.4 1319.69C2093.38 1319.71 2093.38 1319.71 2093.38 1319.71C2090.23 1326.42 2086.41 1332.78 2082.19 1338.17C2067.64 1356.85 2033.71 1357.32 2033.22 1306.06C2033.12 1296.35 2034.32 1288.48 2036.29 1282.1C2043.22 1259.34 2059.55 1255.55 2059.55 1255.55C2071.62 1254.89 2092.72 1257.87 2099.73 1273.58C2104.74 1284.74 2101.13 1303.22 2093.4 1319.69" id="a7QMLRjwrz"></path><path d="M2093.38 1319.69C2093.36 1319.72 2093.36 1319.72 2093.36 1319.72C2093.36 1319.72 2091.64 1320.18 2085.37 1307.53C2084.11 1304.99 2083.15 1306.81 2082.61 1305.68C2081.61 1305.29 2073.62 1302.18 2072.62 1301.79C2072.62 1301.79 2082.49 1285.28 2069.58 1280.7C2056.41 1276.03 2036.28 1282.1 2036.28 1282.1C2040.58 1241.37 2059.54 1255.56 2059.54 1255.56C2071.61 1254.89 2097.38 1255.63 2104.41 1271.33C2109.41 1282.48 2101.11 1303.23 2093.38 1319.69" id="bPrajxoh7"></path><path d="M2080.56 1298.02C2081.29 1294.59 2088.07 1291.65 2090.95 1299.01C2093.83 1306.36 2084.2 1314.18 2081.66 1312.56C2079.12 1310.95 2079.34 1303.68 2080.56 1298.02" id="d2d09ftXcX"></path><path d="M1950.81 1894.21C1950.81 1894.21 1936.82 1905.65 1925.04 1908.19C1913.27 1910.74 1907.11 1916.77 1907 1923.75C1906.91 1930.74 1940.88 1935.33 1954.35 1928.3C1974.46 1917.78 1976.49 1920.95 1978.72 1915.7C1980.95 1910.45 1979.17 1896.54 1979.31 1894.86C1979.48 1892.81 1950.81 1894.21 1950.81 1894.21" id="bsH8TEF1t"></path><path d="M1951.76 1890.42C1951.76 1890.42 1950.22 1896.12 1950.45 1896.24C1950.68 1896.36 1976.98 1899.31 1976.17 1894.72C1975.54 1891.02 1974.61 1886.98 1974.61 1886.98C1973.09 1887.21 1965.47 1888.35 1951.76 1890.42" id="apwq9HcIr"></path><path d="M2118.08 1903.37C2118.08 1903.37 2109.36 1916.55 2098.31 1919.21C2087.42 1921.82 2083.4 1925.97 2082.86 1932.55C2082.33 1939.12 2108.55 1947.73 2126.99 1936.19C2139.1 1928.59 2143.6 1929.03 2146.05 1924.21C2148.47 1919.38 2146.64 1905.8 2146.87 1904.22C2147.19 1902.29 2118.08 1903.37 2118.08 1903.37" id="a3EW6pN6M4"></path><path d="M2120.99 1898.57C2120.99 1898.57 2120.45 1904.12 2120.66 1904.25C2120.88 1904.37 2145.15 1908.68 2145 1904.29C2144.89 1900.81 2143.47 1896.49 2143.47 1896.49C2141.97 1896.63 2134.48 1897.33 2120.99 1898.57" id="h2IB8pR8L"></path><path d="M2020.76 1563.71C2020.76 1563.71 1987.75 1645.56 1978.28 1673.35C1965.79 1709.91 1958.91 1742.13 1957.34 1759.66C1955.37 1781.71 1947.65 1885.76 1946.26 1892.2C1944.87 1898.65 1983.29 1896.49 1983.29 1896.49C1983.29 1896.49 2004.9 1765.29 2010.79 1741.8C2016.26 1719.94 2068.14 1620.75 2073.15 1626.72C2078.15 1632.68 2094.75 1734.21 2098.45 1751.46C2102.16 1768.71 2112.1 1904.45 2112.1 1904.45C2112.1 1904.45 2145.8 1909.86 2152.6 1904.45C2152.6 1904.45 2147.27 1783.41 2144.91 1751.08C2144.01 1738.76 2152.71 1603.58 2131.87 1549.06C2120.86 1520.25 2020.76 1563.71 2020.76 1563.71" id="b7Qfh5sOw"></path><path d="M2056.37 1358.2C2056.37 1358.2 2027.82 1364.06 2024.13 1367.34C2020.1 1370.83 2012.08 1406.15 2011.65 1415.68C2011.22 1425.19 2013.67 1464.44 2017.7 1479.26C2021.72 1494.07 2014.15 1555.73 2011.6 1576.26C2011.6 1576.26 2061.1 1598.75 2144.77 1581.22C2144.77 1581.22 2130.07 1517.4 2132.53 1497.1C2135.71 1471.09 2144.17 1414.14 2144.17 1414.14C2144.17 1414.14 2151.84 1359.88 2144.77 1361.22C2121.57 1365.6 2091.6 1358.2 2091.6 1358.2C2089.25 1358.2 2077.51 1358.2 2056.37 1358.2" id="f1dmfOE0yF"></path><path d="M2049.97 1364.81C2049.97 1364.81 2058.73 1371.4 2088.03 1358.48C2088.03 1358.48 2085.11 1342.54 2090.86 1323.77C2096.61 1305.01 2053.08 1343.32 2053.08 1343.32C2053.55 1343.66 2053.65 1345.54 2053.37 1348.15C2053.36 1348.32 2053.34 1348.48 2053.31 1348.66C2053.1 1350.55 2052.71 1352.77 2052.14 1355.05C2052.08 1355.33 2052.01 1355.61 2051.93 1355.91C2050.28 1362.17 2049.97 1359.33 2049.97 1364.81" id="bogU1ZOVw"></path><path d="M2052.15 1355.05C2052.15 1355.05 2052.15 1355.05 2052.15 1355.05C2073.14 1357.75 2084.58 1335.14 2084.92 1334.47C2070.56 1355.41 2053.32 1348.62 2053.32 1348.62C2053.32 1348.62 2053.32 1348.62 2053.32 1348.62C2053.11 1350.51 2052.71 1352.77 2052.15 1355.05" id="bHTSKBm"></path><path d="M2050.1 1359.56C2050.1 1359.56 2043.38 1369.55 2052.74 1371.24C2062.09 1372.95 2081.18 1370.87 2091.59 1358.2C2091.59 1358.2 2064.16 1352.94 2050.1 1359.56" id="e1avNq1RKy"></path><path d="M2098.36 1411.96C2095.39 1405.83 2102.92 1389.83 2115.65 1378.65C2125.72 1369.81 2136.47 1364.32 2141.72 1362.35C2146.96 1360.39 2182.78 1348.84 2184.5 1344.36C2186.69 1338.68 2196.21 1310.83 2196.98 1308.39C2198.51 1303.52 2216.4 1248.39 2216.4 1248.39C2218.62 1248.9 2236.44 1252.98 2238.67 1253.49C2238.67 1253.49 2222.06 1333.21 2220 1343.43C2218.63 1350.16 2217.49 1362.05 2202.49 1371.62C2187.23 1381.34 2153.84 1406.03 2150.48 1407.34C2147.12 1408.63 2111.6 1439.29 2098.36 1411.96" id="c247ME8Zgp"></path><path d="M2582.48 2224.37C2582.48 2224.37 2576.54 2226.21 2570.05 2230.94C2563.57 2235.67 2554.87 2243.41 2545.29 2245.14C2535.71 2246.87 2525.59 2246.73 2527.14 2256.98C2528.69 2267.23 2560.2 2272.28 2588.62 2263.6C2617.06 2254.92 2617.47 2254.14 2617.47 2251.6C2617.47 2249.08 2613.19 2223.69 2611.87 2222.82C2610.59 2221.96 2582.48 2224.37 2582.48 2224.37" id="cxqD9GrJe"></path><path d="M2748.07 2214.92C2748.07 2214.92 2737.13 2226.25 2727.7 2228.16C2718.27 2230.06 2705.9 2233.13 2705.24 2239.31C2704.63 2245.51 2708.55 2247.13 2708.92 2247.5C2711.27 2249.31 2756.28 2250.95 2773.69 2244.39C2784.36 2240.35 2772.05 2206.91 2772.05 2206.91C2770.46 2207.44 2762.46 2210.11 2748.07 2214.92" id="bzN15cKHN"></path><path d="M2650.19 1728.16C2650.19 1728.16 2618.01 1764.03 2619.07 1753.42C2619.71 1747.04 2616.72 1735.97 2614.25 1728.16C2612.62 1722.99 2611.21 1719.26 2611.21 1719.26C2611.21 1719.26 2611.21 1719.26 2611.21 1719.26C2611.47 1718.75 2646.24 1669.43 2644.96 1684.85C2643.71 1700.37 2650.19 1728.16 2650.19 1728.16" id="a1W3bOTfWk"></path><path d="M2638.32 1998.52C2638.32 1998.52 2624.18 2047.8 2626.56 2056.54C2628.94 2065.3 2653.26 2097.19 2656.56 2101.99C2660.99 2108.41 2731.45 2219 2732.25 2220.85C2733.04 2222.7 2772.85 2213.13 2774.43 2204.64C2774.43 2204.64 2718.63 2090.11 2705.38 2074.99C2692.11 2059.86 2689.04 2044.19 2691.16 2026.67C2693.29 2009.17 2719.16 1952.44 2715.19 1929.1C2711.2 1905.76 2640.7 1973.88 2638.32 1998.52" id="f2k0if7wly"></path><path d="M2612.09 1932.91C2612.09 1932.91 2517.07 2004.91 2506.43 2019.62C2495.79 2034.34 2507.73 2056.23 2509.31 2063.39C2510.91 2070.54 2574.96 2212.29 2575.76 2224.63C2575.76 2224.63 2618.75 2228.21 2626.32 2218.67C2626.32 2218.67 2579.55 2084.11 2572.78 2061.04C2566.02 2037.96 2589.27 2032.35 2607.97 2023.99C2626.68 2015.65 2708.76 1967.49 2713.52 1949.36C2717.9 1932.82 2713.58 1920.36 2713.58 1920.36C2713.58 1920.36 2690.59 1905.49 2612.09 1932.91" id="ae9PBHzID"></path><path d="M2607.01 1787.28C2607.01 1787.28 2543.29 1765.02 2544.38 1751.18C2545.5 1737.35 2601.43 1669.04 2601.43 1669.04C2602.69 1669.86 2609 1673.97 2620.36 1681.36L2593.14 1752.68L2641.42 1770.86L2607.01 1787.28" id="b5qwIvvxvG"></path><path d="M2653.91 1726.19C2653.91 1726.19 2646.59 1711.28 2646.46 1708.1C2646.46 1708.1 2614.39 1733.35 2611.21 1739.32C2611.21 1739.32 2612.9 1750.33 2611.72 1755.77C2614.54 1753.79 2628.6 1743.94 2653.91 1726.19" id="d2qiQzoVa"></path><path d="M2653.9 1726.19C2653.9 1726.19 2647.54 1723.01 2637.72 1729.38C2627.9 1735.73 2594.19 1769.51 2588.1 1771.63C2588.1 1771.63 2602.61 1834.84 2603.39 1851.55C2604.19 1868.26 2615.13 1955.69 2608.76 1966.84C2608.76 1966.84 2633.23 1960.16 2663.4 1950.17C2694.84 1939.79 2724 1922.15 2724 1922.15C2724 1922.15 2702.54 1869.6 2700.37 1852.69C2698.11 1835.07 2680.55 1747.52 2653.9 1726.19" id="c8MhTtk9"></path><path d="M2572.36 1685.33C2572.36 1685.33 2567.11 1679.91 2566.31 1667.24C2565.45 1653.46 2565.92 1658.34 2565.92 1658.34C2566.35 1660.14 2568.5 1669.14 2572.36 1685.33" id="b2bmv7Sw96"></path><path d="M2606.54 1679.04C2606.54 1679.04 2590.89 1671.01 2583.09 1671.01C2574.8 1671.03 2566.39 1676.76 2566.39 1676.76C2566.39 1676.76 2562.86 1664.05 2565.85 1659C2568.87 1653.95 2606.54 1679.04 2606.54 1679.04" id="bj6VuoLdP"></path><path d="M2633.79 1694.38C2633.79 1694.38 2629.75 1717.26 2614.32 1728.13C2614.3 1728.15 2614.28 1728.15 2614.28 1728.16C2612.62 1722.99 2611.22 1719.26 2611.22 1719.26C2611.22 1719.26 2611.22 1719.26 2611.22 1719.26C2611.46 1719.12 2626.97 1710.54 2633.79 1694.38" id="c35C36YxZn"></path><path d="M2595.18 1650.12C2595.18 1650.12 2584.71 1681.25 2583.67 1688.48C2582.61 1695.69 2561.14 1681.73 2561.14 1681.73C2561.14 1681.73 2570.9 1655.29 2573.04 1642.4C2575.18 1629.52 2595.18 1650.12 2595.18 1650.12" id="fJLi1BH1b"></path><path d="M2662.99 1769.97C2661.34 1761.1 2651.86 1751.74 2642.85 1751.22C2623.06 1750.08 2578.34 1749.96 2576.89 1747.41C2575.06 1744.17 2596.76 1657.29 2596.76 1657.29C2596.76 1657.29 2578.5 1649.83 2567.13 1648.8C2567.13 1648.8 2518.33 1777.71 2524.11 1781.59C2545.14 1795.72 2638.87 1799.26 2638.87 1799.26C2638.87 1799.26 2658.64 1794.64 2662.38 1781.44C2663.6 1777.15 2663.62 1773.31 2662.99 1769.97" id="aRBSLOVJ4"></path><path d="M2586.85 1604.05C2586.85 1604.05 2584.1 1606.38 2583.38 1607.99C2583.38 1607.99 2582.34 1611.02 2581.47 1613.11C2581.17 1613.78 2580.9 1614.36 2580.71 1614.71C2579.84 1616.19 2577.51 1619.18 2576.43 1623.31C2575.36 1627.44 2573.03 1642.4 2573.03 1642.4C2573.86 1642.68 2578 1644.09 2585.44 1646.64C2591.28 1648.72 2594.52 1649.88 2595.17 1650.12C2595.17 1650.12 2613.47 1635.24 2614.9 1631.52C2615.05 1631.15 2615.17 1630.79 2615.27 1630.43C2616.18 1627.15 2615.48 1624.32 2615.77 1622.55C2615.87 1621.89 2616.45 1615.35 2615.05 1613.96C2613.1 1612.04 2610.98 1611.51 2609.14 1611.9C2609.14 1611.9 2605.19 1608.31 2601.58 1608.14C2601.58 1608.14 2598.04 1604.71 2593.5 1605.77C2593.5 1605.77 2589.49 1602.7 2586.85 1604.05" id="dGWXsnyYO"></path><path d="M2570.44 1656.28C2570.44 1656.28 2566.43 1675.71 2571.67 1676.97C2576.02 1678.01 2572.93 1696.83 2572.67 1699.83C2572.44 1702.83 2580.75 1702.46 2582.92 1703.69C2585.08 1704.93 2596.32 1724.69 2602.88 1723.43C2609.45 1722.16 2635.18 1703.55 2640.58 1693.08C2645.96 1682.59 2641.36 1643.93 2631.5 1630C2621.62 1616.05 2577.6 1622.29 2570.44 1656.28" id="a4LxUxwf4D"></path><path d="M2569.56 1659.15C2569.56 1659.15 2562.8 1654.34 2566.89 1632.33C2571.59 1606.96 2618.43 1621.45 2622.17 1621.31C2625.91 1621.16 2649.82 1618.95 2648.26 1653.94C2646.59 1691.52 2644.83 1690.81 2644.83 1690.81C2644.83 1690.81 2636.76 1670.85 2630.06 1671.28C2622.77 1671.73 2611.08 1673.57 2611.08 1673.57C2611.08 1673.57 2612.3 1656.14 2602.4 1656.68C2592.51 1657.23 2577.86 1652.9 2569.56 1659.15" id="d1Rhl4HpOB"></path><path d="M2615.39 1674.64C2615.29 1672.67 2614.96 1663.83 2621.75 1663.14C2628.52 1662.45 2629.4 1673.19 2626.19 1680.59C2622.98 1687.97 2615.87 1685.64 2615.39 1674.64" id="gQoozx2bF"></path><path d="M99.11 1540.93L232.65 1540.93L232.65 1658.11L212.26 1637.72L99.11 1637.72L99.11 1540.93" id="bsO0Wio5T"></path><path d="M395.37 2209.95L368.52 2031.38L373.69 2030.58L400.54 2209.15L395.37 2209.95" id="c4GqteRKe"></path><path d="M362.58 2209.95L335.73 2031.38L340.9 2030.58L367.75 2209.15L362.58 2209.95" id="bgOZ4M18o"></path><path d="M201.09 2209.95L195.92 2209.15L222.77 2030.58L227.94 2031.38L201.09 2209.95" id="b3f3kpdCrM"></path><path d="M376.92 2033.19C389.54 1900.43 396.55 1826.67 397.96 1811.91C397.96 1811.91 361.17 1807.1 338.94 1808.29C336.71 1823.28 325.58 1898.25 305.53 2033.19L376.92 2033.19" id="a3zHl64Z71"></path><path d="M376.92 2021.95L305.53 2021.95L305.53 2033.19L376.92 2033.19L376.92 2021.95" id="c4LiQErhT"></path><path d="M258.83 2024.18C252.13 1897.65 248.41 1827.36 247.67 1813.3C247.67 1813.3 340.77 1803.2 397.96 1811.91C388.68 1826.07 342.3 1896.82 258.83 2024.18" id="a1ygR9mqJ9"></path><path d="M333.17 1745.02C333.17 1745.02 347.55 1702.86 320.12 1689.8C292.68 1676.72 269.39 1695.62 264.99 1705.85C260.59 1716.06 261.75 1734.65 265.51 1747.62C269.26 1760.58 268.71 1780.31 260.56 1786.92C252.41 1793.52 242.3 1804.48 242.8 1826.79C243.11 1840.63 297.27 1791.37 297.27 1791.37C299.66 1788.28 311.63 1772.83 333.17 1745.02" id="e2it73TIe"></path><path d="M296.57 2198.68C296.57 2198.68 295.71 2228.48 299.97 2230.26C304.22 2232.06 320.32 2221.7 327.43 2211.45C334.53 2201.2 318.53 2177.36 315.9 2164.21C314.8 2158.69 302.29 2148.79 296.19 2151.63C290.09 2154.47 285.63 2161.75 285.63 2161.75C285.63 2161.75 301.16 2172.38 296.57 2198.68" id="d5b5MIuV8d"></path><path d="M285.63 2161.75C285.63 2161.75 290.92 2171.9 293.63 2179.8C296.35 2187.69 296.86 2209.53 298.57 2211.05C300.28 2212.56 313.77 2205.76 315.58 2197.59C317.38 2189.42 311.91 2173.09 306.7 2164.51C301.49 2155.92 296.19 2151.63 296.19 2151.63C296.19 2151.63 286.99 2153.42 285.63 2161.75" id="aFrwdYhSs"></path><path d="M315.9 2164.21L330.4 2185.37L327.65 2187.25L316.45 2170.89L315.9 2164.21" id="e4gkqDZWBa"></path><path d="M263.71 1930.23C263.71 1930.23 270.8 1942.2 263.71 1950.92C256.62 1959.64 208.95 1983.59 209.3 1997.41C209.65 2011.25 218.38 2032.9 221.52 2038.39C224.66 2043.88 236.23 2066.66 242.25 2080.01C248.26 2093.34 283.04 2157.15 289.84 2171.53C296.64 2185.91 292.46 2114 292.46 2114C290.14 2107.2 278.54 2073.2 257.68 2012.01C306.43 1964.51 333.52 1938.12 338.94 1932.84C338.94 1932.84 329.1 1910.96 263.71 1930.23" id="e1xEVaBTVN"></path><path d="M294.63 1795.17C294.63 1795.17 272.08 1800.17 263.13 1805.41C254.18 1810.63 234.3 1834.69 234.3 1845.04C234.3 1855.38 321.22 1865.05 321.22 1865.05C322.87 1871.06 336.05 1919.18 337.7 1925.19C337.7 1925.19 381.63 1914.48 386.86 1905.58C392.09 1896.69 369.56 1833.4 366.42 1820.07C363.28 1806.73 346.85 1797.74 328.54 1795.17C310.24 1792.61 294.63 1795.17 294.63 1795.17" id="f9CReCa8d"></path><path d="M347.92 1932.22C347.92 1932.22 346.35 1942.49 350.53 1946.85C354.72 1951.21 373.99 1976.63 363.78 2001.6C354.41 2024.53 336.24 2024.09 336.24 2024.09C333.42 2024.09 310.92 2024.09 308.11 2024.09C308.11 2024.09 316.27 2065.36 313.64 2092.56C311 2119.76 298.6 2181.86 298.33 2184.99C298.07 2188.14 286.44 2197.94 283.04 2192.98C283.04 2192.98 282.73 2155.57 280.9 2141.46C279.07 2127.34 271.28 2070.85 268.92 2062.48C266.57 2054.12 252.71 2028.75 252.71 2026.14C252.71 2023.51 239.17 1982.58 268.72 1972.11C298.27 1961.66 308.71 1932.43 347.92 1932.22" id="crtvsHTRR"></path><path d="M269.04 2221.81C269.04 2221.81 249.64 2244.45 251.82 2248.51C254 2252.58 273.03 2254.66 285 2251.15C296.96 2247.66 299.52 2219.05 305.75 2207.18C308.36 2202.2 304.86 2186.62 298.33 2184.99C291.8 2183.37 283.77 2186.22 283.77 2186.22C283.77 2186.22 289.15 2204.26 269.04 2221.81" id="ddxAlDkmN"></path><path d="M283.77 2186.22C283.77 2186.22 281.48 2197.44 278.63 2205.3C275.78 2213.13 262.44 2230.44 262.82 2232.69C263.19 2234.95 277.97 2238.14 284.5 2232.93C291.04 2227.7 297.05 2211.57 298.4 2201.62C299.75 2191.67 298.33 2184.99 298.33 2184.99C298.33 2184.99 290.06 2180.6 283.77 2186.22" id="enNDSB6SH"></path><path d="M305.75 2207.18L303.72 2232.74L300.4 2232.48L301.97 2212.71L305.75 2207.18" id="e32AD1N7fJ"></path><path d="M363.78 2001.6C354.93 2024.83 336.24 2024.09 336.24 2024.09C333.42 2024.09 310.92 2024.09 308.11 2024.09C308.11 2024.09 296.38 2005.49 267.65 2002.31C261.28 2001.6 254.07 2001.64 245.98 2002.81C245.88 2002.83 245.78 2002.84 245.69 2002.87C207.51 2008.52 214.88 2022.53 215 2022.89C211.83 2015.14 208.49 2002.83 209.3 1996.2C212.96 1965.98 256.62 1959.64 263.71 1950.92C270.8 1942.2 263.71 1930.23 263.71 1930.23C329.1 1910.96 338.94 1932.84 338.94 1932.84C341.81 1932.44 349.15 1928.22 352.28 1928.2C352.28 1928.2 355.55 1935.35 357.86 1941.8C359.89 1947.49 373.38 1976.39 363.78 2001.6" id="c2Yh8ixdSq"></path><path d="M336.65 1835.24L346.33 1925.19L218.97 1925.19L209.3 1835.24L336.65 1835.24" id="e2gjPwQLAK"></path><path d="M356.46 1917.1L335.19 1917.1L335.19 1925.19L356.46 1925.19L356.46 1917.1" id="k2HtV2Ct7K"></path><path d="M536.81 1937.44L131.21 1937.44L131.21 1925.19L536.81 1925.19L536.81 1937.44" id="bezJ5BN3F"></path><path d="M308.72 1696.98C308.72 1696.98 337.25 1705.43 333.17 1745.02C329.1 1784.61 310.46 1782.59 308.72 1782.87C306.97 1783.16 284.84 1784.61 277.86 1736.59C270.87 1688.54 308.72 1696.98 308.72 1696.98" id="dmq5y08O2"></path><path d="M322.32 1775.59C322.32 1775.59 320.8 1788.71 323.33 1796.85C325.85 1805.01 290.09 1805.24 290.11 1798.53C290.14 1790.91 293.77 1784.55 290.35 1771.5C286.92 1758.45 322.32 1775.59 322.32 1775.59" id="atxFglC4e"></path><path d="M301.35 1714.64C301.35 1714.64 316.86 1739.31 333.17 1745.02C333.17 1745.02 342.08 1703.65 305.28 1694.97C268.48 1686.31 274.25 1736.77 277 1750.22C277 1750.22 284.66 1730.43 301.35 1714.64" id="bdf7rRo0R"></path><path d="M294.58 1777.26C294.58 1777.26 305.87 1789.03 320.31 1778.5C320.31 1778.5 319.11 1786.01 308.73 1786.97C298.35 1787.95 294.58 1777.26 294.58 1777.26" id="c5Ln5y6GD"></path><path d="M280.56 1710.93C280.56 1710.93 288.72 1695.12 302.5 1694.41C316.28 1693.72 324.48 1705.66 324.48 1705.66C324.48 1705.66 319.1 1692.21 302.52 1692.21C285.94 1692.21 280.56 1710.93 280.56 1710.93" id="a7Hp3Noc2"></path><path d="M326.98 1794.97C326.98 1794.97 326.47 1822.38 304.74 1823.19C283 1824 287.53 1796.9 287.53 1796.9C287.53 1796.9 303.43 1790.47 326.98 1794.97" id="d5ScjoxlnE"></path><path d="M527.8 2246.58L536.81 2246.58L536.81 1937.44L527.8 1937.44L527.8 2246.58" id="g4RxTJOkU2"></path><path d="M131.21 2246.58L140.21 2246.58L140.21 1937.44L131.21 1937.44L131.21 2246.58" id="a1bWiGuYsR"></path><path d="M1176.93 400.04C1169.75 424.79 1175.43 451.36 1192.13 471.08C1192.17 471.13 1192.38 471.37 1192.75 471.82C1192.84 472.4 1192.89 472.72 1192.9 472.78C1194.9 486.5 1196.74 506.81 1194.14 525.68C1194.14 525.7 1194.1 525.9 1194.1 525.93C1192.61 532.78 1194.39 539.95 1199.11 546.11C1203.96 552.43 1211.3 556.93 1219.75 558.76C1237.01 562.51 1253.59 553.86 1256.7 539.5C1256.7 539.49 1256.71 539.45 1256.72 539.37C1256.75 539.29 1256.76 539.25 1256.76 539.25C1260.95 525.21 1268.26 509.87 1278.51 493.63C1278.54 493.57 1278.74 493.26 1279.08 492.71C1279.68 492.46 1280.01 492.32 1280.08 492.3C1301.71 483.3 1317.86 465.26 1324.37 442.82C1336.16 402.16 1312.68 359.5 1272.04 347.71C1231.4 335.91 1188.73 359.4 1176.93 400.04ZM1215.23 564.67C1206.48 562.13 1198.91 557.09 1193.69 550.27C1187.76 542.52 1185.52 533.42 1187.38 524.61C1189.8 507.01 1188.16 487.95 1186.26 474.73C1168.59 453.35 1162.64 424.78 1170.37 398.13C1183.21 353.87 1229.68 328.3 1273.95 341.14C1318.22 353.99 1343.78 400.44 1330.93 444.72C1323.95 468.81 1306.77 488.25 1283.72 498.19C1274.13 513.51 1267.28 527.93 1263.35 541.07C1259.38 559.04 1239.2 569.97 1218.31 565.44C1217.27 565.23 1216.24 564.96 1215.23 564.67" id="o3ugqAOSaY"></path><path d="M1205.91 533.58L1213.9 442.18L1229.27 461.45L1243.46 451.08L1250.91 465.17L1271.37 454.09L1242.09 541.18L1235.61 538.99L1259.35 468.38L1248.1 474.48L1241.12 461.27L1228 470.84L1219.21 459.83L1212.72 534.18L1205.91 533.58" id="a19tkimxkr"></path><path d="M1243.93 586.91L1185.98 574.36L1191.03 551L1248.99 563.56L1243.93 586.91" id="b2EY5ZHWtR"></path><path d="M1255.34 579.32L1178.74 562.72L1186.89 525.13L1263.48 541.73L1255.34 579.32" id="b1uslW7Zhx"></path><path d="M153.24 1154.47L149.11 1153.05L183.76 1052.18L261.18 1030.74L287.82 920.15L347.44 893.01L359.87 807.13L364.2 807.75L351.42 896.01L291.57 923.26L264.83 1034.27L187.15 1055.78L153.24 1154.47" id="bbKa5Ywrm"></path><path d="M271.94 1025.02C276.07 1029.96 275.42 1037.31 270.48 1041.44C265.55 1045.57 258.2 1044.92 254.07 1039.99C249.94 1035.04 250.59 1027.7 255.53 1023.56C260.46 1019.43 267.81 1020.09 271.94 1025.02" id="i8aMdSyVx9"></path><path d="M255.74 1038.57C259.09 1042.59 265.08 1043.12 269.08 1039.76C273.09 1036.41 273.62 1030.43 270.27 1026.43C266.92 1022.42 260.93 1021.88 256.93 1025.24C252.92 1028.59 252.39 1034.58 255.74 1038.57ZM271.89 1043.12C266.04 1048.01 257.29 1047.24 252.39 1041.39C247.49 1035.53 248.27 1026.79 254.12 1021.88C259.98 1016.99 268.72 1017.77 273.62 1023.62C278.52 1029.47 277.74 1038.21 271.89 1043.12" id="d191Gt7WTA"></path><path d="M298.95 914.89C303.08 919.82 302.43 927.18 297.49 931.31C292.56 935.44 285.21 934.79 281.08 929.84C276.94 924.91 277.6 917.56 282.54 913.43C287.47 909.3 294.82 909.95 298.95 914.89" id="a38eGsR5rD"></path><path d="M282.75 928.44C286.1 932.44 292.09 932.97 296.09 929.63C300.1 926.28 300.63 920.3 297.28 916.28C293.93 912.29 287.94 911.75 283.94 915.1C279.93 918.46 279.4 924.44 282.75 928.44ZM298.9 932.97C293.04 937.88 284.3 937.11 279.4 931.25C274.5 925.4 275.28 916.64 281.13 911.75C286.99 906.86 295.73 907.63 300.63 913.49C305.53 919.34 304.75 928.08 298.9 932.97" id="c9BQEExVZ"></path><path d="M357.64 887C361.77 891.94 361.12 899.29 356.19 903.42C351.25 907.55 343.9 906.9 339.77 901.95C335.64 897.02 336.29 889.68 341.23 885.55C346.16 881.41 353.51 882.07 357.64 887" id="b3TCNW3kch"></path><path d="M341.44 900.56C344.79 904.57 350.78 905.1 354.78 901.74C358.79 898.4 359.32 892.41 355.97 888.41C352.62 884.4 346.63 883.87 342.63 887.23C338.62 890.57 338.09 896.56 341.44 900.56ZM357.59 905.1C351.74 909.99 342.99 909.22 338.09 903.37C333.19 897.52 333.97 888.77 339.82 883.87C345.68 878.97 354.42 879.75 359.32 885.6C364.22 891.45 363.44 900.2 357.59 905.1" id="c6r55HXFY4"></path><path d="M194.84 1047.48C198.97 1052.42 198.31 1059.77 193.38 1063.9C188.44 1068.03 181.09 1067.38 176.96 1062.43C172.83 1057.5 173.48 1050.16 178.42 1046.03C183.36 1041.89 190.71 1042.55 194.84 1047.48" id="bCLUppPw6"></path><path d="M178.64 1061.04C181.99 1065.05 187.97 1065.58 191.98 1062.22C195.98 1058.88 196.51 1052.89 193.16 1048.88C189.81 1044.88 183.83 1044.35 179.82 1047.71C175.82 1051.05 175.29 1057.04 178.64 1061.04ZM194.78 1065.58C188.93 1070.47 180.18 1069.7 175.29 1063.85C170.39 1058 171.17 1049.25 177.02 1044.35C182.87 1039.45 191.62 1040.23 196.51 1046.08C201.41 1051.93 200.63 1060.68 194.78 1065.58" id="b4yaLyt0zh"></path><path d="M2410.01 875.54L2597.55 875.54L2597.55 862.4L2410.01 862.4L2410.01 875.54" id="a4r7c6bhkI"></path><path d="M2410.01 942.44L2597.55 942.44L2597.55 887.17L2410.01 887.17L2410.01 942.44" id="bvcga7ZXn"></path><path d="M2321.91 969.28L2432.55 969.28L2432.55 961.02L2321.91 961.02L2321.91 969.28" id="b9I7Yf3i7r"></path><path d="M2321.91 995.27L2432.55 995.27L2432.55 972.9L2321.91 972.9L2321.91 995.27" id="dQlh3jxbu"></path><path d="M2628.32 791.55L2636.57 791.55L2636.57 946.41L2628.32 946.41L2628.32 791.55" id="f12XFlSS4w"></path><path d="M2628.64 1329.58L2493.65 1254.08L2540.05 1251.03L2628.64 1329.58" id="e1NCaN3O9J"></path><path d="M2628.64 1329.58L2587.1 1262.77L2552.25 1261.84L2628.64 1329.58" id="f1pqfldSGF"></path><path d="M2524.7 1271.45L2521.98 1288.46L2628.64 1329.58L2524.7 1271.45" id="cb9ERIC4J"></path><path d="M631.91 1049.54C631.42 1049.49 631.15 1049.47 631.09 1049.46C615.45 1048.07 600.16 1047.44 585.57 1047.37C579.82 1047.37 574.19 1047.48 568.68 1047.69C568.63 1046.62 568.31 1038.1 568.26 1037.03C573.93 1036.82 579.88 1036.71 585.61 1036.7C600.48 1036.7 616.1 1037.42 632.04 1038.84C632.1 1038.85 632.36 1038.87 632.84 1038.91L631.91 1049.54ZM758.38 1065.68C736.61 1062.18 715.37 1059.09 695.26 1056.5C695.39 1055.44 696.49 1046.98 696.62 1045.92C716.85 1048.53 738.19 1051.63 760.07 1055.15C759.74 1057.25 758.72 1063.57 758.38 1065.68ZM442.49 1065.85C461.22 1056.79 481.92 1049.75 504 1044.93C504.23 1045.97 506.05 1054.3 506.28 1055.35C485.01 1059.99 465.11 1066.75 447.14 1075.45C446.21 1073.53 442.95 1066.81 442.49 1065.85ZM883.98 1088.73C861.43 1084.18 840.92 1080.21 821.28 1076.58C821.47 1075.53 823.02 1067.14 823.21 1066.09C842.91 1069.73 863.48 1073.72 886.09 1078.28C885.67 1080.37 884.4 1086.64 883.98 1088.73ZM1009.11 1115.09C988.18 1110.59 967.33 1106.11 946.56 1101.71C946.79 1100.66 948.56 1092.32 948.78 1091.28C969.56 1095.67 990.41 1100.16 1011.35 1104.66C1010.9 1106.75 1009.56 1113 1009.11 1115.09ZM2085.19 1116.08C2107.02 1114.45 2128.62 1113.51 2149.46 1113.3C2149.47 1114.37 2149.54 1122.9 2149.55 1123.96C2128.96 1124.17 2107.58 1125.1 2085.99 1126.71C2085.83 1124.59 2085.27 1117.14 2085.19 1116.08ZM2276.19 1132.44C2255.95 1129.32 2234.72 1127.03 2213.1 1125.63C2213.16 1124.56 2213.7 1116.05 2213.77 1114.98C2235.73 1116.4 2257.28 1118.73 2277.81 1121.9C2277.49 1124.01 2276.51 1130.33 2276.19 1132.44ZM1134.35 1141.52C1113.37 1137.26 1092.48 1132.89 1071.67 1128.48C1071.89 1127.44 1073.66 1119.09 1073.88 1118.05C1094.66 1122.45 1115.51 1126.82 1136.48 1131.07C1136.05 1133.16 1134.77 1139.43 1134.35 1141.52ZM1957.81 1132.64C1979.24 1128.76 2000.59 1125.41 2021.27 1122.7C2021.41 1123.76 2022.52 1132.22 2022.66 1133.28C2002.14 1135.97 1980.98 1139.28 1959.7 1143.13C1959.32 1141.04 1958 1133.69 1957.81 1132.64ZM346.39 1152C358.29 1133.16 372.39 1116.36 388.31 1102.07C389.02 1102.86 394.73 1109.21 395.44 1110C380.25 1123.64 366.78 1139.69 355.41 1157.69C353.61 1156.55 347.3 1152.57 346.39 1152ZM1260.27 1165.13C1239.97 1161.71 1219.34 1158.02 1197.2 1153.85C1197.39 1152.8 1198.97 1144.42 1199.17 1143.38C1221.24 1147.53 1241.81 1151.21 1262.05 1154.61C1261.69 1156.71 1260.63 1163.02 1260.27 1165.13ZM2398.26 1165.19C2379.5 1157.56 2359.31 1150.85 2338.25 1145.28C2338.52 1144.25 2340.69 1136 2340.96 1134.97C2362.47 1140.66 2383.11 1147.5 2402.28 1155.33C2401.47 1157.3 2399.06 1163.22 2398.26 1165.19ZM1832.56 1159.25C1847.84 1156.22 1863.27 1152.88 1878.42 1149.28C1883.96 1147.97 1889.46 1146.7 1894.88 1145.47C1895.12 1146.51 1897.01 1154.84 1897.24 1155.88C1891.84 1157.09 1886.39 1158.35 1880.89 1159.66C1865.61 1163.27 1850.03 1166.66 1834.64 1169.71C1834.22 1167.62 1832.77 1160.29 1832.56 1159.25ZM1387.21 1183.18C1366.64 1180.84 1345.24 1178.1 1323.62 1175C1323.77 1173.95 1324.97 1165.51 1325.12 1164.46C1346.64 1167.53 1367.94 1170.26 1388.41 1172.58C1388.17 1174.7 1387.45 1181.06 1387.21 1183.18ZM1706.54 1177.63C1727.7 1175.62 1748.97 1173.04 1769.79 1170.02C1769.94 1171.07 1771.17 1179.52 1771.32 1180.58C1750.33 1183.63 1728.88 1186.21 1707.57 1188.24C1707.37 1186.12 1706.65 1178.69 1706.54 1177.63ZM1515.13 1193.13C1494.22 1192.29 1472.67 1191.01 1451.07 1189.31C1451.15 1188.25 1451.83 1179.75 1451.91 1178.68C1473.37 1180.36 1494.78 1181.64 1515.56 1182.47C1515.48 1184.6 1515.22 1191 1515.13 1193.13ZM1579.29 1183.71C1600.67 1183.67 1622.11 1183.13 1643 1182.15C1643.05 1183.21 1643.46 1191.73 1643.51 1192.8C1622.45 1193.8 1600.86 1194.33 1579.31 1194.37C1579.31 1192.24 1579.29 1184.78 1579.29 1183.71ZM2498.07 1227.34C2497.51 1226.71 2484.36 1211.91 2454.56 1193.5C2455.12 1192.6 2459.61 1185.35 2460.17 1184.44C2491.3 1203.66 2505.49 1219.63 2506.07 1220.3C2504.47 1221.71 2499.67 1225.93 2498.07 1227.34ZM302.68 1273.69C306.29 1251.44 311.58 1230.26 318.4 1210.73C319.41 1211.08 327.46 1213.9 328.47 1214.25C321.85 1233.19 316.72 1253.76 313.21 1275.39C311.1 1275.05 303.73 1273.86 302.68 1273.69ZM300.01 1402.97C299.88 1402.09 296.79 1380.97 296.79 1348.76C296.79 1345.36 296.83 1341.83 296.91 1338.19C297.97 1338.21 306.5 1338.39 307.57 1338.42C307.49 1341.98 307.46 1345.43 307.46 1348.76C307.46 1380.11 310.53 1401.2 310.56 1401.41C309.86 1401.52 306.34 1402.04 300.01 1402.97" id="kc4LaCRQb"></path></defs><g><g><g><use xlink:href="#athkNgT9a" opacity="1" fill="url(#gradientarzNl8SSj)"></use><g><use xlink:href="#athkNgT9a" opacity="1" fill-opacity="0" stroke="#000000" stroke-width="1" stroke-opacity="0"></use></g></g><g><use xlink:href="#aDtDCkMrs" opacity="1" fill="url(#gradientaUCtp75kr)"></use><g><use xlink:href="#aDtDCkMrs" opacity="1" fill-opacity="0" stroke="#000000" stroke-width="1" stroke-opacity="0"></use></g></g><g><use xlink:href="#bjI7bMWKe" opacity="1" fill="url(#gradienta1vTDclgUF)"></use><g><use xlink:href="#bjI7bMWKe" opacity="1" fill-opacity="0" stroke="#000000" stroke-width="1" stroke-opacity="0"></use></g></g><g><use xlink:href="#e2qZ9WkH6k" opacity="1" fill="url(#gradienth1vgBIEuvb)"></use><g><use xlink:href="#e2qZ9WkH6k" opacity="1" fill-opacity="0" stroke="#000000" stroke-width="1" stroke-opacity="0"></use></g></g><g><use xlink:href="#aHZmknjW" opacity="1" fill="#98a6b1" fill-opacity="1"></use><g><use xlink:href="#aHZmknjW" opacity="1" fill-opacity="0" stroke="#000000" stroke-width="1" stroke-opacity="0"></use></g></g><g><use xlink:href="#c1tgAtowCO" opacity="1" fill="url(#gradienta3ZlSnsyTm)"></use><g><use xlink:href="#c1tgAtowCO" opacity="1" fill-opacity="0" stroke="#000000" stroke-width="1" stroke-opacity="0"></use></g></g><g><use xlink:href="#b1GkKbRr1Q" opacity="1" fill="url(#gradienteXShuQNeJ)"></use><g><use xlink:href="#b1GkKbRr1Q" opacity="1" fill-opacity="0" stroke="#000000" stroke-width="1" stroke-opacity="0"></use></g></g><g><use xlink:href="#chRYSxNXS" opacity="1" fill="#706865" fill-opacity="1"></use><g><use xlink:href="#chRYSxNXS" opacity="1" fill-opacity="0" stroke="#000000" stroke-width="1" stroke-opacity="0"></use></g></g><g><use xlink:href="#cahgOl5Wd" opacity="1" fill="#706865" fill-opacity="1"></use><g><use xlink:href="#cahgOl5Wd" opacity="1" fill-opacity="0" stroke="#000000" stroke-width="1" stroke-opacity="0"></use></g></g><g><use xlink:href="#l1L4PeVovR" opacity="1" fill="#bdafaa" fill-opacity="1"></use><g><use xlink:href="#l1L4PeVovR" opacity="1" fill-opacity="0" stroke="#000000" stroke-width="1" stroke-opacity="0"></use></g></g><g><use xlink:href="#b53fZ1OYC9" opacity="1" fill="#ffffff" fill-opacity="1"></use><g><use xlink:href="#b53fZ1OYC9" opacity="1" fill-opacity="0" stroke="#000000" stroke-width="1" stroke-opacity="0"></use></g></g><g><use xlink:href="#d3IdJpEdNU" opacity="1" fill="#706865" fill-opacity="1"></use><g><use xlink:href="#d3IdJpEdNU" opacity="1" fill-opacity="0" stroke="#000000" stroke-width="1" stroke-opacity="0"></use></g></g><g><use xlink:href="#b7BvO1zLIk" opacity="1" fill="#ffb955" fill-opacity="1"></use><g><use xlink:href="#b7BvO1zLIk" opacity="1" fill-opacity="0" stroke="#000000" stroke-width="1" stroke-opacity="0"></use></g></g><g><use xlink:href="#b9Clr3x3ji" opacity="1" fill="#cfcfcf" fill-opacity="1"></use><g><use xlink:href="#b9Clr3x3ji" opacity="1" fill-opacity="0" stroke="#000000" stroke-width="1" stroke-opacity="0"></use></g></g><g><use xlink:href="#aPks9Ga3P" opacity="1" fill="#cfcfcf" fill-opacity="1"></use><g><use xlink:href="#aPks9Ga3P" opacity="1" fill-opacity="0" stroke="#000000" stroke-width="1" stroke-opacity="0"></use></g></g><g><use xlink:href="#d2fSnvuDHU" opacity="1" fill="#cfcfcf" fill-opacity="1"></use><g><use xlink:href="#d2fSnvuDHU" opacity="1" fill-opacity="0" stroke="#000000" stroke-width="1" stroke-opacity="0"></use></g></g><g><use xlink:href="#aWqc1nlHM" opacity="1" fill="#eea886" fill-opacity="1"></use><g><use xlink:href="#aWqc1nlHM" opacity="1" fill-opacity="0" stroke="#000000" stroke-width="1" stroke-opacity="0"></use></g></g><g><use xlink:href="#a2lcI1jm5V" opacity="1" fill="#db9c7c" fill-opacity="1"></use><g><use xlink:href="#a2lcI1jm5V" opacity="1" fill-opacity="0" stroke="#000000" stroke-width="1" stroke-opacity="0"></use></g></g><g><use xlink:href="#b4bOjZ5zxB" opacity="1" fill="#323657" fill-opacity="1"></use><g><use xlink:href="#b4bOjZ5zxB" opacity="1" fill-opacity="0" stroke="#000000" stroke-width="1" stroke-opacity="0"></use></g></g><g><use xlink:href="#b68yTeXnPM" opacity="1" fill="#4da8f2" fill-opacity="1"></use><g><use xlink:href="#b68yTeXnPM" opacity="1" fill-opacity="0" stroke="#000000" stroke-width="1" stroke-opacity="0"></use></g></g><g><use xlink:href="#a1cu3k2KCJ" opacity="1" fill="#efaa88" fill-opacity="1"></use><g><use xlink:href="#a1cu3k2KCJ" opacity="1" fill-opacity="0" stroke="#000000" stroke-width="1" stroke-opacity="0"></use></g></g><g><use xlink:href="#e3530IMjUy" opacity="1" fill="#424773" fill-opacity="1"></use><g><use xlink:href="#e3530IMjUy" opacity="1" fill-opacity="0" stroke="#000000" stroke-width="1" stroke-opacity="0"></use></g></g><g><use xlink:href="#aYyt8YL3Z" opacity="1" fill="#292c47" fill-opacity="1"></use><g><use xlink:href="#aYyt8YL3Z" opacity="1" fill-opacity="0" stroke="#000000" stroke-width="1" stroke-opacity="0"></use></g></g><g><use xlink:href="#c2jenCdG6e" opacity="1" fill="#424773" fill-opacity="1"></use><g><use xlink:href="#c2jenCdG6e" opacity="1" fill-opacity="0" stroke="#000000" stroke-width="1" stroke-opacity="0"></use></g></g><g><use xlink:href="#bQvt4Nbdr" opacity="1" fill="#292c47" fill-opacity="1"></use><g><use xlink:href="#bQvt4Nbdr" opacity="1" fill-opacity="0" stroke="#000000" stroke-width="1" stroke-opacity="0"></use></g></g><g><use xlink:href="#buKD4aBHn" opacity="1" fill="#292c47" fill-opacity="1"></use><g><use xlink:href="#buKD4aBHn" opacity="1" fill-opacity="0" stroke="#000000" stroke-width="1" stroke-opacity="0"></use></g></g><g><use xlink:href="#dVR2iNtvG" opacity="1" fill="#292c47" fill-opacity="1"></use><g><use xlink:href="#dVR2iNtvG" opacity="1" fill-opacity="0" stroke="#000000" stroke-width="1" stroke-opacity="0"></use></g></g><g><use xlink:href="#fMcC9HMpm" opacity="1" fill="#eea886" fill-opacity="1"></use><g><use xlink:href="#fMcC9HMpm" opacity="1" fill-opacity="0" stroke="#000000" stroke-width="1" stroke-opacity="0"></use></g></g><g><use xlink:href="#e3fdAbUMst" opacity="1" fill="#eea886" fill-opacity="1"></use><g><use xlink:href="#e3fdAbUMst" opacity="1" fill-opacity="0" stroke="#000000" stroke-width="1" stroke-opacity="0"></use></g></g><g><use xlink:href="#b3HwLdCpno" opacity="1" fill="#d88a51" fill-opacity="1"></use><g><use xlink:href="#b3HwLdCpno" opacity="1" fill-opacity="0" stroke="#000000" stroke-width="1" stroke-opacity="0"></use></g></g><g><use xlink:href="#a1HKvjTfDW" opacity="1" fill="#e2d2ca" fill-opacity="1"></use><g><use xlink:href="#a1HKvjTfDW" opacity="1" fill-opacity="0" stroke="#000000" stroke-width="1" stroke-opacity="0"></use></g></g><g><use xlink:href="#bfnQfpqmU" opacity="1" fill="#eea886" fill-opacity="1"></use><g><use xlink:href="#bfnQfpqmU" opacity="1" fill-opacity="0" stroke="#000000" stroke-width="1" stroke-opacity="0"></use></g></g><g><use xlink:href="#p1w0XG8RZ4" opacity="1" fill="#323657" fill-opacity="1"></use><g><use xlink:href="#p1w0XG8RZ4" opacity="1" fill-opacity="0" stroke="#000000" stroke-width="1" stroke-opacity="0"></use></g></g><g><use xlink:href="#cvJxG9ObK" opacity="1" fill="#d88a51" fill-opacity="1"></use><g><use xlink:href="#cvJxG9ObK" opacity="1" fill-opacity="0" stroke="#000000" stroke-width="1" stroke-opacity="0"></use></g></g><g><use xlink:href="#c27r8qvGIZ" opacity="1" fill="#dfe1e8" fill-opacity="1"></use><g><use xlink:href="#c27r8qvGIZ" opacity="1" fill-opacity="0" stroke="#000000" stroke-width="1" stroke-opacity="0"></use></g></g><g><use xlink:href="#cca9kSnoj" opacity="1" fill="#385369" fill-opacity="1"></use><g><use xlink:href="#cca9kSnoj" opacity="1" fill-opacity="0" stroke="#000000" stroke-width="1" stroke-opacity="0"></use></g></g><g><use xlink:href="#c5XhKPTSaW" opacity="1" fill="#98a6b1" fill-opacity="1"></use><g><use xlink:href="#c5XhKPTSaW" opacity="1" fill-opacity="0" stroke="#000000" stroke-width="1" stroke-opacity="0"></use></g></g><g><use xlink:href="#a2ZHaqMEdj" opacity="1" fill="#98a6b1" fill-opacity="1"></use><g><use xlink:href="#a2ZHaqMEdj" opacity="1" fill-opacity="0" stroke="#000000" stroke-width="1" stroke-opacity="0"></use></g></g><g><use xlink:href="#bdsRAP0IR" opacity="1" fill="url(#gradientb2icUD3uu7)"></use><g><use xlink:href="#bdsRAP0IR" opacity="1" fill-opacity="0" stroke="#000000" stroke-width="1" stroke-opacity="0"></use></g></g><g><use xlink:href="#aakN9puUP" opacity="1" fill="#ffce55" fill-opacity="1"></use><g><use xlink:href="#aakN9puUP" opacity="1" fill-opacity="0" stroke="#000000" stroke-width="1" stroke-opacity="0"></use></g></g><g><use xlink:href="#cTdT64dkC" opacity="1" fill="#eea886" fill-opacity="1"></use><g><use xlink:href="#cTdT64dkC" opacity="1" fill-opacity="0" stroke="#000000" stroke-width="1" stroke-opacity="0"></use></g></g><g><use xlink:href="#b4ohDihlWp" opacity="1" fill="#cf8c6c" fill-opacity="1"></use><g><use xlink:href="#b4ohDihlWp" opacity="1" fill-opacity="0" stroke="#000000" stroke-width="1" stroke-opacity="0"></use></g></g><g><use xlink:href="#g4sdFuklo" opacity="1" fill="#555c94" fill-opacity="1"></use><g><use xlink:href="#g4sdFuklo" opacity="1" fill-opacity="0" stroke="#000000" stroke-width="1" stroke-opacity="0"></use></g></g><g><use xlink:href="#hd9zy8tgu" opacity="1" fill="#555c94" fill-opacity="1"></use><g><use xlink:href="#hd9zy8tgu" opacity="1" fill-opacity="0" stroke="#000000" stroke-width="1" stroke-opacity="0"></use></g></g><g><use xlink:href="#e14SXE3Ok" opacity="1" fill="#354c70" fill-opacity="1"></use><g><use xlink:href="#e14SXE3Ok" opacity="1" fill-opacity="0" stroke="#000000" stroke-width="1" stroke-opacity="0"></use></g></g><g><use xlink:href="#f9E1opgob" opacity="1" fill="#354c70" fill-opacity="1"></use><g><use xlink:href="#f9E1opgob" opacity="1" fill-opacity="0" stroke="#000000" stroke-width="1" stroke-opacity="0"></use></g></g><g><use xlink:href="#c3aAb6FmKQ" opacity="1" fill="#deb135" fill-opacity="1"></use><g><use xlink:href="#c3aAb6FmKQ" opacity="1" fill-opacity="0" stroke="#000000" stroke-width="1" stroke-opacity="0"></use></g></g><g><use xlink:href="#b5490oCOC" opacity="1" fill="#f2c344" fill-opacity="1"></use><g><use xlink:href="#b5490oCOC" opacity="1" fill-opacity="0" stroke="#000000" stroke-width="1" stroke-opacity="0"></use></g></g><g><use xlink:href="#c1WfSHfjN" opacity="1" fill="#d9d0c4" fill-opacity="1"></use><g><use xlink:href="#c1WfSHfjN" opacity="1" fill-opacity="0" stroke="#000000" stroke-width="1" stroke-opacity="0"></use></g></g><g><use xlink:href="#a5sy1UqC5" opacity="1" fill="#ffb355" fill-opacity="1"></use><g><use xlink:href="#a5sy1UqC5" opacity="1" fill-opacity="0" stroke="#000000" stroke-width="1" stroke-opacity="0"></use></g></g><g><use xlink:href="#bsXZK6TMu" opacity="1" fill="#ffb355" fill-opacity="1"></use><g><use xlink:href="#bsXZK6TMu" opacity="1" fill-opacity="0" stroke="#000000" stroke-width="1" stroke-opacity="0"></use></g></g><g><use xlink:href="#bL7sJ3is0" opacity="1" fill="#eea987" fill-opacity="1"></use><g><use xlink:href="#bL7sJ3is0" opacity="1" fill-opacity="0" stroke="#000000" stroke-width="1" stroke-opacity="0"></use></g></g><g><use xlink:href="#clkJHWREg" opacity="1" fill="#ffd255" fill-opacity="1"></use><g><use xlink:href="#clkJHWREg" opacity="1" fill-opacity="0" stroke="#000000" stroke-width="1" stroke-opacity="0"></use></g></g><g><use xlink:href="#b64w4fkYhc" opacity="1" fill="#3c5780" fill-opacity="1"></use><g><use xlink:href="#b64w4fkYhc" opacity="1" fill-opacity="0" stroke="#000000" stroke-width="1" stroke-opacity="0"></use></g></g><g><use xlink:href="#a1t0pSZipI" opacity="1" fill="#eea886" fill-opacity="1"></use><g><use xlink:href="#a1t0pSZipI" opacity="1" fill-opacity="0" stroke="#000000" stroke-width="1" stroke-opacity="0"></use></g></g><g><use xlink:href="#buzLiSP7z" opacity="1" fill="#eea886" fill-opacity="1"></use><g><use xlink:href="#buzLiSP7z" opacity="1" fill-opacity="0" stroke="#000000" stroke-width="1" stroke-opacity="0"></use></g></g><g><use xlink:href="#bokHNugQ" opacity="1" fill="#fccca2" fill-opacity="1"></use><g><use xlink:href="#bokHNugQ" opacity="1" fill-opacity="0" stroke="#000000" stroke-width="1" stroke-opacity="0"></use></g></g><g><use xlink:href="#aLWQLIVW3" opacity="1" fill="#eea886" fill-opacity="1"></use><g><use xlink:href="#aLWQLIVW3" opacity="1" fill-opacity="0" stroke="#000000" stroke-width="1" stroke-opacity="0"></use></g></g><g><use xlink:href="#dtZHfJJz" opacity="1" fill="#c48a6f" fill-opacity="1"></use><g><use xlink:href="#dtZHfJJz" opacity="1" fill-opacity="0" stroke="#000000" stroke-width="1" stroke-opacity="0"></use></g></g><g><use xlink:href="#aJeLL89DJ" opacity="1" fill="#e8734d" fill-opacity="1"></use><g><use xlink:href="#aJeLL89DJ" opacity="1" fill-opacity="0" stroke="#000000" stroke-width="1" stroke-opacity="0"></use></g></g><g><use xlink:href="#a14SXMEyWT" opacity="1" fill="#db9c7c" fill-opacity="1"></use><g><use xlink:href="#a14SXMEyWT" opacity="1" fill-opacity="0" stroke="#000000" stroke-width="1" stroke-opacity="0"></use></g></g><g><use xlink:href="#bx4RtFkrE" opacity="1" fill="#e8734d" fill-opacity="1"></use><g><use xlink:href="#bx4RtFkrE" opacity="1" fill-opacity="0" stroke="#000000" stroke-width="1" stroke-opacity="0"></use></g></g><g><use xlink:href="#b7eOHQgsa" opacity="1" fill="#eea886" fill-opacity="1"></use><g><use xlink:href="#b7eOHQgsa" opacity="1" fill-opacity="0" stroke="#000000" stroke-width="1" stroke-opacity="0"></use></g></g><g><use xlink:href="#a2WhYlAuu" opacity="1" fill="#293b57" fill-opacity="1"></use><g><use xlink:href="#a2WhYlAuu" opacity="1" fill-opacity="0" stroke="#000000" stroke-width="1" stroke-opacity="0"></use></g></g><g><use xlink:href="#ateFmUP5u" opacity="1" fill="#ffbb55" fill-opacity="1"></use><g><use xlink:href="#ateFmUP5u" opacity="1" fill-opacity="0" stroke="#000000" stroke-width="1" stroke-opacity="0"></use></g></g><g><use xlink:href="#a9R3yiBh9e" opacity="1" fill="#ffbb55" fill-opacity="1"></use><g><use xlink:href="#a9R3yiBh9e" opacity="1" fill-opacity="0" stroke="#000000" stroke-width="1" stroke-opacity="0"></use></g></g><g><use xlink:href="#aaFCencrDI" opacity="1" fill="#ffbb55" fill-opacity="1"></use><g><use xlink:href="#aaFCencrDI" opacity="1" fill-opacity="0" stroke="#000000" stroke-width="1" stroke-opacity="0"></use></g></g><g><use xlink:href="#cO5L8fhVb" opacity="1" fill="#ffbb55" fill-opacity="1"></use><g><use xlink:href="#cO5L8fhVb" opacity="1" fill-opacity="0" stroke="#000000" stroke-width="1" stroke-opacity="0"></use></g></g><g><use xlink:href="#a1Tqwe9wRH" opacity="1" fill="#e09e7f" fill-opacity="1"></use><g><use xlink:href="#a1Tqwe9wRH" opacity="1" fill-opacity="0" stroke="#000000" stroke-width="1" stroke-opacity="0"></use></g></g><g><use xlink:href="#btMW5gFJP" opacity="1" fill="#e09e7f" fill-opacity="1"></use><g><use xlink:href="#btMW5gFJP" opacity="1" fill-opacity="0" stroke="#000000" stroke-width="1" stroke-opacity="0"></use></g></g><g><use xlink:href="#aAcrAhBtg" opacity="1" fill="#e09e7f" fill-opacity="1"></use><g><use xlink:href="#aAcrAhBtg" opacity="1" fill-opacity="0" stroke="#000000" stroke-width="1" stroke-opacity="0"></use></g></g><g><use xlink:href="#peGGcxVYJ" opacity="1" fill="#e09e7f" fill-opacity="1"></use><g><use xlink:href="#peGGcxVYJ" opacity="1" fill-opacity="0" stroke="#000000" stroke-width="1" stroke-opacity="0"></use></g></g><g><use xlink:href="#f4iCoiH25" opacity="1" fill="#323657" fill-opacity="1"></use><g><use xlink:href="#f4iCoiH25" opacity="1" fill-opacity="0" stroke="#000000" stroke-width="1" stroke-opacity="0"></use></g></g><g><use xlink:href="#a7QMLRjwrz" opacity="1" fill="#eea987" fill-opacity="1"></use><g><use xlink:href="#a7QMLRjwrz" opacity="1" fill-opacity="0" stroke="#000000" stroke-width="1" stroke-opacity="0"></use></g></g><g><use xlink:href="#bPrajxoh7" opacity="1" fill="#665249" fill-opacity="1"></use><g><use xlink:href="#bPrajxoh7" opacity="1" fill-opacity="0" stroke="#000000" stroke-width="1" stroke-opacity="0"></use></g></g><g><use xlink:href="#d2d09ftXcX" opacity="1" fill="#eea987" fill-opacity="1"></use><g><use xlink:href="#d2d09ftXcX" opacity="1" fill-opacity="0" stroke="#000000" stroke-width="1" stroke-opacity="0"></use></g></g><g><use xlink:href="#bsH8TEF1t" opacity="1" fill="#2e2626" fill-opacity="1"></use><g><use xlink:href="#bsH8TEF1t" opacity="1" fill-opacity="0" stroke="#000000" stroke-width="1" stroke-opacity="0"></use></g></g><g><use xlink:href="#apwq9HcIr" opacity="1" fill="#2e2626" fill-opacity="1"></use><g><use xlink:href="#apwq9HcIr" opacity="1" fill-opacity="0" stroke="#000000" stroke-width="1" stroke-opacity="0"></use></g></g><g><use xlink:href="#a3EW6pN6M4" opacity="1" fill="#2e2626" fill-opacity="1"></use><g><use xlink:href="#a3EW6pN6M4" opacity="1" fill-opacity="0" stroke="#000000" stroke-width="1" stroke-opacity="0"></use></g></g><g><use xlink:href="#h2IB8pR8L" opacity="1" fill="#2f6b8c" fill-opacity="1"></use><g><use xlink:href="#h2IB8pR8L" opacity="1" fill-opacity="0" stroke="#000000" stroke-width="1" stroke-opacity="0"></use></g></g><g><use xlink:href="#b7Qfh5sOw" opacity="1" fill="#f2c344" fill-opacity="1"></use><g><use xlink:href="#b7Qfh5sOw" opacity="1" fill-opacity="0" stroke="#000000" stroke-width="1" stroke-opacity="0"></use></g></g><g><use xlink:href="#f1dmfOE0yF" opacity="1" fill="#323657" fill-opacity="1"></use><g><use xlink:href="#f1dmfOE0yF" opacity="1" fill-opacity="0" stroke="#000000" stroke-width="1" stroke-opacity="0"></use></g></g><g><use xlink:href="#bogU1ZOVw" opacity="1" fill="#eea886" fill-opacity="1"></use><g><use xlink:href="#bogU1ZOVw" opacity="1" fill-opacity="0" stroke="#000000" stroke-width="1" stroke-opacity="0"></use></g></g><g><use xlink:href="#bHTSKBm" opacity="1" fill="#a77860" fill-opacity="1"></use><g><use xlink:href="#bHTSKBm" opacity="1" fill-opacity="0" stroke="#000000" stroke-width="1" stroke-opacity="0"></use></g></g><g><use xlink:href="#e1avNq1RKy" opacity="1" fill="#eea886" fill-opacity="1"></use><g><use xlink:href="#e1avNq1RKy" opacity="1" fill-opacity="0" stroke="#000000" stroke-width="1" stroke-opacity="0"></use></g></g><g><use xlink:href="#c247ME8Zgp" opacity="1" fill="#323657" fill-opacity="1"></use><g><use xlink:href="#c247ME8Zgp" opacity="1" fill-opacity="0" stroke="#000000" stroke-width="1" stroke-opacity="0"></use></g></g><g><use xlink:href="#cxqD9GrJe" opacity="1" fill="#4b5182" fill-opacity="1"></use><g><use xlink:href="#cxqD9GrJe" opacity="1" fill-opacity="0" stroke="#000000" stroke-width="1" stroke-opacity="0"></use></g></g><g><use xlink:href="#bzN15cKHN" opacity="1" fill="#4b5182" fill-opacity="1"></use><g><use xlink:href="#bzN15cKHN" opacity="1" fill-opacity="0" stroke="#000000" stroke-width="1" stroke-opacity="0"></use></g></g><g><use xlink:href="#a1W3bOTfWk" opacity="1" fill="#eea987" fill-opacity="1"></use><g><use xlink:href="#a1W3bOTfWk" opacity="1" fill-opacity="0" stroke="#000000" stroke-width="1" stroke-opacity="0"></use></g></g><g><use xlink:href="#f2k0if7wly" opacity="1" fill="#f2c344" fill-opacity="1"></use><g><use xlink:href="#f2k0if7wly" opacity="1" fill-opacity="0" stroke="#000000" stroke-width="1" stroke-opacity="0"></use></g></g><g><use xlink:href="#ae9PBHzID" opacity="1" fill="#f2c344" fill-opacity="1"></use><g><use xlink:href="#ae9PBHzID" opacity="1" fill-opacity="0" stroke="#000000" stroke-width="1" stroke-opacity="0"></use></g></g><g><use xlink:href="#b5qwIvvxvG" opacity="1" fill="#22243b" fill-opacity="1"></use><g><use xlink:href="#b5qwIvvxvG" opacity="1" fill-opacity="0" stroke="#000000" stroke-width="1" stroke-opacity="0"></use></g></g><g><use xlink:href="#d2qiQzoVa" opacity="1" fill="#323657" fill-opacity="1"></use><g><use xlink:href="#d2qiQzoVa" opacity="1" fill-opacity="0" stroke="#000000" stroke-width="1" stroke-opacity="0"></use></g></g><g><use xlink:href="#c8MhTtk9" opacity="1" fill="#323657" fill-opacity="1"></use><g><use xlink:href="#c8MhTtk9" opacity="1" fill-opacity="0" stroke="#000000" stroke-width="1" stroke-opacity="0"></use></g></g><g><use xlink:href="#b2bmv7Sw96" opacity="1" fill="#eea987" fill-opacity="1"></use><g><use xlink:href="#b2bmv7Sw96" opacity="1" fill-opacity="0" stroke="#000000" stroke-width="1" stroke-opacity="0"></use></g></g><g><use xlink:href="#bj6VuoLdP" opacity="1" fill="#5c5c5c" fill-opacity="1"></use><g><use xlink:href="#bj6VuoLdP" opacity="1" fill-opacity="0" stroke="#000000" stroke-width="1" stroke-opacity="0"></use></g></g><g><use xlink:href="#c35C36YxZn" opacity="1" fill="#a87860" fill-opacity="1"></use><g><use xlink:href="#c35C36YxZn" opacity="1" fill-opacity="0" stroke="#000000" stroke-width="1" stroke-opacity="0"></use></g></g><g><use xlink:href="#fJLi1BH1b" opacity="1" fill="#efaa88" fill-opacity="1"></use><g><use xlink:href="#fJLi1BH1b" opacity="1" fill-opacity="0" stroke="#000000" stroke-width="1" stroke-opacity="0"></use></g></g><g><use xlink:href="#aRBSLOVJ4" opacity="1" fill="#323657" fill-opacity="1"></use><g><use xlink:href="#aRBSLOVJ4" opacity="1" fill-opacity="0" stroke="#000000" stroke-width="1" stroke-opacity="0"></use></g></g><g><use xlink:href="#dGWXsnyYO" opacity="1" fill="#efaa88" fill-opacity="1"></use><g><use xlink:href="#dGWXsnyYO" opacity="1" fill-opacity="0" stroke="#000000" stroke-width="1" stroke-opacity="0"></use></g></g><g><use xlink:href="#a4LxUxwf4D" opacity="1" fill="#eea886" fill-opacity="1"></use><g><use xlink:href="#a4LxUxwf4D" opacity="1" fill-opacity="0" stroke="#000000" stroke-width="1" stroke-opacity="0"></use></g></g><g><use xlink:href="#d1Rhl4HpOB" opacity="1" fill="#323657" fill-opacity="1"></use><g><use xlink:href="#d1Rhl4HpOB" opacity="1" fill-opacity="0" stroke="#000000" stroke-width="1" stroke-opacity="0"></use></g></g><g><use xlink:href="#gQoozx2bF" opacity="1" fill="#eea886" fill-opacity="1"></use><g><use xlink:href="#gQoozx2bF" opacity="1" fill-opacity="0" stroke="#000000" stroke-width="1" stroke-opacity="0"></use></g></g><g><use xlink:href="#bsO0Wio5T" opacity="1" fill="#ffce55" fill-opacity="1"></use><g><use xlink:href="#bsO0Wio5T" opacity="1" fill-opacity="0" stroke="#000000" stroke-width="1" stroke-opacity="0"></use></g></g><g><use xlink:href="#c4GqteRKe" opacity="1" fill="#5c5049" fill-opacity="1"></use><g><use xlink:href="#c4GqteRKe" opacity="1" fill-opacity="0" stroke="#000000" stroke-width="1" stroke-opacity="0"></use></g></g><g><use xlink:href="#bgOZ4M18o" opacity="1" fill="#5c5049" fill-opacity="1"></use><g><use xlink:href="#bgOZ4M18o" opacity="1" fill-opacity="0" stroke="#000000" stroke-width="1" stroke-opacity="0"></use></g></g><g><use xlink:href="#b3f3kpdCrM" opacity="1" fill="#5c5049" fill-opacity="1"></use><g><use xlink:href="#b3f3kpdCrM" opacity="1" fill-opacity="0" stroke="#000000" stroke-width="1" stroke-opacity="0"></use></g></g><g><use xlink:href="#a3zHl64Z71" opacity="1" fill="#fab46c" fill-opacity="1"></use><g><use xlink:href="#a3zHl64Z71" opacity="1" fill-opacity="0" stroke="#000000" stroke-width="1" stroke-opacity="0"></use></g></g><g><use xlink:href="#c4LiQErhT" opacity="1" fill="#fab46c" fill-opacity="1"></use><g><use xlink:href="#c4LiQErhT" opacity="1" fill-opacity="0" stroke="#000000" stroke-width="1" stroke-opacity="0"></use></g></g><g><use xlink:href="#a1ygR9mqJ9" opacity="1" fill="#fab46c" fill-opacity="1"></use><g><use xlink:href="#a1ygR9mqJ9" opacity="1" fill-opacity="0" stroke="#000000" stroke-width="1" stroke-opacity="0"></use></g></g><g><use xlink:href="#e2it73TIe" opacity="1" fill="#fccca2" fill-opacity="1"></use><g><use xlink:href="#e2it73TIe" opacity="1" fill-opacity="0" stroke="#000000" stroke-width="1" stroke-opacity="0"></use></g></g><g><use xlink:href="#d5b5MIuV8d" opacity="1" fill="#d4c3bd" fill-opacity="1"></use><g><use xlink:href="#d5b5MIuV8d" opacity="1" fill-opacity="0" stroke="#000000" stroke-width="1" stroke-opacity="0"></use></g></g><g><use xlink:href="#aFrwdYhSs" opacity="1" fill="#de9673" fill-opacity="1"></use><g><use xlink:href="#aFrwdYhSs" opacity="1" fill-opacity="0" stroke="#000000" stroke-width="1" stroke-opacity="0"></use></g></g><g><use xlink:href="#e4gkqDZWBa" opacity="1" fill="#d4c3bd" fill-opacity="1"></use><g><use xlink:href="#e4gkqDZWBa" opacity="1" fill-opacity="0" stroke="#000000" stroke-width="1" stroke-opacity="0"></use></g></g><g><use xlink:href="#e1xEVaBTVN" opacity="1" fill="#de9673" fill-opacity="1"></use><g><use xlink:href="#e1xEVaBTVN" opacity="1" fill-opacity="0" stroke="#000000" stroke-width="1" stroke-opacity="0"></use></g></g><g><use xlink:href="#f9CReCa8d" opacity="1" fill="#ffd255" fill-opacity="1"></use><g><use xlink:href="#f9CReCa8d" opacity="1" fill-opacity="0" stroke="#000000" stroke-width="1" stroke-opacity="0"></use></g></g><g><use xlink:href="#crtvsHTRR" opacity="1" fill="#eea886" fill-opacity="1"></use><g><use xlink:href="#crtvsHTRR" opacity="1" fill-opacity="0" stroke="#000000" stroke-width="1" stroke-opacity="0"></use></g></g><g><use xlink:href="#ddxAlDkmN" opacity="1" fill="#e6d3cc" fill-opacity="1"></use><g><use xlink:href="#ddxAlDkmN" opacity="1" fill-opacity="0" stroke="#000000" stroke-width="1" stroke-opacity="0"></use></g></g><g><use xlink:href="#enNDSB6SH" opacity="1" fill="#eea886" fill-opacity="1"></use><g><use xlink:href="#enNDSB6SH" opacity="1" fill-opacity="0" stroke="#000000" stroke-width="1" stroke-opacity="0"></use></g></g><g><use xlink:href="#e32AD1N7fJ" opacity="1" fill="#e6d3cc" fill-opacity="1"></use><g><use xlink:href="#e32AD1N7fJ" opacity="1" fill-opacity="0" stroke="#000000" stroke-width="1" stroke-opacity="0"></use></g></g><g><use xlink:href="#c2Yh8ixdSq" opacity="1" fill="#323657" fill-opacity="1"></use><g><use xlink:href="#c2Yh8ixdSq" opacity="1" fill-opacity="0" stroke="#000000" stroke-width="1" stroke-opacity="0"></use></g></g><g><use xlink:href="#e2gjPwQLAK" opacity="1" fill="#ded1c5" fill-opacity="1"></use><g><use xlink:href="#e2gjPwQLAK" opacity="1" fill-opacity="0" stroke="#000000" stroke-width="1" stroke-opacity="0"></use></g></g><g><use xlink:href="#k2HtV2Ct7K" opacity="1" fill="#ded1c5" fill-opacity="1"></use><g><use xlink:href="#k2HtV2Ct7K" opacity="1" fill-opacity="0" stroke="#000000" stroke-width="1" stroke-opacity="0"></use></g></g><g><use xlink:href="#bezJ5BN3F" opacity="1" fill="#bc8551" fill-opacity="1"></use><g><use xlink:href="#bezJ5BN3F" opacity="1" fill-opacity="0" stroke="#000000" stroke-width="1" stroke-opacity="0"></use></g></g><g><use xlink:href="#dmq5y08O2" opacity="1" fill="#eea886" fill-opacity="1"></use><g><use xlink:href="#dmq5y08O2" opacity="1" fill-opacity="0" stroke="#000000" stroke-width="1" stroke-opacity="0"></use></g></g><g><use xlink:href="#atxFglC4e" opacity="1" fill="#eea886" fill-opacity="1"></use><g><use xlink:href="#atxFglC4e" opacity="1" fill-opacity="0" stroke="#000000" stroke-width="1" stroke-opacity="0"></use></g></g><g><use xlink:href="#bdf7rRo0R" opacity="1" fill="#fccca2" fill-opacity="1"></use><g><use xlink:href="#bdf7rRo0R" opacity="1" fill-opacity="0" stroke="#000000" stroke-width="1" stroke-opacity="0"></use></g></g><g><use xlink:href="#c5Ln5y6GD" opacity="1" fill="#a77860" fill-opacity="1"></use><g><use xlink:href="#c5Ln5y6GD" opacity="1" fill-opacity="0" stroke="#000000" stroke-width="1" stroke-opacity="0"></use></g></g><g><use xlink:href="#a7Hp3Noc2" opacity="1" fill="#23344a" fill-opacity="1"></use><g><use xlink:href="#a7Hp3Noc2" opacity="1" fill-opacity="0" stroke="#000000" stroke-width="1" stroke-opacity="0"></use></g></g><g><use xlink:href="#d5ScjoxlnE" opacity="1" fill="#eea886" fill-opacity="1"></use><g><use xlink:href="#d5ScjoxlnE" opacity="1" fill-opacity="0" stroke="#000000" stroke-width="1" stroke-opacity="0"></use></g></g><g><use xlink:href="#g4RxTJOkU2" opacity="1" fill="#807066" fill-opacity="1"></use><g><use xlink:href="#g4RxTJOkU2" opacity="1" fill-opacity="0" stroke="#000000" stroke-width="1" stroke-opacity="0"></use></g></g><g><use xlink:href="#a1bWiGuYsR" opacity="1" fill="#807066" fill-opacity="1"></use><g><use xlink:href="#a1bWiGuYsR" opacity="1" fill-opacity="0" stroke="#000000" stroke-width="1" stroke-opacity="0"></use></g></g><g><use xlink:href="#o3ugqAOSaY" opacity="1" fill="#ffd255" fill-opacity="1"></use><g><use xlink:href="#o3ugqAOSaY" opacity="1" fill-opacity="0" stroke="#000000" stroke-width="1" stroke-opacity="0"></use></g></g><g><use xlink:href="#a19tkimxkr" opacity="1" fill="#ffd255" fill-opacity="1"></use><g><use xlink:href="#a19tkimxkr" opacity="1" fill-opacity="0" stroke="#000000" stroke-width="1" stroke-opacity="0"></use></g></g><g><use xlink:href="#b2EY5ZHWtR" opacity="1" fill="#ffd255" fill-opacity="1"></use><g><use xlink:href="#b2EY5ZHWtR" opacity="1" fill-opacity="0" stroke="#000000" stroke-width="1" stroke-opacity="0"></use></g></g><g><use xlink:href="#b1uslW7Zhx" opacity="1" fill="#ffd255" fill-opacity="1"></use><g><use xlink:href="#b1uslW7Zhx" opacity="1" fill-opacity="0" stroke="#000000" stroke-width="1" stroke-opacity="0"></use></g></g><g><use xlink:href="#bbKa5Ywrm" opacity="1" fill="#ffd078" fill-opacity="1"></use><g><use xlink:href="#bbKa5Ywrm" opacity="1" fill-opacity="0" stroke="#000000" stroke-width="1" stroke-opacity="0"></use></g></g><g><use xlink:href="#i8aMdSyVx9" opacity="1" fill="#ffffff" fill-opacity="1"></use><g><use xlink:href="#i8aMdSyVx9" opacity="1" fill-opacity="0" stroke="#000000" stroke-width="1" stroke-opacity="0"></use></g></g><g><use xlink:href="#d191Gt7WTA" opacity="1" fill="#ffd078" fill-opacity="1"></use><g><use xlink:href="#d191Gt7WTA" opacity="1" fill-opacity="0" stroke="#000000" stroke-width="1" stroke-opacity="0"></use></g></g><g><use xlink:href="#a38eGsR5rD" opacity="1" fill="#ffffff" fill-opacity="1"></use><g><use xlink:href="#a38eGsR5rD" opacity="1" fill-opacity="0" stroke="#000000" stroke-width="1" stroke-opacity="0"></use></g></g><g><use xlink:href="#c9BQEExVZ" opacity="1" fill="#ffd078" fill-opacity="1"></use><g><use xlink:href="#c9BQEExVZ" opacity="1" fill-opacity="0" stroke="#000000" stroke-width="1" stroke-opacity="0"></use></g></g><g><use xlink:href="#b3TCNW3kch" opacity="1" fill="#ffffff" fill-opacity="1"></use><g><use xlink:href="#b3TCNW3kch" opacity="1" fill-opacity="0" stroke="#000000" stroke-width="1" stroke-opacity="0"></use></g></g><g><use xlink:href="#c6r55HXFY4" opacity="1" fill="#ffd078" fill-opacity="1"></use><g><use xlink:href="#c6r55HXFY4" opacity="1" fill-opacity="0" stroke="#000000" stroke-width="1" stroke-opacity="0"></use></g></g><g><use xlink:href="#bCLUppPw6" opacity="1" fill="#ffffff" fill-opacity="1"></use><g><use xlink:href="#bCLUppPw6" opacity="1" fill-opacity="0" stroke="#000000" stroke-width="1" stroke-opacity="0"></use></g></g><g><use xlink:href="#b4yaLyt0zh" opacity="1" fill="#ffd078" fill-opacity="1"></use><g><use xlink:href="#b4yaLyt0zh" opacity="1" fill-opacity="0" stroke="#000000" stroke-width="1" stroke-opacity="0"></use></g></g><g><use xlink:href="#a4r7c6bhkI" opacity="1" fill="#ffd887" fill-opacity="1"></use><g><use xlink:href="#a4r7c6bhkI" opacity="1" fill-opacity="0" stroke="#000000" stroke-width="1" stroke-opacity="0"></use></g></g><g><use xlink:href="#bvcga7ZXn" opacity="1" fill="#ffd887" fill-opacity="1"></use><g><use xlink:href="#bvcga7ZXn" opacity="1" fill-opacity="0" stroke="#000000" stroke-width="1" stroke-opacity="0"></use></g></g><g><use xlink:href="#b9I7Yf3i7r" opacity="1" fill="#ffd887" fill-opacity="1"></use><g><use xlink:href="#b9I7Yf3i7r" opacity="1" fill-opacity="0" stroke="#000000" stroke-width="1" stroke-opacity="0"></use></g></g><g><use xlink:href="#dQlh3jxbu" opacity="1" fill="#ffd887" fill-opacity="1"></use><g><use xlink:href="#dQlh3jxbu" opacity="1" fill-opacity="0" stroke="#000000" stroke-width="1" stroke-opacity="0"></use></g></g><g><use xlink:href="#f12XFlSS4w" opacity="1" fill="#ffd989" fill-opacity="1"></use><g><use xlink:href="#f12XFlSS4w" opacity="1" fill-opacity="0" stroke="#000000" stroke-width="1" stroke-opacity="0"></use></g></g><g><use xlink:href="#e1NCaN3O9J" opacity="1" fill="#d6d6d6" fill-opacity="1"></use><g><use xlink:href="#e1NCaN3O9J" opacity="1" fill-opacity="0" stroke="#000000" stroke-width="1" stroke-opacity="0"></use></g></g><g><use xlink:href="#f1pqfldSGF" opacity="1" fill="#e8e8e8" fill-opacity="1"></use><g><use xlink:href="#f1pqfldSGF" opacity="1" fill-opacity="0" stroke="#000000" stroke-width="1" stroke-opacity="0"></use></g></g><g><use xlink:href="#cb9ERIC4J" opacity="1" fill="#c2c2c2" fill-opacity="1"></use><g><use xlink:href="#cb9ERIC4J" opacity="1" fill-opacity="0" stroke="#000000" stroke-width="1" stroke-opacity="0"></use></g></g><g><use xlink:href="#kc4LaCRQb" opacity="1" fill="#e0e0e0" fill-opacity="1"></use><g><use xlink:href="#kc4LaCRQb" opacity="1" fill-opacity="0" stroke="#000000" stroke-width="1" stroke-opacity="0"></use></g></g></g></g></svg>