<svg width="660.66669" height="433.66669" xmlns="http://www.w3.org/2000/svg">
 <metadata id="metadata8">image/svg+xml</metadata>

 <g>
  <title>background</title>
  <rect x="-1" y="-1" width="662.66669" height="435.66669" id="canvas_background" fill="none"/>
 </g>
 <g>
  <title>Layer 1</title>
  <path id="path16" d="m145.716,430.45214l-73.46867,0c-1.29106,0 -2.33746,-1.04693 -2.33746,-2.3376l0,-1.28387c0,-1.29053 1.0464,-2.33747 2.33746,-2.33747l73.46867,0c1.29067,0 2.33733,1.04694 2.33733,2.33747l0,1.28387c0,1.29067 -1.04667,2.3376 -2.33733,2.3376" fill-rule="nonzero" fill="#acbfc3"/>
  <path id="path18" d="m611.25466,430.45214l-20.10267,0c-1.29066,0 -2.33733,-1.04693 -2.33733,-2.3376l0,-1.28387c0,-1.29053 1.04667,-2.33747 2.33733,-2.33747l20.10267,0c1.29067,0 2.336,1.04694 2.336,2.33747l0,1.28387c0,1.29067 -1.04533,2.3376 -2.336,2.3376" fill-rule="nonzero" fill="#acbfc3"/>
  <path id="path20" d="m283.976,430.45214l-73.468,0c-1.29067,0 -2.33734,-1.04693 -2.33734,-2.3376l0,-1.28387c0,-1.29053 1.04667,-2.33747 2.33734,-2.33747l73.468,0c1.29066,0 2.33733,1.04694 2.33733,2.33747l0,1.28387c0,1.29067 -1.04667,2.3376 -2.33733,2.3376" fill-rule="nonzero" fill="#acbfc3"/>
  <path id="path22" d="m391.85333,430.45214l-73.46933,0c-1.29067,0 -2.336,-1.04693 -2.336,-2.3376l0,-1.28387c0,-1.29053 1.04533,-2.33747 2.336,-2.33747l73.46933,0c1.29067,0 2.33733,1.04694 2.33733,2.33747l0,1.28387c0,1.29067 -1.04667,2.3376 -2.33733,2.3376" fill-rule="nonzero" fill="#acbfc3"/>
  <path id="path24" d="m523.97199,430.45214l-100.15199,0c-1.29067,0 -2.33734,-1.04693 -2.33734,-2.3376l0,-1.28387c0,-1.29053 1.04667,-2.33747 2.33734,-2.33747l100.15199,0c1.29067,0 2.33734,1.04694 2.33734,2.33747l0,1.28387c0,1.29067 -1.04667,2.3376 -2.33734,2.3376" fill-rule="nonzero" fill="#acbfc3"/>
  <path id="path26" d="m170.34133,96.75601c0,0 -7.76,-5.28 -19.108,-1.21333c-11.34933,4.06666 -13.89866,19.35066 -11.10267,31.75466c2.79467,12.404 -12.83013,54.75333 -12.83013,54.75333c0,0 8.1208,11.42134 36.5048,7.04934c0,0 21.164,-38.46134 19.592,-66.07334c-1.57066,-27.612 -13.056,-26.27066 -13.056,-26.27066" fill-rule="nonzero" fill="#1b3540"/>
  <path id="path28" d="m179.30133,144.46667c10.66667,-3.41066 17.19467,5.472 23.30667,22.00134c6.11067,16.53066 8.16666,18.188 8.16666,18.188l23.59067,15.15733l-1.96,8.83467c0,0 -22.452,-8.792 -27.88,-14.38267c-5.428,-5.592 -21.044,-33.91467 -21.044,-33.91467l-4.18,-15.884" fill-rule="nonzero" fill="#ef5640"/>
  <path id="path30" d="m127.31146,251.26001c0,0 -4.6276,23.43866 -3.86506,58.72c0,0 -18.23707,26.89333 -3.18707,103.62399l7.89533,0c0,0 6.44934,-65.28266 11.384,-82.97333c4.93467,-17.68933 23.156,-23.11733 24.14267,-76.90266l-36.36987,-2.468" fill-rule="nonzero" fill="#f57559"/>
  <path id="path32" d="m91.22973,320.18001c-4.5876,-15.11867 -16.37813,-40.44 -46.6256,-74.76267c0,0 -1.80413,-0.92933 -4.24266,0.56c-2.57454,1.57333 -2.57454,3.42267 -2.57454,3.42267c0,0 15.1672,33.05333 24.83907,57.27066c3.25626,8.15334 11.13333,13.50934 19.912,13.50934l8.69173,0" fill-rule="nonzero" fill="#f57559"/>
  <path id="path34" d="m146.29866,349.41467c0,0 0.10267,11.28 -7.29866,11.472c-10.45107,0.28133 -10.836,-11.10267 -22.67867,-10.732c-11.84266,0.36933 -36.26826,3.33067 -44.04013,-15.17333c-4.01187,-9.564 1.48027,-21.836 -11.4724,-31.088c-12.95307,-9.252 -6.66187,-19.61467 0,-25.16533c6.66147,-5.536 -2.87187,-11.60667 4.07093,-14.43334c1.65774,-0.66666 3.28587,-0.592 4.79627,-0.08933c0.888,0.31067 1.7172,0.74 2.51613,1.27333c3.67147,2.44267 6.24747,6.69067 6.24747,6.69067c19.61453,-53.72133 54.53507,-60.812 54.53507,-60.812l34.53733,11.91733c0.828,83.58 -21.21334,126.14 -21.21334,126.14" fill-rule="nonzero" fill="#203e50"/>
  <path id="path36" d="m179.30133,144.46667c0,0 -8.05733,2.71867 -19.51866,0.97867c-11.46,-1.74133 -15.18667,-8.936 -23.24267,-4.304c-12.09413,6.952 -6.4348,30.88533 -3.39867,43.32933c1.13334,4.63867 2.568,16.82934 -0.164,26.88934c0,0 16.104,12.52933 34.536,11.908l10.056,-21.872c0,0 21.86934,-26.16667 1.732,-56.92934" fill-rule="nonzero" fill="#d2dadc"/>
  <path id="path38" d="m158.83733,124.39201c0,0 1.34,11.32266 -2.848,21.62133c0,0 5.97867,8.828 11.68534,3.01867c0,0 0.52266,-10.376 6.93199,-22.11467c4.29334,-7.86133 -15.76933,-2.52533 -15.76933,-2.52533" fill-rule="nonzero" fill="#ef5640"/>
  <path id="path40" d="m149.67333,124.77734c0,0 -5.044,-3.19067 -4.47467,1.732c0.66,5.704 6.22267,6.816 6.816,4.82133c0.592,-1.99333 -2.34133,-6.55333 -2.34133,-6.55333" fill-rule="nonzero" fill="#f57559"/>
  <path id="path42" d="m178.60933,118.60267c0,0 3.20267,-5.03733 4.78667,-0.34133c1.836,5.44133 -2.72267,8.81867 -4.10933,7.268c-1.38534,-1.55067 -0.67734,-6.92667 -0.67734,-6.92667" fill-rule="nonzero" fill="#f57559"/>
  <path id="path44" d="m168.19466,141.82667c-9.14933,2.048 -15.65066,-2.77066 -19.66266,-20.69333c-2.07067,-9.24533 1.364,-15.96933 11.61067,-18.26266c10.24666,-2.29467 15.832,2.40933 17.90266,11.65466c4.312,19.25734 -0.4,25.18534 -9.85066,27.30134" fill-rule="nonzero" fill="#f57559"/>
  <path id="path46" d="m176.44666,121.59601c0.36534,0.88267 -0.23333,1.97067 -1.33733,2.42933c-1.10533,0.45733 -2.29866,0.11333 -2.66533,-0.77067c-0.36533,-0.884 0.23333,-1.972 1.33867,-2.42933c1.104,-0.45867 2.29733,-0.11333 2.664,0.77067" fill-rule="nonzero" fill="#dc4b44"/>
  <path id="path48" d="m157.74133,126.30934c0.148,0.94533 -0.69066,1.86133 -1.872,2.04667c-1.18133,0.184 -2.26,-0.432 -2.408,-1.37733c-0.14667,-0.94534 0.69067,-1.86134 1.872,-2.04534c1.18267,-0.18533 2.26,0.43067 2.408,1.376" fill-rule="nonzero" fill="#dc4b44"/>
  <path id="path50" d="m170.076,113.24401c-0.08934,0 -0.17867,-0.02533 -0.25867,-0.07867c-1.564,-1.044 -3.78133,-0.488 -3.80533,-0.484c-0.25467,0.06667 -0.50534,-0.08667 -0.57067,-0.33733c-0.064,-0.25067 0.08667,-0.50534 0.33733,-0.57067c0.108,-0.02667 2.64934,-0.66267 4.55867,0.61333c0.21467,0.14267 0.27333,0.43334 0.12933,0.64934c-0.09066,0.13466 -0.23866,0.208 -0.39066,0.208" fill-rule="nonzero" fill="#1b3540"/>
  <path id="path52" d="m152.85066,117.10134c-0.08133,0 -0.16533,-0.02133 -0.24133,-0.068c-0.22133,-0.132 -0.29333,-0.42 -0.15867,-0.64133c1.18267,-1.968 3.75334,-2.47734 3.86267,-2.49867c0.24933,-0.04 0.49733,0.11733 0.54667,0.372c0.048,0.25333 -0.11733,0.49867 -0.372,0.548c-0.02133,0.00533 -2.27067,0.45733 -3.236,2.06133c-0.08667,0.14534 -0.24267,0.22667 -0.40133,0.22667" fill-rule="nonzero" fill="#1b3540"/>
  <path id="path54" d="m170.47733,118.26401c0.25333,1.136 -0.052,2.172 -0.68267,2.312c-0.632,0.14133 -1.34933,-0.664 -1.604,-1.8c-0.25466,-1.136 0.05067,-2.172 0.68267,-2.31334c0.63067,-0.14133 1.34933,0.66534 1.604,1.80134" fill-rule="nonzero" fill="#22434d"/>
  <path id="path56" d="m157.76666,121.00001c0.25467,1.136 -0.052,2.17067 -0.68266,2.312c-0.63067,0.14133 -1.34934,-0.664 -1.604,-1.80133c-0.25334,-1.136 0.052,-2.17067 0.68266,-2.312c0.632,-0.14134 1.34934,0.66399 1.604,1.80133" fill-rule="nonzero" fill="#22434d"/>
  <path id="path58" d="m161.876,131.75867c0,0 5.876,-0.47866 8.46533,-2.66533c0,0 -0.712,4.59067 -3.90933,4.90933c-3.19733,0.31867 -4.556,-2.244 -4.556,-2.244" fill-rule="nonzero" fill="#22434d"/>
  <path id="path60" d="m167.27466,118.38801c0,0 0.20667,-2.984 1.35067,-3.03067c1.144,-0.044 2.51467,2.16533 2.51467,2.16533l1.43067,-1.224l-1.576,0.576c0,0 -1.40534,-2.31066 -2.49334,-2.072c-1.548,0.34 -1.22666,3.58534 -1.22666,3.58534" fill-rule="nonzero" fill="#22434d"/>
  <path id="path62" d="m158.468,120.72001c0,0 -1.46,-2.612 -2.51333,-2.16533c-1.05467,0.44666 -1.35067,3.03066 -1.35067,3.03066l-1.81733,-0.49733l1.672,-0.15067c0,0 0.28533,-2.68933 1.372,-2.93733c1.54533,-0.35333 2.63733,2.72 2.63733,2.72" fill-rule="nonzero" fill="#22434d"/>
  <path id="path64" d="m164.84,126.45867l-0.47067,-0.89333c0.76133,-0.40133 0.82533,-0.94267 0.74667,-1.32533c-0.112,-0.54134 -0.55333,-0.97067 -0.872,-0.996c-0.18267,-0.00934 -0.34,0.14666 -0.46267,0.472l-0.94667,-0.352c0.40534,-1.09067 1.17334,-1.14934 1.48667,-1.12667c0.804,0.06 1.58667,0.84933 1.784,1.796c0.20667,0.992 -0.26667,1.89867 -1.26533,2.42533" fill-rule="nonzero" fill="#dc4b44"/>
  <path id="path66" d="m150.39733,128.00401c0,0 -2.82133,-10.38134 -1.14667,-17.72267c0,0 7.95867,-11.08267 23.32,-5.604c0,0 4.55601,7.336 6.81334,17.60267c0,0 0.57333,-3.688 -0.95467,-11.90134c-1.52933,-8.21333 -8.816,-13.316 -18.808,-11.672c-9.992,1.64267 -20.68533,11.584 -9.224,29.29734" fill-rule="nonzero" fill="#1b3540"/>
  <path id="path68" d="m166.504,102.37467c0,0 0.60933,2.70934 -2.02667,9.68667c0,0 -1.896,-1.98133 -4.116,0c-2.22,1.98134 -6.72933,1.32 -8.268,2.39067c-1.53867,1.07067 -1.53867,3.52 -1.53867,3.52c0,0 -1.33333,-3.04933 0,-6.70533c0,0 -2.996,3.808 -2.59866,8.512c0,0 -4.06267,-0.65734 -3.87867,-7.36c0.18533,-6.70267 9.71333,-17.54667 20.4,-16.84267c10.688,0.70267 13.232,17.62533 13.232,17.62533c0,0 -0.97467,-0.76666 -2.5,-0.42533c0,0 -0.236,-3.584 -2.63867,-8.09867c0,0 1.108,3.25867 0,6.77467c0,0 -2.97733,-1.56133 -5.324,-1.07333c0,0 1.44934,-2.83467 -0.74266,-8.004" fill-rule="nonzero" fill="#1b3540"/>
  <path id="path70" d="m133.82667,143.28001c5.20266,-4.10134 9.252,1.11466 10.24533,8.32933c0.992,7.21333 -8.41333,49.77333 -15.66733,48.204c-2.79947,-0.60533 -3.94107,-11.75333 -3.94107,-11.75333c0,0 2.83693,-11.96667 4.6724,-29.97734c0.84373,-8.27733 1.97853,-12.66533 4.69067,-14.80266" fill-rule="nonzero" fill="#f57559"/>
  <path id="path72" d="m118.69267,193.79867c-7.00254,-6.67466 -19.55827,-28.81466 -22.7484,-40.09333l5.31506,-2.13867c0,0 16.0032,22.89334 23.298,28.66667c7.29467,5.772 9.86,12.20133 6.602,17.70667c-3.25826,5.50533 -10.9932,-2.73734 -12.46666,-4.14134" fill-rule="nonzero" fill="#f57559"/>
  <path id="path74" d="m98.12707,138.93601c-0.36667,7.24 5.5344,8.956 2.91613,14.51333c-0.54053,1.148 -1.362,1.75733 -2.2172,2.06c-1.6208,0.57333 -3.42293,0.032 -4.63227,-1.19067c-2.80466,-2.83466 -7.14066,-5.83866 -9.44893,-7.156c-2.62507,-1.51333 -1.138,-1.92666 -1.138,-1.92666c-0.25413,-0.12 -0.5016,-0.22 -0.74893,-0.32c-1.87294,-0.784 -3.36987,-1.08 -2.01147,-1.912c1.52707,-0.95067 6.94373,1.028 6.94373,1.028c-7.04946,-4.69467 -8.96306,-3.55067 -7.6756,-4.548c1.75627,-1.36534 8.4584,1.776 8.65947,1.87066c-3.72507,-3.52266 -6.4256,-4.32 -4.948,-4.85066c1.49747,-0.53867 8.86667,4.79866 11.55627,6.80133c0.60626,0.44933 0.97706,0.73867 0.97706,0.73867c-0.09213,-5.91867 1.76774,-5.108 1.76774,-5.108" fill-rule="nonzero" fill="#f57559"/>
  <path id="path76" d="m95.38227,143.30534c0.60626,0.44933 0.97706,0.73867 0.97706,0.73867c0,0 -1.26146,2.12133 0.3724,4.872c0,0 -2.99946,-1.96933 -1.34946,-5.61067" fill-rule="nonzero" fill="#ef5640"/>
  <path id="path78" d="m89.2016,147.46267c-0.62347,-0.34266 -4.18027,-2.34533 -5.5948,-2.22666c-0.25413,-0.12 -0.5016,-0.22 -0.74893,-0.32c0.95053,-1.25334 5.6364,2.03333 6.34373,2.54666" fill-rule="nonzero" fill="#ef5640"/>
  <path id="path80" d="m117.1536,254.89601c0,0.78666 -0.63747,1.424 -1.42333,1.424c-0.78547,0 -1.42294,-0.63734 -1.42294,-1.424c0,-0.78534 0.63747,-1.42267 1.42294,-1.42267c0.78586,0 1.42333,0.63733 1.42333,1.42267" fill-rule="nonzero" fill="#6196b4"/>
  <path id="path82" d="m142.54,264.69067c0,0.78534 -0.63733,1.42267 -1.42267,1.42267c-0.78666,0 -1.424,-0.63733 -1.424,-1.42267c0,-0.78666 0.63734,-1.424 1.424,-1.424c0.78534,0 1.42267,0.63734 1.42267,1.424" fill-rule="nonzero" fill="#6196b4"/>
  <path id="path84" d="m164.172,269.94134c0,0.78667 -0.63734,1.424 -1.42267,1.424c-0.78667,0 -1.42267,-0.63733 -1.42267,-1.424c0,-0.78533 0.636,-1.42267 1.42267,-1.42267c0.78533,0 1.42267,0.63734 1.42267,1.42267" fill-rule="nonzero" fill="#6196b4"/>
  <path id="path86" d="m130.93493,236.31601c0,0.78533 -0.6376,1.42266 -1.42346,1.42266c-0.786,0 -1.42347,-0.63733 -1.42347,-1.42266c0,-0.78667 0.63747,-1.424 1.42347,-1.424c0.78586,0 1.42346,0.63733 1.42346,1.424" fill-rule="nonzero" fill="#6196b4"/>
  <path id="path88" d="m135.72666,249.83734c0,0.78533 -0.63733,1.42267 -1.42266,1.42267c-0.78667,0 -1.424,-0.63734 -1.424,-1.42267c0,-0.78667 0.63733,-1.424 1.424,-1.424c0.78533,0 1.42266,0.63733 1.42266,1.424" fill-rule="nonzero" fill="#6196b4"/>
  <path id="path90" d="m158.23733,257.54401c0,0.78666 -0.63733,1.42266 -1.42266,1.42266c-0.78667,0 -1.424,-0.636 -1.424,-1.42266c0,-0.78534 0.63733,-1.42267 1.424,-1.42267c0.78533,0 1.42266,0.63733 1.42266,1.42267" fill-rule="nonzero" fill="#6196b4"/>
  <path id="path92" d="m161.32666,234.22001c0,0.78533 -0.63733,1.42266 -1.424,1.42266c-0.78533,0 -1.42266,-0.63733 -1.42266,-1.42266c0,-0.78667 0.63733,-1.424 1.42266,-1.424c0.78667,0 1.424,0.63733 1.424,1.424" fill-rule="nonzero" fill="#6196b4"/>
  <path id="path94" d="m146.576,229.36534c0,0.78533 -0.636,1.42267 -1.42267,1.42267c-0.78533,0 -1.42267,-0.63734 -1.42267,-1.42267c0,-0.78667 0.63734,-1.424 1.42267,-1.424c0.78667,0 1.42267,0.63733 1.42267,1.424" fill-rule="nonzero" fill="#6196b4"/>
  <path id="path96" d="m104.56147,282.65601c0,0.78533 -0.63694,1.42266 -1.42294,1.42266c-0.78586,0 -1.42346,-0.63733 -1.42346,-1.42266c0,-0.78667 0.6376,-1.424 1.42346,-1.424c0.786,0 1.42294,0.63733 1.42294,1.424" fill-rule="nonzero" fill="#6196b4"/>
  <path id="path98" d="m84.28067,276.60534c0,0.78533 -0.63694,1.42267 -1.4228,1.42267c-0.786,0 -1.42347,-0.63734 -1.42347,-1.42267c0,-0.78667 0.63747,-1.424 1.42347,-1.424c0.78586,0 1.4228,0.63733 1.4228,1.424" fill-rule="nonzero" fill="#6196b4"/>
  <path id="path100" d="m72.19213,265.47867c-0.25146,0.38534 -0.6952,0.636 -1.19893,0.636c-0.7844,0 -1.4208,-0.636 -1.4208,-1.42c0,-0.17866 0.02973,-0.34133 0.1036,-0.48933c0.888,0.31067 1.7172,0.74 2.51613,1.27333" fill-rule="nonzero" fill="#6196b4"/>
  <path id="path102" d="m111.82813,301.21467c0,0.78533 -0.63747,1.42267 -1.42347,1.42267c-0.78586,0 -1.42346,-0.63733 -1.42346,-1.42267c0,-0.78667 0.6376,-1.424 1.42346,-1.424c0.786,0 1.42347,0.63734 1.42347,1.424" fill-rule="nonzero" fill="#6196b4"/>
  <path id="path104" d="m75.4292,321.38401c0,0.78533 -0.63707,1.42266 -1.42293,1.42266c-0.786,0 -1.42347,-0.63733 -1.42347,-1.42266c0,-0.78667 0.63747,-1.42267 1.42347,-1.42267c0.78586,0 1.42293,0.636 1.42293,1.42267" fill-rule="nonzero" fill="#6196b4"/>
  <path id="path106" d="m90.29893,309.15734c0,0.78667 -0.63693,1.424 -1.42293,1.424c-0.78587,0 -1.42333,-0.63733 -1.42333,-1.424c0,-0.78533 0.63746,-1.42267 1.42333,-1.42267c0.786,0 1.42293,0.63734 1.42293,1.42267" fill-rule="nonzero" fill="#6196b4"/>
  <path id="path108" d="m68.15307,298.34001c0,0.78666 -0.63694,1.424 -1.4228,1.424c-0.78654,0 -1.42347,-0.63734 -1.42347,-1.424c0,-0.78534 0.63693,-1.42267 1.42347,-1.42267c0.78586,0 1.4228,0.63733 1.4228,1.42267" fill-rule="nonzero" fill="#6196b4"/>
  <path id="path110" d="m86.02973,340.93601c0,0.78666 -0.63707,1.424 -1.42293,1.424c-0.78653,0 -1.42347,-0.63734 -1.42347,-1.424c0,-0.78534 0.63693,-1.42267 1.42347,-1.42267c0.78587,0 1.42293,0.63733 1.42293,1.42267" fill-rule="nonzero" fill="#6196b4"/>
  <path id="path112" d="m99.57813,266.11334c0,0.78533 -0.63693,1.42267 -1.42293,1.42267c-0.78587,0 -1.42347,-0.63734 -1.42347,-1.42267c0,-0.78667 0.6376,-1.42267 1.42347,-1.42267c0.786,0 1.42293,0.636 1.42293,1.42267" fill-rule="nonzero" fill="#6196b4"/>
  <path id="path114" d="m113.25107,242.14667c0,0.78667 -0.63707,1.424 -1.42294,1.424c-0.7864,0 -1.42346,-0.63733 -1.42346,-1.424c0,-0.78533 0.63706,-1.42266 1.42346,-1.42266c0.78587,0 1.42294,0.63733 1.42294,1.42266" fill-rule="nonzero" fill="#6196b4"/>
  <path id="path116" d="m128.724,222.20134c0,0.78533 -0.6376,1.42267 -1.42347,1.42267c-0.786,0 -1.42293,-0.63734 -1.42293,-1.42267c0,-0.78667 0.63693,-1.424 1.42293,-1.424c0.78587,0 1.42347,0.63733 1.42347,1.424" fill-rule="nonzero" fill="#6196b4"/>
  <path id="path118" d="m97.3672,251.26001c0,0.78666 -0.63693,1.42266 -1.42293,1.42266c-0.78587,0 -1.42347,-0.636 -1.42347,-1.42266c0,-0.78534 0.6376,-1.42267 1.42347,-1.42267c0.786,0 1.42293,0.63733 1.42293,1.42267" fill-rule="nonzero" fill="#6196b4"/>
  <path id="path120" d="m114.67453,227.94134c0,0.78667 -0.6376,1.424 -1.42347,1.424c-0.786,0 -1.42293,-0.63733 -1.42293,-1.424c0,-0.78533 0.63693,-1.42267 1.42293,-1.42267c0.78587,0 1.42347,0.63734 1.42347,1.42267" fill-rule="nonzero" fill="#6196b4"/>
  <path id="path122" d="m87.45267,292.01867c0,0.78667 -0.63707,1.424 -1.42294,1.424c-0.786,0 -1.42293,-0.63733 -1.42293,-1.424c0,-0.78533 0.63693,-1.42266 1.42293,-1.42266c0.78587,0 1.42294,0.63733 1.42294,1.42266" fill-rule="nonzero" fill="#6196b4"/>
  <path id="path124" d="m69.576,279.45067c0,0.78667 -0.63693,1.424 -1.42293,1.424c-0.78587,0 -1.4228,-0.63733 -1.4228,-1.424c0,-0.78533 0.63693,-1.42266 1.4228,-1.42266c0.786,0 1.42293,0.63733 1.42293,1.42266" fill-rule="nonzero" fill="#6196b4"/>
  <path id="path126" d="m121.42346,275.18134c0,0.78667 -0.63746,1.424 -1.42346,1.424c-0.786,0 -1.42347,-0.63733 -1.42347,-1.424c0,-0.78533 0.63747,-1.42267 1.42347,-1.42267c0.786,0 1.42346,0.63734 1.42346,1.42267" fill-rule="nonzero" fill="#6196b4"/>
  <path id="path128" d="m150.84667,282.65601c0,0.78533 -0.63734,1.42266 -1.42401,1.42266c-0.78533,0 -1.42266,-0.63733 -1.42266,-1.42266c0,-0.78667 0.63733,-1.424 1.42266,-1.424c0.78667,0 1.42401,0.63733 1.42401,1.424" fill-rule="nonzero" fill="#6196b4"/>
  <path id="path130" d="m149.42266,242.14667c0,0.78667 -0.63733,1.424 -1.42266,1.424c-0.78667,0 -1.424,-0.63733 -1.424,-1.424c0,-0.78533 0.63733,-1.42266 1.424,-1.42266c0.78533,0 1.42266,0.63733 1.42266,1.42266" fill-rule="nonzero" fill="#6196b4"/>
  <path id="path132" d="m166.528,245.13067c0,0.78667 -0.63734,1.424 -1.42267,1.424c-0.78667,0 -1.424,-0.63733 -1.424,-1.424c0,-0.78533 0.63733,-1.42266 1.424,-1.42266c0.78533,0 1.42267,0.63733 1.42267,1.42266" fill-rule="nonzero" fill="#6196b4"/>
  <path id="path134" d="m132.35733,293.44267c0,0.78534 -0.63733,1.42267 -1.4224,1.42267c-0.78653,0 -1.42346,-0.63733 -1.42346,-1.42267c0,-0.78666 0.63693,-1.424 1.42346,-1.424c0.78507,0 1.4224,0.63734 1.4224,1.424" fill-rule="nonzero" fill="#6196b4"/>
  <path id="path136" d="m120,318.75734c0,0.78533 -0.63693,1.42267 -1.42347,1.42267c-0.78586,0 -1.42293,-0.63734 -1.42293,-1.42267c0,-0.78667 0.63707,-1.424 1.42293,-1.424c0.78654,0 1.42347,0.63733 1.42347,1.424" fill-rule="nonzero" fill="#6196b4"/>
  <path id="path138" d="m98.1552,322.80667c0,0.78667 -0.63693,1.424 -1.42347,1.424c-0.78587,0 -1.42293,-0.63733 -1.42293,-1.424c0,-0.78533 0.63707,-1.42266 1.42293,-1.42266c0.78653,0 1.42347,0.63733 1.42347,1.42266" fill-rule="nonzero" fill="#6196b4"/>
  <path id="path140" d="m158.23733,301.21467c0,0.78533 -0.63733,1.42267 -1.42266,1.42267c-0.78667,0 -1.424,-0.63733 -1.424,-1.42267c0,-0.78667 0.63733,-1.424 1.424,-1.424c0.78533,0 1.42266,0.63734 1.42266,1.424" fill-rule="nonzero" fill="#6196b4"/>
  <path id="path142" d="m138.57333,312.00401c0,0.78533 -0.63733,1.42266 -1.42266,1.42266c-0.78667,0 -1.42401,-0.63733 -1.42401,-1.42266c0,-0.78667 0.63734,-1.42267 1.42401,-1.42267c0.78533,0 1.42266,0.636 1.42266,1.42267" fill-rule="nonzero" fill="#6196b4"/>
  <path id="path144" d="m108.9812,343.78267c0,0.78667 -0.63693,1.424 -1.4228,1.424c-0.786,0 -1.42293,-0.63733 -1.42293,-1.424c0,-0.78533 0.63693,-1.42266 1.42293,-1.42266c0.78587,0 1.4228,0.63733 1.4228,1.42266" fill-rule="nonzero" fill="#6196b4"/>
  <path id="path146" d="m130.93493,336.37201c0,0.78666 -0.6376,1.42399 -1.42346,1.42399c-0.786,0 -1.42347,-0.63733 -1.42347,-1.42399c0,-0.78534 0.63747,-1.42267 1.42347,-1.42267c0.78586,0 1.42346,0.63733 1.42346,1.42267" fill-rule="nonzero" fill="#6196b4"/>
  <path id="path148" d="m152.08266,327.98801c0,0.78666 -0.63733,1.424 -1.42266,1.424c-0.78667,0 -1.424,-0.63734 -1.424,-1.424c0,-0.78534 0.63733,-1.42267 1.424,-1.42267c0.78533,0 1.42266,0.63733 1.42266,1.42267" fill-rule="nonzero" fill="#6196b4"/>
  <path id="path150" d="m142.54,352.47067c0,0.78667 -0.63733,1.424 -1.42267,1.424c-0.78666,0 -1.424,-0.63733 -1.424,-1.424c0,-0.78533 0.63734,-1.42267 1.424,-1.42267c0.78534,0 1.42267,0.63734 1.42267,1.42267" fill-rule="nonzero" fill="#6196b4"/>
  <path id="path152" d="m140.984,427.4136l-23.37467,0c-1.52493,-4.35213 1.288,-8.7188 0.81414,-12.55359c-0.81414,-6.48401 2.96093,-2.90134 2.96093,-2.90134c0.66613,-6.972 10.46627,-8.29067 10.36227,-5.18133c-0.16267,4.57467 0.72533,7.40133 2.028,9.29613c2.63466,3.8052 6.95733,3.776 7.69733,6.4984c0.07467,0.26667 0.13333,0.53333 0.17733,0.7708c0.72533,3.40427 -0.66533,4.07093 -0.66533,4.07093" fill-rule="nonzero" fill="#203e50"/>
  <path id="path154" d="m141.64933,423.34267c-4.84,1.1256 -16.002,-0.34107 -16.44573,-3.1536c-0.4296,-2.724 5.5808,-3.99693 8.57107,-4.1156c2.63466,3.8052 6.95733,3.776 7.69733,6.4984c0.07467,0.26667 0.13333,0.53333 0.17733,0.7708" fill-rule="nonzero" fill="#284d5e"/>
  <path id="path156" d="m44.8948,246.35334c-2.48693,-2.26533 -6.52813,1.48 -6.52813,1.48c0,0 2.176,3.22667 0.76973,4.52933c-1.40613,1.30267 -3.0348,-1.672 -5.80307,-0.36933c-0.22186,0.10267 -0.4588,0.236 -0.68066,0.384c-2.16147,1.288 -4.41147,3.99733 -6.2324,6.05467c-0.36974,0.41466 -0.72547,0.8 -1.05094,1.14c-2.11666,2.22133 -7.5792,3.524 -8.60106,-2.39734c-1.02134,-5.92133 5.64013,-12.86533 12.95306,-19.24533c7.31307,-6.38 12.03547,-2.59067 12.03547,-2.59067c0,0 1.65773,2.68 1.65773,4.352c0,1.65867 1.48027,2.488 2.30947,4.072c0.82907,1.568 -0.8292,2.59067 -0.8292,2.59067" fill-rule="nonzero" fill="#203e50"/>
  <path id="path158" d="m32.65267,252.37734c-2.16147,1.288 -4.41147,3.99733 -6.2324,6.05467c-2.73854,0.652 -5.19574,0.45866 -5.58067,-2.116c-0.9328,-6.21867 11.4724,-14.12267 10.48067,-9.756c-0.50307,2.19066 0.3552,4.27866 1.3324,5.81733" fill-rule="nonzero" fill="#284d5e"/>
  <path id="path160" d="m465.49466,417.30521c-1.152,-0.6052 -2.21467,-1.93587 -3.16933,-3.61854c0,-0.00133 -0.82133,-4.97733 0,-10.20533c0.82267,-5.22933 -1.45467,-9.49867 -8.856,-11.10267c-7.196,-1.55866 -11.46533,1.908 -9.804,16.37467c0,0.00133 0.00133,0.00267 0.00133,0.00533c-1.09466,6.00934 -1.32133,12.872 1.17467,18.65494l22.15067,0c0,0 3.49333,-7.48814 -1.49734,-10.1084" fill-rule="nonzero" fill="#d2dadc"/>
  <path id="path162" d="m484.92666,339.33334c0,0 0,14.43333 -8.14266,29.236c-8.29067,15.07467 -18.54001,35.764 -18.54001,35.764c0,0 -6.82933,6.66267 -11.16933,-4.37333c0,0 3.064,-38.42134 10.09467,-52.48534c7.032,-14.06266 27.75733,-8.14133 27.75733,-8.14133" fill-rule="nonzero" fill="#f57559"/>
  <path id="path164" d="m591.14133,292.33201c0,0 13.192,55.47999 21.584,70.11466c0,0 -1.93067,6.12267 -11.01734,7.97334c0,0 -28.70133,-42.18934 -30.552,-59.95334c-1.85066,-17.764 19.98534,-18.13466 19.98534,-18.13466" fill-rule="nonzero" fill="#f57559"/>
  <path id="path166" d="m597.52133,305.37334c-3.50934,8.45333 -30.61334,8.912 -30.61334,8.912l-2.07333,-3.04933l-0.548,-0.79867l-4.23333,-6.248c0,0 -44.91334,-44.05467 -53.66267,-40.35333l-0.01467,0c-0.25066,0.11733 -0.50266,0.25066 -0.74,0.42933c-6.00933,4.292 -6.572,27.81466 -13.67866,67.296c-0.68,3.74533 -2.19067,8.112 -3.33067,11.132c-0.13333,0.32533 -0.25067,0.636 -0.36933,0.932c-0.652,1.67333 -1.11067,2.73866 -1.11067,2.73866c-27.416,11.10267 -36.46133,-10.836 -36.46133,-10.836c0,0 0.32666,-0.636 0.8,-1.65733c0.104,-0.22267 0.22266,-0.47333 0.34,-0.74c1.436,-3.168 3.73066,-8.66 3.70133,-11.56133c-0.02933,-3.18267 -0.05867,-6.248 -0.07333,-9.19333c0,-0.26667 0,-0.51867 -0.016,-0.76934c-0.044,-9.48933 -0.02934,-17.73466 0.03066,-24.9l0,-0.75466c0.02934,-3.124 0.07334,-6.04 0.13334,-8.764l0,-0.76934c0.236,-12.48 0.636,-20.81333 1.06533,-26.36533c0.01467,-0.25067 0.044,-0.51733 0.05867,-0.75467c0.756,-9.34133 1.55466,-10.25866 1.55466,-10.25866l-5.492,-38.17867l59.924,0c0,0 9,9.016 20.68,20.91733c0.252,0.23734 0.48934,0.47467 0.72534,0.72534c4.23466,4.308 8.808,8.98666 13.39733,13.73866c0.19333,0.192 0.37067,0.36934 0.53333,0.54667c1.80534,1.86533 3.612,3.73067 5.40267,5.58133c0.22267,0.22134 0.42933,0.45867 0.652,0.68134c6.01067,6.232 11.84267,12.37466 16.832,17.74933c0.17733,0.17733 0.34,0.35467 0.50267,0.532c6.824,7.388 12.02,13.29333 13.812,16.04667c4.752,7.26933 8.452,16.728 10.49466,22.576c0,0 0,0 0,0.01466c0.104,0.26667 0.19334,0.504 0.28134,0.75467c0.96266,2.84267 1.496,4.648 1.496,4.648" fill-rule="nonzero" fill="#872b39"/>
  <path id="path168" d="m467.25066,244.75334c-2.44266,2.88667 -5.99467,4.664 -10.584,5.3c0.01467,-0.25067 0.044,-0.51733 0.05867,-0.75467c4.32267,-0.62133 7.668,-2.30933 9.96267,-5.03333c4.116,-4.856 3.44933,-11.41333 3.43466,-11.472l0.74,-0.08933c0.02934,0.28133 0.71067,6.94266 -3.612,12.04933" fill-rule="nonzero" fill="#61242f"/>
  <path id="path170" d="m534.11733,222.50401c-0.236,0.01466 -0.45867,0.03066 -0.69467,0.03066c-6.66133,0 -13.62,-7.284 -13.97467,-7.65333l0.53334,-0.51867c0.088,0.104 7.016,7.35734 13.41066,7.416c0.252,0.23734 0.48934,0.47467 0.72534,0.72534" fill-rule="nonzero" fill="#61242f"/>
  <path id="path172" d="m488.62666,342.69334c-0.13333,0.32533 -0.25067,0.636 -0.36933,0.932c-4.44133,1.62933 -8.512,2.29467 -12.228,2.29467c-11.84267,0 -20.044,-6.85334 -24.544,-12.04934c0.104,-0.22266 0.22267,-0.47333 0.34,-0.74c5.75867,6.75067 18.06133,16.71334 36.80133,9.56267" fill-rule="nonzero" fill="#61242f"/>
  <path id="path174" d="m504.71866,250.08267c0.992,4.24934 1.628,8.88267 1.65733,13.75334c-0.25066,0.11733 -0.50266,0.25066 -0.74,0.42933c-0.02933,-22.35333 -12.968,-39.792 -13.116,-39.984l0.592,-0.444c0.11867,0.148 7.78667,10.50933 11.41334,25.476c1.51067,-0.992 2.532,-2.41333 2.96133,-4.248c1.86533,-7.84667 -6.61733,-20.66667 -6.69067,-20.79867l0.60667,-0.41466c0.35467,0.54666 8.73333,13.21866 6.80933,21.376c-0.50266,2.132 -1.688,3.74533 -3.49333,4.85466" fill-rule="nonzero" fill="#61242f"/>
  <path id="path176" d="m571.43733,261.33334c-2.20534,2.39867 -4.27867,4.44133 -4.47067,4.61867l-0.4,0.4l-0.192,-0.53334c-2.90133,-7.59333 -21.55333,-24.05466 -21.74667,-24.21733l-0.22133,-0.208l3.108,-5.15067c0.19333,0.192 0.37067,0.36934 0.53333,0.54667l-2.60533,4.32267c3.62667,1.25867 6.20267,1.48 8.008,1.25867c0.22267,0.22133 0.42934,0.45866 0.652,0.68133c-0.60667,0.10266 -1.25866,0.16266 -1.94,0.16266c-1.672,0 -3.58133,-0.34133 -5.728,-0.992c4.23334,3.81867 17.39333,16.01734 20.41333,22.812c1.16934,-1.15466 2.65067,-2.68 4.08667,-4.23333c0.17733,0.17733 0.34,0.35467 0.50267,0.532" fill-rule="nonzero" fill="#61242f"/>
  <path id="path178" d="m469.08666,312.24267l-0.296,0.06c-0.28133,0.07334 -3.64133,0.76934 -7.50533,0.76934c-1.94,0 -3.98267,-0.17734 -5.832,-0.696c0,-0.26667 0,-0.51867 -0.016,-0.76934c4.88533,1.40533 11.41333,0.32534 12.89467,0.044l-1.244,-30.80533c-0.696,1.68667 -2.072,3.996 -4.648,5.26933c-1.22934,0.62133 -2.60534,0.91733 -4.116,0.91733c-0.90267,0 -1.84934,-0.10266 -2.856,-0.32533l0,-0.75467c2.56,0.592 4.78133,0.42934 6.632,-0.504c3.13733,-1.55333 4.38133,-4.884 4.76666,-6.20266c-2.47333,0.37066 -7.46133,-0.888 -11.26533,-2.05734l0,-0.76933c4.1,1.24267 9.65067,2.67867 11.64933,1.984l0.47467,-0.164l1.36133,34.004" fill-rule="nonzero" fill="#61242f"/>
  <path id="path180" d="m596.02533,300.72534c-4.30667,4.24933 -13.13067,10.748 -26.70534,10.748c-1.436,0 -2.93066,-0.07467 -4.48533,-0.23733l-0.548,-0.79867c16.50667,1.89467 26.85467,-5.848 31.45733,-10.46667c0.104,0.26667 0.19334,0.504 0.28134,0.75467" fill-rule="nonzero" fill="#61242f"/>
  <path id="path182" d="m523.78533,38.54667c0,0 -1.648,-3.792 -8.604,-3.79333c-5.36133,-0.00133 -7.41334,2.96 -7.41334,2.96c-3.208,9.376 -6.65466,45.27334 -7.88933,46.552c-0.62533,0.64667 -40.39333,27.43067 -40.39333,27.43067c21.58133,0.40533 35.04666,27.00666 35.04666,27.00666c0.69734,-8.74133 25.07067,-43.38133 25.33201,-46.47066c0.49333,-5.82667 10.804,-31.85067 3.92133,-53.68534" fill-rule="nonzero" fill="#cf2548"/>
  <path id="path184" d="m454.74533,226.24534c0,0 -0.2,7.48933 2.22267,7.984c2.42266,0.49333 22.16,6.32667 44.85866,-3.992c22.69867,-10.31867 26.64667,-17.96667 19.98534,-23.64133c-6.66267,-5.67467 -67.06667,19.64933 -67.06667,19.64933" fill-rule="nonzero" fill="#cf2548"/>
  <path id="path186" d="m445.65066,116.88001c0,0 -20.652,-2.44667 -32.49466,2.67866c0,0 -3.30267,14.65467 12.96666,47.45334c16.26934,32.79866 12.496,53.456 30.84534,61.232c16.26666,6.89333 64.22666,-13.62134 65.73333,-20.42534c3.792,-17.128 -25.536,-47.188 -27.38667,-64.60666c-1.85066,-17.41867 -18.87466,-43.60667 -49.664,-26.332" fill-rule="nonzero" fill="#ef294d"/>
  <path id="path188" d="m413.156,119.55867c-14.43334,5.12534 -30.67067,21.33067 -30.69467,29.14134c-0.02267,7.81066 13.54267,10.82133 13.54267,10.82133l22.24133,-10.82133c0,0 6.36267,-4.44267 2.312,-17.388c-4.04933,-12.94667 -7.40133,-11.75334 -7.40133,-11.75334" fill-rule="nonzero" fill="#cf2548"/>
  <path id="path190" d="m472.45999,134.00134c-4.312,0 -9.66133,-1.55333 -12.98399,-3.92267c-1.832,-1.30533 -2.92534,-2.77733 -3.16001,-4.25866c-0.81599,-5.12667 4.176,-7.732 4.38934,-7.84l0.67333,1.31733c-0.17467,0.08933 -4.24533,2.236 -3.6,6.29067c0.17067,1.08 1.05467,2.21466 2.556,3.28533c3.72133,2.652 10.15733,4.20933 14.348,3.46933c1.888,-0.332 3.124,-1.012 3.672,-2.01733c0.67067,-1.23067 0.09733,-2.62267 0.092,-2.63733l1.36,-0.584c0.03733,0.08266 0.864,2.04266 -0.14267,3.91066c-0.77066,1.432 -2.36,2.36934 -4.724,2.78534c-0.76666,0.136 -1.60266,0.20133 -2.48,0.20133" fill-rule="nonzero" fill="#d2dadc"/>
  <path id="path192" d="m454.15733,149.62001c-3.19333,0 -8.496,-1.33067 -9.24,-6.57467c-0.37867,-2.668 -0.13333,-4.89333 0.08,-6.856c0.31733,-2.89067 0.56667,-5.17333 -1.11733,-7.91067c-2.78134,-4.516 -6.568,-4.82 -6.728,-4.83066l0.08933,-1.47734c0.18933,0.01067 4.69467,0.32934 7.89867,5.532c1.95066,3.16934 1.648,5.928 1.32933,8.848c-0.216,1.968 -0.43867,4.00267 -0.08533,6.48667c0.80266,5.65733 8.01333,5.30267 8.31866,5.28667l0.088,1.47733c-0.2,0.012 -0.412,0.01867 -0.63333,0.01867" fill-rule="nonzero" fill="#d2dadc"/>
  <path id="path194" d="m458.65066,123.05201c0,0 10.91733,-7.436 8.32667,-15.48533c-2.59067,-8.04934 -37.74933,-7.49334 -46.816,2.128c-9.06667,9.62266 19.61467,16.00933 19.61467,16.00933c2.22,-4.47467 16.40666,-4.968 18.87466,-2.652" fill-rule="nonzero" fill="#cf2548"/>
  <path id="path196" d="m439.02133,121.79334c-5.18,-1.76 -8.25067,-5.49867 -7.14,-9.816c1.10933,-4.31733 23.38,-4.432 27.604,-0.98267c4.22267,3.44934 -1.72667,17.16 -20.464,10.79867" fill-rule="nonzero" fill="#9f2240"/>
  <path id="path198" d="m436.556,109.65734c0,0 4.58266,7.83067 2.46533,12.136c0,0 15.724,5.428 15.724,-3.36933c0,0 -2.964,-6.59467 -1.84667,-10.85734l-16.34267,2.09067" fill-rule="nonzero" fill="#ef5640"/>
  <path id="path200" d="m431.31333,102.82001c0,0 -7.72533,-12.37334 -7.00933,-24.19067c0.35866,-5.90933 3.39733,-8.224 3.39733,-8.224c0,0 -2.45333,-3.41066 0.176,-8.62266c0,0 3.63867,4.20933 16.40933,2.88133c12.31467,-1.28 13.54267,7.49867 13.54267,7.49867c8.80133,1.308 2.864,27.936 -3.27867,30.65733l-23.23733,0" fill-rule="nonzero" fill="#f9ad63"/>
  <path id="path202" d="m428.036,91.39468c0,0 -4.44,-4.43067 -4.98667,0.74933c-0.63333,6.00133 4.816,8.41867 5.88267,6.50933c1.064,-1.908 -0.896,-7.25867 -0.896,-7.25867" fill-rule="nonzero" fill="#f57559"/>
  <path id="path204" d="m459.12799,91.70801c0,0 4.44,-4.432 4.98667,0.748c0.63334,6.00133 -4.81733,8.41866 -5.88267,6.51067c-1.06533,-1.90934 0.896,-7.25867 0.896,-7.25867" fill-rule="nonzero" fill="#f57559"/>
  <path id="path206" d="m443.11333,113.13201c-9.852,0 -15.412,-6.436 -15.412,-25.736c0,-9.956 5.06533,-16.06267 16.1,-16.06267c11.036,0 15.684,6.10533 15.684,16.06267c0,20.73866 -6.19333,25.736 -16.372,25.736" fill-rule="nonzero" fill="#f57559"/>
  <path id="path208" d="m456.22266,94.28001c0.172,0.98933 -0.692,1.968 -1.93067,2.184c-1.23733,0.216 -2.38133,-0.412 -2.55466,-1.40267c-0.172,-0.98933 0.692,-1.968 1.92933,-2.184c1.23867,-0.216 2.38267,0.412 2.556,1.40267" fill-rule="nonzero" fill="#dc4b44"/>
  <path id="path210" d="m435.95733,94.81868c-0.06533,1.004 -1.13467,1.75066 -2.38933,1.668c-1.25467,-0.08134 -2.21867,-0.96134 -2.15334,-1.964c0.06667,-1.00267 1.136,-1.75067 2.39067,-1.668c1.25467,0.08133 2.21733,0.96133 2.152,1.964" fill-rule="nonzero" fill="#dc4b44"/>
  <path id="path212" d="m451.884,83.93068c-0.12934,0.02 -0.264,-0.01067 -0.37467,-0.096c-1.56933,-1.20534 -3.92267,-0.77867 -3.95867,-0.77334c-0.26133,0.04267 -0.524,-0.12533 -0.57333,-0.39333c-0.052,-0.26667 0.12533,-0.524 0.39333,-0.57467c0.10267,-0.02267 2.824,-0.51067 4.73733,0.96133c0.216,0.16534 0.256,0.47467 0.09067,0.69067c-0.08,0.104 -0.19467,0.16667 -0.31467,0.18533" fill-rule="nonzero" fill="#f9ad63"/>
  <path id="path214" d="m433.028,84.00001c-0.12134,-0.016 -0.23734,-0.07467 -0.32,-0.176c-0.172,-0.21067 -0.14134,-0.52133 0.068,-0.69333c1.86666,-1.52934 4.59866,-1.124 4.70533,-1.10667c0.268,0.04267 0.452,0.29333 0.41067,0.56267c-0.04134,0.268 -0.304,0.44666 -0.56267,0.41066c-0.01733,-0.00533 -2.41467,-0.348 -3.928,0.89467c-0.11067,0.08933 -0.24533,0.124 -0.37333,0.108" fill-rule="nonzero" fill="#f9ad63"/>
  <path id="path216" d="m450.86533,89.49201c0,1.224 -0.55067,2.216 -1.23067,2.216c-0.68,0 -1.23066,-0.992 -1.23066,-2.216c0,-1.224 0.55066,-2.216 1.23066,-2.216c0.67867,0 1.23067,0.992 1.23067,2.216" fill-rule="nonzero" fill="#22434d"/>
  <path id="path218" d="m437.708,89.49201c0,1.224 -0.55067,2.216 -1.23067,2.216c-0.68,0 -1.23067,-0.992 -1.23067,-2.216c0,-1.224 0.55067,-2.216 1.23067,-2.216c0.68,0 1.23067,0.992 1.23067,2.216" fill-rule="nonzero" fill="#22434d"/>
  <path id="path220" d="m430.724,73.47067c0,0 10.49866,3.844 25.552,2.76267c0,0 3.20933,4.00133 2.82,18.116c0,0 8.81333,-25.42666 -16.91734,-25.42666c-25.73066,0 -14.13866,24.86266 -14.13866,24.86266c0,0 -2.10267,-15.55067 2.684,-20.31466" fill-rule="nonzero" fill="#f9ad63"/>
  <path id="path222" d="m443.73733,96.07067l-0.73733,-0.74266l1.948,-1.936c-1.88934,-2.672 -1.87867,-8.85467 -1.87734,-9.13067l1.04667,0.00667c0,0.06666 -0.01067,6.71866 1.91867,8.80933l0.34266,0.37067l-2.64133,2.62266" fill-rule="nonzero" fill="#dc4b44"/>
  <path id="path224" d="m437.19866,99.29334c0,0 9.696,0.40933 14.592,-0.88533c0,0 0.86534,7.05066 -6.64933,7.40133c-7.94267,0.36933 -7.94267,-6.516 -7.94267,-6.516" fill-rule="nonzero" fill="#22434d"/>
  <path id="path226" d="m478.63466,125.95201c1.85067,-0.34267 1.66533,4.49867 0,3.096c-1.66533,-1.404 -1.85066,-2.752 0,-3.096" fill-rule="nonzero" fill="#d2dadc"/>
  <path id="path228" d="m456.32,149.41734c-0.28267,1.86133 -4.796,0.09867 -2.924,-1.01467c1.87066,-1.11333 3.20533,-0.84666 2.924,1.01467" fill-rule="nonzero" fill="#d2dadc"/>
  <path id="path230" d="m436.45733,159.52134c0,0 -2.93867,7.536 -2.77067,11.792c0.168,4.25733 1.56,3.70133 1.56,3.70133c0,0 -2.228,0.87734 -2.65066,3.33067c-0.42134,2.45467 5.77333,4.256 6.19866,4.256c0.42667,0 4.79867,-1.66533 4.79867,-1.66533l0.916,-13.924l-3.86933,-2.43067l-4.18267,-5.06" fill-rule="nonzero" fill="#ef5640"/>
  <path id="path232" d="m438.79466,158.54667c0,0 5.34934,3.33067 7.42134,5.36534c2.072,2.036 0.88933,17.764 0,18.50533c-0.88934,0.74 -7.70934,2.26533 -9.01734,1.41067c-1.30933,-0.856 0.50934,-5.48267 0.50934,-5.48267c0,0 3.42533,-0.74 2.932,0.556c-0.49467,1.29467 0,2.40533 0,2.40533l1.40666,-0.55466c0,0 -0.69066,-3.516 0,-6.10667c0.68934,-2.59067 -4.82266,-5.32267 -5.49066,-10.064c-0.66667,-4.74 2.23866,-6.03467 2.23866,-6.03467" fill-rule="nonzero" fill="#f57559"/>
  <path id="path234" d="m383.35066,150.88401c-1.71333,-7.39734 5.62667,-10.01334 15.83867,-8.752c11.84267,1.46266 36.164,4.56 41.45067,17.38933c0,0 1.72666,5.06 -2.74267,7.49067c-12.492,6.79466 -51.33067,-2.23734 -54.54667,-16.128" fill-rule="nonzero" fill="#cf2548"/>
  <path id="path236" d="m420.39733,145.98267c0,0 -14.11467,-5.864 -21.14533,-6.45733c-7.032,-0.59333 9.72266,5.55067 21.14533,6.45733" fill-rule="nonzero" fill="#9f2240"/>
  <path id="path238" d="m526.19866,18.91334c-1.06667,1.21334 -2.828,5.936 -2.828,5.936c-0.74,3.96667 -1.16933,6.15867 -2.56133,7.97867c-1.376,1.82133 -0.65067,5.03333 -0.65067,5.03333c0,0 -5.38933,2.768 -9.91867,-0.65066c0,0 0.47334,-3.18267 0,-4.08667c-0.932,-1.80533 -3.92266,-2.768 -4.944,-6.40934c-1.02133,-3.656 -4.08666,-7.728 -4.08666,-7.728c0,0 0.87466,-1.89466 2.47333,-0.74c1.61333,1.16934 2.63467,4.08667 3.508,4.38267c0.17733,0.05867 0.35467,0.10267 0.53333,0.11867c0,0 0.01467,0 0.044,0.01467c0.66667,0.088 1.34667,-0.06 1.76134,-0.46c0.02933,-0.01467 0.07466,-0.044 0.104,-0.088c1.46533,-1.70267 1.80533,-6.70667 1.74666,-8.94134c-0.08933,-3.10933 0.02934,-7.40133 1.924,-6.676c1.89467,0.724 0.16267,2.45734 1.62934,9.31067l0.70933,0.08933c0.13333,0.488 1.436,-4.16 1.748,-8.52666c0.22133,-3.00534 2.19067,-1.89467 2.62,-0.948c0.444,0.948 -0.22267,3.93733 -0.356,6.11333c-0.10267,1.436 -0.22133,2.932 -0.296,3.82l0.82933,0.45867c2.99067,-5.21067 1.96934,-7.372 3.716,-7.476c1.732,-0.10267 1.10934,4.29333 0.17733,5.96666c-0.39999,0.72534 -0.78533,2.23467 -1.096,3.71467c3.06534,-3.53733 2.72401,-5.388 4.13067,-5.16533c1.45067,0.236 0.148,3.744 -0.91733,4.95866" fill-rule="nonzero" fill="#f57559"/>
  <path id="path240" d="m512.96399,27.06934c-1.03599,-2.856 -4.73733,-4.15867 -5.196,-4.30666c0.66667,0.08799 1.34667,-0.06001 1.76134,-0.46001c3.62666,1.62934 3.43466,4.76667 3.43466,4.76667" fill-rule="nonzero" fill="#ef5640"/>
  <path id="path242" d="m448.65733,405.70001c0,0 -2.048,-4.18 -0.22133,-5.976c1.82533,-1.79601 3.976,1.53466 7.09466,0.79466c3.12,-0.74 3.84267,-2.95733 4.65334,0.06267c0.81066,3.02133 -0.17734,12.52 -11.52667,5.11867" fill-rule="nonzero" fill="#d2dadc"/>
  <path id="path244" d="m460.39999,405.51467c0,0 -8.37866,2.968 -12.72266,0l1.104,3.62667c0,0 9.10666,0.96533 10.36266,-1.33067l1.256,-2.296" fill-rule="nonzero" fill="#acbfc3"/>
  <path id="path246" d="m460.28666,410.02134c0,0 -7.67067,-1.06533 -11.372,0.84l0,1.79867c0,0 10.00133,-2.33467 13.23467,0l-1.86267,-2.63867" fill-rule="nonzero" fill="#acbfc3"/>
  <path id="path248" d="m448.54666,416.3932c0,0 1.488,-3.62519 6.15467,-3.8852c4.66667,-0.26 7.816,2.30934 7.816,2.30934c0,0 -7.40133,-3.04934 -13.97067,1.57586" fill-rule="nonzero" fill="#acbfc3"/>
  <path id="path250" d="m646.00266,366.024c-14.72933,19.65867 -34.77333,23.43334 -34.77333,23.43334c-5.81867,-4.648 -5.96667,-10.15467 -5.96667,-10.15467c0,0 -5.61067,-5.004 -6.35067,-7.40267c-0.74,-2.39733 4.812,-9.62133 8.14267,-8.88133c2.29467,0.50267 3.62667,2.33867 4.23333,3.42c-2.75333,-6.20267 -0.548,-8.364 3.36,-7.832c4.072,0.548 0.22267,1.51067 3.13867,4.78133c0.208,0.23734 0.444,0.42934 0.696,0.608c0.53333,0.36934 1.16933,0.62134 1.89467,0.75467c0.636,0.11867 1.34666,0.148 2.088,0.104c0.384,-0.016 0.784,-0.06 1.184,-0.11867c0.75466,-0.11866 1.524,-0.31066 2.324,-0.56266c1.228,-0.38534 2.50133,-0.93334 3.74533,-1.61334c5.092,-2.784 7.23867,-3.73066 11.11733,-2.73866c3.864,0.976 3.804,3.908 3.804,3.908l1.36267,2.29466" fill-rule="nonzero" fill="#d2dadc"/>
  <path id="path252" d="m646.00266,366.024c-14.72933,19.65867 -34.77333,23.43334 -34.77333,23.43334c10.22933,-4.396 19.62933,-10.15467 26.05333,-17.24667c6.41067,-7.09067 8.72,-6.18667 8.72,-6.18667" fill-rule="nonzero" fill="#acbfc3"/>
  <path id="path254" d="m618.48266,363.99601c0.53333,0.36933 1.16933,0.62133 1.89467,0.75466c-3.89334,0.784 -4.17467,4.26267 -4.17467,4.26267l-1.65733,-0.532c0.35466,-4.17467 3.656,-4.47067 3.93733,-4.48533" fill-rule="nonzero" fill="#acbfc3"/>
  <path id="path256" d="m621.10266,369.428l-1.732,0.06c-0.65067,-2.45733 0.192,-3.92399 1.00667,-4.73733c0.636,0.11867 1.34666,0.148 2.088,0.104c-2.05867,2.028 -1.36267,4.57333 -1.36267,4.57333" fill-rule="nonzero" fill="#acbfc3"/>
  <path id="path258" d="m625.38133,368.48134l-1.71734,0.22133c-0.66666,-1.74667 -0.47333,-3.04933 -0.01466,-3.96667c0.75466,-0.11866 1.524,-0.31066 2.324,-0.56266c-1.42134,2.116 -0.592,4.308 -0.592,4.308" fill-rule="nonzero" fill="#acbfc3"/>
  <path id="path260" d="m460.55199,185.93334c0,0 3.80134,20.51467 -3.88533,28.68933c-7.68667,8.176 -2.60267,1.45734 -0.30933,-9.08266c2.29333,-10.54 0.54667,-21.64134 4.19467,-19.60667" fill-rule="nonzero" fill="#cf2548"/>
  <path id="path262" d="m496.02933,176.77734c0,0 12.11733,3.98133 18.456,15.17333c0,0 -8.464,-18.22133 -18.456,-15.17333" fill-rule="nonzero" fill="#cf2548"/>
  <path id="path264" d="m181.29733,24.36134c1.616,0.02533 6.29733,1.88934 6.29733,1.88934c3.43734,2.116 5.34934,3.268 7.63334,3.46c2.27333,0.20133 3.20666,4.108 3.20666,4.108c0,0 8.96667,1.96133 9.47334,-3.692c0,0 -5.01334,-7.09467 -5.364,-8.052c-0.71334,-1.90267 0.58133,-4.76534 -1.432,-7.96667c-2.024,-3.212 -2.984,-8.216 -2.984,-8.216c0,0 -1.99067,-0.62533 -2.208,1.33467c-0.216,1.98133 1.25866,4.696 0.892,5.54266c-0.07467,0.17067 -0.16134,0.33334 -0.26934,0.47334c0,0 -0.01066,0.012 -0.02,0.044c-0.38133,0.55333 -0.948,0.95866 -1.52266,0.99733c-0.03067,0.012 -0.08267,0.02533 -0.13467,0.01733c-2.24533,-0.05733 -6.18267,-3.164 -7.8,-4.708c-2.244,-2.15333 -5.50533,-4.948 -6.24,-3.056c-0.73467,1.89067 1.712,1.76933 5.808,7.45733l-0.41067,0.58667c0.272,0.42667 -4.048,-1.72933 -7.49333,-4.42933c-2.376,-1.85333 -2.87467,0.35067 -2.46133,1.30533c0.40533,0.96533 3.068,2.47867 4.77066,3.84133c1.13334,0.88667 2.32134,1.80267 3.02934,2.344l-0.21734,0.92267c-5.86933,-1.28133 -6.78533,-3.48933 -8.03466,-2.264c-1.24,1.21333 2.436,3.704 4.30266,4.136c0.80534,0.19067 2.18267,0.92 3.48934,1.68267c-4.68,-0.104 -5.82267,-1.59867 -6.60267,-0.40667c-0.79733,1.23333 2.67733,2.62267 4.292,2.648" fill-rule="nonzero" fill="#f57559"/>
  <path id="path266" d="m196.228,20.02934c-1.42267,-2.68666 0.09733,-6.304 0.29467,-6.74266c-0.38134,0.55333 -0.948,0.95866 -1.52267,0.99733c-1.228,3.78133 1.228,5.74533 1.228,5.74533" fill-rule="nonzero" fill="#ef5640"/>
  <path id="path268" d="m445.10533,24.36134c-1.616,0.02533 -6.29867,1.88934 -6.29867,1.88934c-3.43733,2.116 -5.34933,3.268 -7.632,3.46c-2.27467,0.20133 -3.20667,4.108 -3.20667,4.108c0,0 -8.96666,1.96133 -9.47333,-3.692c0,0 5.01333,-7.09467 5.364,-8.052c0.712,-1.90267 -0.58133,-4.76534 1.432,-7.96667c2.024,-3.212 2.984,-8.216 2.984,-8.216c0,0 1.99067,-0.62533 2.208,1.33467c0.216,1.98133 -1.25867,4.696 -0.892,5.54266c0.07467,0.17067 0.16133,0.33334 0.26933,0.47334c0,0 0.01067,0.012 0.01867,0.044c0.38133,0.55333 0.94933,0.95866 1.52267,0.99733c0.032,0.012 0.08267,0.02533 0.136,0.01733c2.24533,-0.05733 6.18267,-3.164 7.8,-4.708c2.244,-2.15333 5.50533,-4.948 6.24,-3.056c0.73467,1.89067 -1.712,1.76933 -5.808,7.45733l0.41067,0.58667c-0.272,0.42667 4.04666,-1.72933 7.492,-4.42933c2.37733,-1.85333 2.876,0.35067 2.46133,1.30533c-0.404,0.96533 -3.06667,2.47867 -4.76933,3.84133c-1.13334,0.88667 -2.32134,1.80267 -3.02934,2.344l0.216,0.92267c5.86934,-1.28133 6.78667,-3.48933 8.036,-2.264c1.23867,1.21333 -2.43733,3.704 -4.30266,4.136c-0.80534,0.19067 -2.184,0.92 -3.48934,1.68267c4.68,-0.104 5.82267,-1.59867 6.60134,-0.40667c0.79866,1.23333 -2.676,2.62267 -4.29067,2.648" fill-rule="nonzero" fill="#f57559"/>
  <path id="path270" d="m430.17466,20.02934c1.42134,-2.68666 -0.09733,-6.304 -0.296,-6.74266c0.38134,0.55333 0.94934,0.95866 1.52267,0.99733c1.228,3.78133 -1.22667,5.74533 -1.22667,5.74533" fill-rule="nonzero" fill="#ef5640"/>
  <path id="path272" d="m366.308,296.15601l-17.22534,-106.65467l-34.492,3.852l-34.49066,-3.852l-17.22534,106.65467l-8.27333,103.44133c0,0 2.63067,8.572 19.83733,2.65067c0,0 12.764,-95.944 14.73867,-98.05734c1.97333,-2.11333 22.244,-64.78133 22.244,-64.78133l6.34,0c0,0 20.26933,62.668 22.244,64.78133c1.97333,2.11334 14.73867,98.05734 14.73867,98.05734c17.20666,5.92133 19.836,-2.65067 19.836,-2.65067l-8.272,-103.44133" fill-rule="nonzero" fill="#1b3540"/>
  <path id="path274" d="m303.72533,86.21867c2.17867,2.12 12.89733,5.94534 18.55733,0l3.83867,3.76934c0,0 -4.376,10.29066 -12.056,10.65066c-7.67867,0.36 -13.23067,-9.156 -13.23067,-9.156l2.89067,-5.264" fill-rule="nonzero" fill="#1f436b"/>
  <path id="path276" d="m334.08133,85.05734c12.82933,-5.524 54.27867,-20.20666 54.27867,-20.20666c0,0 27.864,-34.90934 33.54666,-40.09067c0,0 6.168,1.11067 7.972,8.79067c0,0 -17.94133,38.41866 -27.69466,49.41733c-9.75334,10.99867 -59.14934,34.78666 -59.14934,34.78666l-8.95333,-32.69733" fill-rule="nonzero" fill="#1f436b"/>
  <path id="path278" d="m289.17733,84.26534c3.816,-2.41467 22.97867,10.40533 22.97867,10.40533c0,0 24.912,-13.22933 30.75866,-10.66666c0,0 5.268,7.04933 7.38533,25.17466c2.11734,18.12667 2.25734,92.71467 2.25734,92.71467c0,0 -16.74933,5.92533 -39.404,5.92533c-25.82667,0 -39.72134,-7.40666 -39.72134,-7.40666c0,0 -4.60933,-103.27334 15.74534,-116.14667" fill-rule="nonzero" fill="#f9ad63"/>
  <path id="path280" d="m304.73733,82.32801c0,0 2.75867,8.67733 0,12.02133c0,0 2.86533,6.01333 8.016,6.27867c5.94933,0.30667 8.01467,-6.27867 8.01467,-6.27867c0,0 -3.14667,-8.38133 0,-11.328l-16.03067,-0.69333" fill-rule="nonzero" fill="#ef5640"/>
  <path id="path282" d="m297.85866,73.78534c0,0 -5.80666,-11.17733 -4.656,-23.12c1.14934,-11.944 19.144,-14.68133 31.272,-8.81467c0,0 -3.6,-3.52 -2.192,-4.49866c1.40934,-0.97734 3.83867,5.28133 3.83867,5.28133c0,0 3.83067,-1.17333 4.41733,0c0.58667,1.17467 -3.92533,1.816 -3.92533,1.816c0,0 7.82667,4.34 0.51467,27.43733l-29.26934,1.89867" fill-rule="nonzero" fill="#872b39"/>
  <path id="path284" d="m296.98533,66.70667c0,0 -4.32933,-4.32 -4.86267,0.73067c-0.61733,5.852 4.69734,8.20934 5.736,6.348c1.03867,-1.86266 -0.87333,-7.07866 -0.87333,-7.07866" fill-rule="nonzero" fill="#f57559"/>
  <path id="path286" d="m327.30266,67.01201c0,0 4.33067,-4.32134 4.86267,0.72933c0.61733,5.852 -4.69733,8.20933 -5.736,6.348c-1.03867,-1.86133 0.87333,-7.07733 0.87333,-7.07733" fill-rule="nonzero" fill="#f57559"/>
  <path id="path288" d="m311.688,87.90267c-9.60667,0 -15.028,-6.27466 -15.028,-25.096c0,-9.70666 4.93866,-15.66266 15.69866,-15.66266c10.76,0 15.29334,5.95466 15.29334,15.66266c0,20.224 -6.04,25.096 -15.964,25.096" fill-rule="nonzero" fill="#f57559"/>
  <path id="path290" d="m324.46933,69.52001c0.16933,0.96533 -0.67333,1.91866 -1.88133,2.12933c-1.20667,0.21067 -2.32267,-0.40133 -2.49067,-1.36667c-0.16933,-0.96533 0.67333,-1.92 1.88133,-2.12933c1.20667,-0.21067 2.32267,0.40133 2.49067,1.36667" fill-rule="nonzero" fill="#dc4b44"/>
  <path id="path292" d="m304.71066,70.04534c-0.064,0.97867 -1.108,1.70667 -2.33066,1.62667c-1.22267,-0.08 -2.16267,-0.93733 -2.09867,-1.916c0.064,-0.97733 1.10667,-1.70533 2.32933,-1.62533c1.224,0.07866 2.164,0.936 2.1,1.91466" fill-rule="nonzero" fill="#dc4b44"/>
  <path id="path294" d="m320.076,59.75334c-0.12667,0 -0.25334,-0.048 -0.34667,-0.148c-1.332,-1.396 -3.66267,-1.336 -3.69733,-1.336c-0.26,0.00267 -0.48667,-0.19867 -0.49467,-0.46533c-0.01067,-0.264 0.19867,-0.48533 0.464,-0.49467c0.10133,-0.00666 2.79733,-0.06933 4.42133,1.63334c0.18267,0.19333 0.176,0.496 -0.01466,0.67866c-0.09334,0.08934 -0.21334,0.132 -0.332,0.132" fill-rule="nonzero" fill="#872b39"/>
  <path id="path296" d="m301.988,59.75334c-0.11867,0 -0.23734,-0.04266 -0.33067,-0.132c-0.192,-0.18267 -0.19867,-0.48533 -0.01733,-0.67866c1.62266,-1.70267 4.316,-1.63734 4.42133,-1.63334c0.26533,0.00934 0.472,0.23067 0.464,0.49467c-0.008,0.26533 -0.24,0.46933 -0.49467,0.46533c-0.01733,-0.004 -2.37866,-0.048 -3.69466,1.336c-0.096,0.1 -0.22134,0.148 -0.348,0.148" fill-rule="nonzero" fill="#872b39"/>
  <path id="path298" d="m319.24533,64.85201c0,1.192 -0.536,2.16 -1.19867,2.16c-0.664,0 -1.20133,-0.968 -1.20133,-2.16c0,-1.19333 0.53733,-2.16134 1.20133,-2.16134c0.66267,0 1.19867,0.968 1.19867,2.16134" fill-rule="nonzero" fill="#22434d"/>
  <path id="path300" d="m306.41733,64.85201c0,1.192 -0.53733,2.16 -1.2,2.16c-0.664,0 -1.2,-0.968 -1.2,-2.16c-0.00133,-1.19333 0.536,-2.16134 1.2,-2.16134c0.66267,0 1.2,0.968 1.2,2.16134" fill-rule="nonzero" fill="#22434d"/>
  <path id="path302" d="m306.41733,77.61601c0,0 8.47067,1.08933 12.828,-1.00133c0,0 -2.46267,5.768 -7.09067,5.25066c-4.62666,-0.51733 -5.73733,-4.24933 -5.73733,-4.24933" fill-rule="nonzero" fill="#22434d"/>
  <path id="path304" d="m326.65066,69.14401c0,0 -0.3,-10.448 -4.368,-18.47867c0,0 -7.17066,3.31334 -8.748,2.53067c-1.57866,-0.78133 1.504,-2.53067 1.504,-2.53067c0,0 -11.832,3.9 -12.54266,3.11867c-0.712,-0.78267 3.92133,-3.11867 3.92133,-3.11867l-7.37067,2.53067c0,0 -2.272,9.40133 -1.332,15.948c0,0 -3.168,-5.46533 -3.55866,-9.23867c-0.392,-3.77466 1.26666,-14.53333 12.36933,-15.31466c11.10266,-0.78267 17.33733,1.736 20.088,6.83333c2.75067,5.09733 2.40933,11.36933 0.03733,17.72" fill-rule="nonzero" fill="#872b39"/>
  <path id="path306" d="m313.36266,74.59734c-0.93333,0 -1.88266,-0.24133 -2.16933,-0.32133l0.27333,-0.98267c1.008,0.27733 2.588,0.444 2.93334,0.03733c0.11866,-0.14133 0.072,-0.46933 -0.132,-0.9c-1.388,-2.95333 -1.67734,-10.42933 -1.68934,-10.74533l1.02134,-0.03733c0.00266,0.076 0.292,7.584 1.592,10.348c0.39733,0.84267 0.39333,1.51333 -0.012,1.992c-0.39334,0.46667 -1.10134,0.60933 -1.81734,0.60933" fill-rule="nonzero" fill="#dc4b44"/>
  <path id="path308" d="m323.992,88.96801c0,0 17.38666,53.97333 19.04266,97.88933c0,0 6.27467,1.728 13.34134,-7.89467c7.06533,-9.62266 2.86266,-85.83866 -10.67467,-98.52933c0,0 -6.14133,-1.4 -21.70933,8.53467" fill-rule="nonzero" fill="#2a5a9f"/>
  <path id="path310" d="m326.82533,98.40801c0,0 3.112,-7.232 1.72933,-12.18934c-1.38266,-4.95866 -6.272,0 -6.272,0c0,0 1.976,8.11867 4.54267,12.18934" fill-rule="nonzero" fill="#1f436b"/>
  <path id="path312" d="m291.92666,85.05734c-12.828,-5.524 -54.27866,-20.20666 -54.27866,-20.20666c0,0 -27.93333,-35.92667 -33.616,-41.108c0,0 -7.032,3.97866 -7.50933,12.21333c0,0 17.54933,36.01333 27.30133,47.012c9.75333,10.99867 59.15066,34.78666 59.15066,34.78666l8.952,-32.69733" fill-rule="nonzero" fill="#1f436b"/>
  <path id="path314" d="m302.01733,88.96801c0,0 -17.38667,53.97333 -19.04267,97.88933c0,0 -6.276,1.728 -13.34133,-7.89467c-7.06533,-9.62266 -2.86267,-85.83866 10.67333,-98.52933c0,0 6.14134,-1.4 21.71067,8.53467" fill-rule="nonzero" fill="#2a5a9f"/>
  <path id="path316" d="m299.18266,98.40801c0,0 -3.112,-7.232 -1.72933,-12.18934c1.38267,-4.95866 6.272,0 6.272,0c0,0 -1.97467,8.11867 -4.54267,12.18934" fill-rule="nonzero" fill="#1f436b"/>
  <path id="path318" d="m389.91733,427.4136l-34.52133,0c-2.412,-13.72293 1.436,-27.46026 1.436,-27.46026l15.78133,-2.70933c1.43467,8.67466 3.168,12.09466 5.56533,13.856c0.01467,0 0.01467,0 0.01467,0c1.74667,1.27333 3.83467,1.688 6.44,2.59066c2.97467,1.036 4.544,2.91614 5.32933,4.9588c1.55467,4.05574 -0.04533,8.76414 -0.04533,8.76414" fill-rule="nonzero" fill="#61242f"/>
  <path id="path320" d="m389.96266,418.64947c-8.512,1.06667 -27.20933,2.88653 -26.06933,-2.04267c0.948,-4.1148 8.83733,-5.22546 14.28533,-5.5068c0.01467,0 0.01467,0 0.01467,0c1.74667,1.27334 3.83467,1.688 6.44,2.59067c2.97467,1.036 4.544,2.91613 5.32933,4.9588" fill-rule="nonzero" fill="#872b39"/>
  <path id="path322" d="m274.30266,427.4136l-34.52133,0c0,0 -1.09467,-3.2272 -0.592,-6.64693c0.41467,-2.7828 1.89467,-5.7 5.87733,-7.076c2.99067,-1.036 5.28534,-1.42133 7.16534,-3.18267c2.04266,-1.92533 3.56666,-5.47733 4.85466,-13.264l15.78134,2.70934c0,0 3.83333,13.73733 1.43466,27.46026" fill-rule="nonzero" fill="#61242f"/>
  <path id="path324" d="m239.18933,420.76667c0.41467,-2.7828 1.89467,-5.7 5.87733,-7.076c2.99067,-1.036 5.28534,-1.42133 7.16534,-3.18267c4.36666,1.34667 10.48,3.81867 12.37466,7.56387c2.636,5.13747 -17.54133,4.32293 -25.41733,2.6948" fill-rule="nonzero" fill="#872b39"/>
  <path id="path326" d="m522.14266,424.9412c0,1.45094 -0.14933,2.4724 -0.14933,2.4724l-41.93734,0c0,-0.82973 0.01467,-1.65893 0.05867,-2.4724c0.47467,-10.9692 3.93867,-20.48786 3.93867,-20.48786l10.48,-4.5c0.90267,5.40267 3.228,8.852 6.144,11.10267c0.76933,0.60666 1.56933,1.10933 2.39733,1.53866c0.38534,0.208 0.77067,0.4 1.16934,0.57734c0.87466,0.4 1.77733,0.72533 2.68,0.992c3.70133,1.12533 7.44666,1.36253 10.06666,1.76146c4.47067,0.69587 5.152,5.86254 5.152,9.01574" fill-rule="nonzero" fill="#203e50"/>
  <path id="path328" d="m522.14266,424.9412c0,1.45094 -0.14933,2.4724 -0.14933,2.4724l-41.93734,0c0,-0.82973 0.01467,-1.65893 0.05867,-2.4724l42.028,0" fill-rule="nonzero" fill="#2a5465"/>
  <path id="path330" d="m503.07466,412.59467l-5.81733,1.86533l-1.228,-2.132l4.648,-1.272c0.76933,0.60667 1.56933,1.10934 2.39733,1.53867" fill-rule="nonzero" fill="#2a5465"/>
  <path id="path332" d="m506.92399,414.164l-3.92266,2.60534l-2.41334,-0.94693l3.656,-2.6504c0.87467,0.39999 1.77734,0.72533 2.68,0.99199" fill-rule="nonzero" fill="#2a5465"/>
  <path id="path334" d="m361.90933,424.9412c-0.10267,1.42134 -0.47333,2.4724 -0.47333,2.4724l-27.93334,0c-0.356,-0.8152 -0.608,-1.62813 -0.78533,-2.4724c-2.75333,-13.36786 15.81067,-29.7252 15.81067,-29.7252l5.892,7.86001c0,0 -0.68133,12.58386 4.30667,15.20426c2.99066,1.5692 3.376,4.52907 3.18266,6.66093" fill-rule="nonzero" fill="#203e50"/>
  <path id="path336" d="m332.71733,424.9412l29.192,0c-0.10267,1.42134 -0.47333,2.4724 -0.47333,2.4724l-27.93334,0c-0.356,-0.8152 -0.608,-1.62813 -0.78533,-2.4724" fill-rule="nonzero" fill="#2a5465"/>
  <path id="path338" d="m357.45066,417.27707c0,0 -11.76933,-2.6824 -17.13466,0.7912l0,-1.9428c0,0 9.89866,-4.8108 17.13466,1.1516" fill-rule="nonzero" fill="#2a5465"/>
  <path id="path340" d="m355.11866,414.29201c0,0 -7.51466,-3.43601 -14.80266,0l0.832,-1.96001c0,0 8.70533,-3.292 13.97066,1.96001" fill-rule="nonzero" fill="#2a5465"/>
  <path id="path342" d="m509.48533,306.09867c0.01466,11.236 -9.96267,102.84 -9.96267,102.84c-9.97733,0.992 -17.972,-1.00667 -17.972,-1.00667c-2.73867,-46.424 -3.00533,-86.348 -3.00533,-86.348l-47.81467,-35.83999l-0.11867,-0.08801c0,0 -0.17733,0.81334 -0.50266,2.26534c-2.36933,10.50933 -12.39067,54.53466 -16.56534,64.616c-4.752,11.488 -56.70799,59.79466 -56.70799,59.79466c-9.652,-1.332 -17.84134,-8.32266 -17.84134,-8.32266c18.652,-30.94 44.084,-61.968 44.084,-61.968c1.984,-11.14667 3.40534,-35.94267 4.24934,-54.476c0.01466,-0.28134 0.02933,-0.57734 0.044,-0.85867c0.56266,-12.55333 0.844,-22.02667 0.844,-22.02667l-8.764,-17.972l55.67599,-20.45866l12.47867,15.97333c0,0 2.85733,2.64934 7.35733,6.884c0.208,0.192 0.41467,0.384 0.62134,0.57734c16.71333,15.76533 53.9,51.38266 53.9,56.41466" fill-rule="nonzero" fill="#91c1df"/>
  <path id="path344" d="m387.328,287.56534c0.01466,-0.28133 0.02933,-0.57733 0.044,-0.85867c11.724,-6.36533 9.75466,-16.52 9.72533,-16.624l0.72533,-0.148c0.02933,0.104 2.132,11.01333 -10.49467,17.63067" fill-rule="nonzero" fill="#6196b4"/>
  <path id="path346" d="m429.872,278.56534c0.4,2.22 0.696,4.61867 0.85866,7.17867l-0.11866,-0.088c0,0 -0.17734,0.81333 -0.50267,2.26533c-0.51867,-17.40933 -7.69733,-27.69733 -7.78667,-27.816l0.60667,-0.42933c0.07467,0.088 4.604,6.632 6.79467,18.04533c8.468,-7.52 0.17733,-22.93067 0.08933,-23.07867l0.65067,-0.35466c0.08933,0.16266 8.868,16.476 -0.592,24.27733" fill-rule="nonzero" fill="#6196b4"/>
  <path id="path348" d="m455.58533,249.68401c-0.01467,0.01466 -0.044,0.01466 -0.05867,0.02933c-0.34,0.13333 -0.74,0.192 -1.15467,0.192c-4.1,0 -10.984,-5.744 -11.30933,-6.02533l0.488,-0.56134c2.236,1.89467 8.468,6.43867 11.41334,5.788c0.208,0.192 0.41466,0.384 0.62133,0.57734" fill-rule="nonzero" fill="#6196b4"/>
  <path id="path350" d="m383.35066,150.88401c0,0 16.93467,-2.72534 25.42134,2.684c8.48533,5.40933 19.62666,19.528 19.62666,19.528c0,0 -13.228,1.74666 -14.72533,10.732c0,0 -9.608,-22.884 -30.32267,-32.944" fill-rule="nonzero" fill="#acbfc3"/>
  <path id="path352" d="m357.87333,159.71734c-7.164,3.872 -19.14,18.412 -19.68,27.35467c-0.528,8.72133 5.932,16.74266 10.288,23.56133c13.59067,21.28 27.9,40.08 33.98,65.03733c0.03867,0.15867 31.08667,12.48 67.52533,-31.32133c0,0 -20.58933,-27.70267 -27.70266,-51.288c-2.896,-9.6 -5.84134,-19.79867 -11.40267,-28.26c-6.12667,-9.32 -16.61733,-14.80267 -27.53067,-13.91733c-9.23466,0.748 -18.42,5.01733 -25.47733,8.83333" fill-rule="nonzero" fill="#d2dadc"/>
  <path id="path354" d="m354.86666,150.79067c0,0 4.58267,7.82934 2.46534,12.13467c0,0 15.72266,5.428 15.72266,-3.36933c0,0 -2.96266,-6.59333 -1.84666,-10.856l-16.34134,2.09067" fill-rule="nonzero" fill="#ef5640"/>
  <path id="path356" d="m389.80533,204.40267c0,0 -8.74533,2.48534 -10.95333,5.58134c-2.20667,3.096 -4.17067,10.04133 -4.17067,10.04133l15.124,0l2.844,-5.23333l3.32933,-6.97334l-6.17333,-3.416" fill-rule="nonzero" fill="#ef5640"/>
  <path id="path358" d="m375.34666,142.06134c0,0 6.14134,-2.576 2.168,-21.04533c-2.632,-12.23733 -6.42266,-14.06133 -8.87333,-14.16933c0,0 -2.99733,-4.51467 -13.39333,-2.35334c-7.12134,1.48 -12.80134,5.80534 -15.30267,13.80667c-2.61067,8.352 2.61067,26.25467 9.48667,28.036l25.91466,-4.27467" fill-rule="nonzero" fill="#203e50"/>
  <path id="path360" d="m376.79866,129.58001c0,0 3.87067,-5.38667 5.332,-0.07734c1.69334,6.15067 -3.57733,9.61067 -5.016,7.80267c-1.44,-1.808 -0.316,-7.72533 -0.316,-7.72533" fill-rule="nonzero" fill="#f57559"/>
  <path id="path362" d="m344.42,135.25601c0,0 -5.39467,-3.85734 -5.07334,1.64c0.372,6.36933 6.47467,7.95333 7.25734,5.77866c0.78266,-2.17466 -2.184,-7.41866 -2.184,-7.41866" fill-rule="nonzero" fill="#f57559"/>
  <path id="path364" d="m364.812,154.84934c10.276,-1.696 14.96933,-9.36533 11.648,-29.49867c-1.71334,-10.38533 -8.048,-15.884 -19.55867,-13.98533c-11.512,1.9 -15.30933,9.06933 -13.596,19.45467c3.56933,21.63333 10.88933,25.78 21.50667,24.02933" fill-rule="nonzero" fill="#f57559"/>
  <path id="path366" d="m347.89333,137.43867c-0.00933,1.064 1.06,1.93467 2.38933,1.948c1.32934,0.01067 2.41467,-0.84 2.424,-1.90266c0.00934,-1.06267 -1.06,-1.93467 -2.38933,-1.94667c-1.328,-0.012 -2.41333,0.84 -2.424,1.90133" fill-rule="nonzero" fill="#dc4b44"/>
  <path id="path368" d="m369.12533,134.51467c0.24,1.03467 1.48533,1.62934 2.78,1.32934c1.29333,-0.30134 2.148,-1.38534 1.90667,-2.42c-0.24,-1.03467 -1.48534,-1.63067 -2.78,-1.32934c-1.29334,0.30134 -2.148,1.38534 -1.90667,2.42" fill-rule="nonzero" fill="#dc4b44"/>
  <path id="path370" d="m350.78666,126.22534c-0.10133,0 -0.204,-0.02933 -0.29333,-0.09067c-0.23733,-0.16266 -0.3,-0.48666 -0.13733,-0.72266c1.436,-2.10934 4.32,-2.51334 4.444,-2.52934c0.30133,-0.03466 0.544,0.16267 0.584,0.44667c0.03733,0.284 -0.16267,0.54667 -0.44667,0.58533c-0.02667,0.00267 -2.55067,0.364 -3.72,2.08267c-0.10133,0.148 -0.26533,0.228 -0.43067,0.228" fill-rule="nonzero" fill="#22434d"/>
  <path id="path372" d="m370.136,123.03201c-0.10934,0 -0.22,-0.03334 -0.31334,-0.10534c-1.664,-1.256 -4.164,-0.78133 -4.188,-0.77733c-0.28666,0.06267 -0.556,-0.12667 -0.612,-0.40933c-0.056,-0.28133 0.128,-0.556 0.40934,-0.61067c0.12,-0.024 2.98133,-0.56933 5.01733,0.96667c0.23067,0.172 0.27467,0.5 0.10267,0.728c-0.10267,0.136 -0.25867,0.208 -0.416,0.208" fill-rule="nonzero" fill="#22434d"/>
  <path id="path374" d="m352.65866,131.52267c0.21067,1.27734 0.956,2.21734 1.664,2.1c0.70934,-0.11733 1.11334,-1.24666 0.90267,-2.52266c-0.20933,-1.276 -0.956,-2.216 -1.664,-2.09867c-0.70933,0.116 -1.11333,1.24533 -0.90267,2.52133" fill-rule="nonzero" fill="#22434d"/>
  <path id="path376" d="m366.38266,129.26001c0.21067,1.276 0.956,2.216 1.66534,2.09867c0.70933,-0.11734 1.11333,-1.24667 0.90266,-2.52267c-0.21066,-1.27734 -0.956,-2.216 -1.66533,-2.09867c-0.70933,0.116 -1.11333,1.24533 -0.90267,2.52267" fill-rule="nonzero" fill="#22434d"/>
  <path id="path378" d="m370.236,140.84667c0,0 -8.916,2.392 -13.86,1.44267c0,0 3.41733,4.304 8.296,3.06267c4.88,-1.24133 5.564,-4.50533 5.564,-4.50533" fill-rule="nonzero" fill="#22434d"/>
  <path id="path380" d="m370.65733,116.00667c0,0 -11.6,8.4 -26.16133,9.03867l0.41333,12.96133c0,0 -13.57067,-25.00533 13.26933,-29.43333c26.84,-4.428 19.028,23.50133 19.028,23.50133c0,0 -0.832,-12.04666 -6.54933,-16.068" fill-rule="nonzero" fill="#1b3540"/>
  <path id="path382" d="m361.16933,137.36534l-0.07467,-1.12133c0.016,-0.00133 1.564,-0.12133 1.96667,-1.08c0.16667,-0.39467 -0.49333,-1.652 -1.076,-2.76267c-0.808,-1.54133 -1.812,-3.46133 -2.24,-5.59333l1.10133,-0.22c0.39467,1.97333 1.35867,3.81333 2.13334,5.29333c0.86266,1.64533 1.48666,2.83467 1.116,3.71867c-0.672,1.6 -2.83467,1.75867 -2.92667,1.76533" fill-rule="nonzero" fill="#dc4b44"/>
  <path id="path384" d="m376.95066,116.03867c-19.512,-8.468 -37.92666,9.08934 -37.92666,9.08934c0,0 -2.14667,-14.22667 1.61333,-17.55734c0.97733,-0.87333 2.028,-1.64266 3.124,-2.324c8.61467,-5.43333 20.07333,-5.32933 25.328,-3.464c1.08133,0.38534 1.90933,0.844 2.384,1.332c3.108,3.228 5.47733,12.924 5.47733,12.924" fill-rule="nonzero" fill="#cf2548"/>
  <path id="path386" d="m374.58133,112.87067c0,0 -16.38667,-3.24266 -31.664,6.868c0,0 -0.97733,-9.17733 0.844,-14.492c8.61467,-5.43333 20.07333,-5.32933 25.328,-3.464c3.064,3.49334 5.492,11.088 5.492,11.088" fill-rule="nonzero" fill="#d2dadc"/>
  <path id="path388" d="m340.63733,123.45467c0,0 2.59733,-11.03333 6.09733,-14.14133c5.82267,-5.16933 22.18134,-6.944 30.78,-3.836c8.59867,3.108 0,12.50267 0,12.50267c0,0 -13.704,-9.81733 -36.87733,5.47467" fill-rule="nonzero" fill="#9f2240"/>
  <path id="path390" d="m365.94133,196.77067c0,0 6.69733,10.37334 18.10267,16.476c0,0 14.268,-12.38533 32.768,-11.27066c0,0 -15.33334,27.664 -28.5,30.728c-6.91734,1.60933 -31.936,-14.95734 -31.936,-14.95734c0,0 4.99466,-17.60666 9.56533,-20.976" fill-rule="nonzero" fill="#f57559"/>
  <path id="path392" d="m341.27866,177.96401c6.128,-9.97734 20.268,4.772 25.08,15.30533c4.81067,10.53467 8.32267,12.768 8.32267,12.768c0,0 -14.12667,5.90267 -14.02667,16.49067c0,0 -32.75066,-22.792 -19.376,-44.564" fill-rule="nonzero" fill="#acbfc3"/>
  <path id="path394" d="m384.044,208.68934c0,0 8.60533,-8.44267 36.90133,-19.46133l-3.65467,-11.49334c3.24667,-4.27066 9.21467,-4.27066 9.21467,-4.27066c0,0 14.49733,20.47066 12.00133,26.58533c-1.55867,3.82 -31.79733,7.828 -54.46266,8.64" fill-rule="nonzero" fill="#ef5640"/>
  <path id="path396" d="m415.032,191.98667c0,0 0.224,-1.21066 1.26933,-2.68666c1.04533,-1.476 0.76267,-4.16267 1.13733,-4.99467c0.376,-0.83333 2.60134,-4.236 4.07867,-4.89867c1.47733,-0.66266 3.416,-1.74533 3.828,0.13067c0.412,1.87467 -2.64667,1.34267 -4.02,4.04c0,0 3.00533,-0.972 5.388,-0.408c2.384,0.56533 3.06,2.744 0.11467,2.672c-2.34934,-0.05867 -5.37467,1.61733 -5.37467,1.61733c0,0 3.06133,0.46 2.56667,1.87067c-0.68267,1.952 -4.416,0.75067 -8.988,2.65733" fill-rule="nonzero" fill="#f57559"/>
  <path id="path398" d="m205.75867,230.52801c2.52933,6.476 12.89066,17.57866 12.89066,17.57866c0,0 25.312,-15.17333 36.98934,-8.78933c11.67733,6.384 20.95733,10.27867 28.53066,7.49867c7.572,-2.78 -24.90133,-61.84 -24.90133,-61.84l-42.10534,-16.06667c0,0 -0.91866,10.64933 -5.72933,12.54133c-4.81067,1.892 -9.94,19.47067 -9.596,22.80134c0.344,3.33066 3.92133,26.276 3.92133,26.276" fill-rule="nonzero" fill="#3d6174"/>
  <path id="path400" d="m253.132,248.49334c0,0 -10.856,21.28133 -33.272,48.53733c0,0 -2.29734,32.412 -61.572,83.408l-6.20533,-4.88133c0,0 35.3,-55.29467 42.36,-72.248c7.06133,-16.95333 -3.90267,-32.48667 28.58,-75.368l30.10933,20.552" fill-rule="nonzero" fill="#ef5640"/>
  <path id="path402" d="m218.576,210.83201c-9.34667,17.904 -12.48267,40.79066 -12.48267,40.79066l-4.256,10.73734c0,0 15.096,8.14133 32.528,11.10266l6.992,-18.504l-22.78133,-44.12666" fill-rule="nonzero" fill="#61242f"/>
  <path id="path404" d="m267.32133,246.81601c0,0 4.628,23.43866 3.86533,58.72c0,0 18.23734,26.89333 3.18667,103.62399l-7.89467,0c0,0 -6.44933,-65.28266 -11.384,-82.97333c-4.93466,-17.68933 -23.156,-23.11733 -24.14266,-76.90266l36.36933,-2.468" fill-rule="nonzero" fill="#f57559"/>
  <path id="path406" d="m271.94933,271.97734c0,0 -14.848,2.66533 -41.00533,1.436l-0.41467,-2.94533l-0.10267,-0.756l-2.70933,-19.06667c0,0 -2.51733,-3.108 -5.108,-8.17067c-0.31067,-0.592 -0.60667,-1.2 -0.90267,-1.836c-3.52266,-7.50533 -6.64666,-18.416 -3.13866,-29.79866l5.52266,0.25066l0.76934,0.04534l18.47466,0.84266l0.784,0.04534l6.06934,0.28133l0.948,0.044l3.93733,0.17733c0,0 20.01466,18.016 16.44667,51.324l0.252,4.63334l0.02933,0.75466l0.148,2.73867" fill-rule="nonzero" fill="#872b39"/>
  <path id="path408" d="m224.86,211.13601c-0.51867,1.524 -4.012,12.83466 -2.25067,31.33866c-0.31067,-0.592 -0.60667,-1.2 -0.90267,-1.836c-1.31733,-16.92 1.71734,-27.47466 2.384,-29.548c0.088,-0.25066 0.13334,-0.36933 0.13334,-0.384l0.69466,0.25067c0,0.01467 -0.02933,0.07467 -0.05866,0.17867" fill-rule="nonzero" fill="#61242f"/>
  <path id="path410" d="m271.80133,269.23867c-5.25467,1.34667 -14.16667,1.71734 -22.63467,1.71734c-7.59333,0 -14.80266,-0.31067 -18.63733,-0.488l-0.10267,-0.756c6.64667,0.32666 24.144,1.00666 35.424,-0.22134l-0.72533,-11.91733c0.17733,-13.9 -4.02666,-25.772 -8.08267,-33.97333c-10.27333,-1.86534 -13.10133,-9.47467 -13.70799,-11.62134c-0.08934,-0.34 -0.13334,-0.54666 -0.13334,-0.56133l0.72534,-0.11867c0,0.01467 0.05866,0.28134 0.192,0.72534c0.66666,2.22 3.42,8.83733 12.49466,10.732c-2.73866,-5.344 -5.32933,-9 -6.42533,-10.45067c-0.32533,-0.444 -0.532,-0.696 -0.54667,-0.71067l0.56267,-0.47333c0.02933,0.02933 0.36933,0.444 0.932,1.228c3.43467,4.66267 15.02533,22.20533 14.72933,45.19467l0.72534,11.85733c1.96933,-0.236 3.73066,-0.532 5.18133,-0.91733l0.02933,0.75466" fill-rule="nonzero" fill="#61242f"/>
  <path id="path412" d="m233.97866,130.51867c-5.892,-3.244 -48.34933,13.40534 -48.34933,13.40534c0,0 -6.28133,11.20533 -2.36667,15.59733c3.916,4.39333 17.808,2.456 22.064,0c4.256,-2.456 15.52934,-4.31333 15.52934,-4.31333l13.12266,-24.68934" fill-rule="nonzero" fill="#91c1df"/>
  <path id="path414" d="m271.524,95.17334c0,0 8.77066,3.38533 11.97866,13.48933c3.208,10.104 -6.38266,35.68534 -3.068,47.444c3.31467,11.75867 2.8,33.96267 -7.552,38.65067c-10.352,4.688 -31.58133,-3.7 -36.14,-16.53067c-4.55866,-12.82933 -2.59066,-61.43333 6.17067,-77.96399c8.76133,-16.53067 26.50133,-8.20401 28.61067,-5.08934" fill-rule="nonzero" fill="#ef294d"/>
  <path id="path416" d="m261.44533,138.76801c2.31333,2.49333 8.26,-1.95067 8.26,-1.95067c0,0 -0.12133,22.04933 -6.52933,23.73867c-6.40667,1.69066 -22.74,-17.368 -22.068,-22.54934c0.672,-5.18133 15.208,-4.76933 20.33733,0.76134" fill-rule="nonzero" fill="#91c1df"/>
  <path id="path418" d="m236.74266,133.25334c0,0 6.48267,5.504 17.77467,8.12267c11.29333,2.61733 17.41333,-2.692 23.18933,4.58933c8.668,10.92933 -5.43466,31.07733 -12.856,41.51867c-2.76533,3.892 -8.604,14.688 -9.78266,25.04533c0,0 -19.59467,5.69333 -36.492,-1.69733l-1.26134,-24.03867c0,0 -10.652,-32.396 19.428,-53.54" fill-rule="nonzero" fill="#1b3540"/>
  <path id="path420" d="m257.00133,156.64134c0,0 8.95333,-21.33733 11.54533,-22.7c2.59334,-1.36267 9.168,1.908 10.48934,4.82667c1.32,2.91867 0,9.28533 0,9.28533c0,0 -7.06134,-8.06 -22.03467,8.588" fill-rule="nonzero" fill="#91c1df"/>
  <path id="path422" d="m299.884,246.81201c-4.07067,8.33333 -14.064,10.732 -14.064,10.732c0,0 -0.75467,-1.15467 -2.028,-3.22667c-0.13334,-0.208 -0.28134,-0.444 -0.41467,-0.68133c-7.86,-12.74534 -31.88667,-53.52934 -31.412,-74.74267c0.548,-25.34267 17.08267,-39.25867 17.08267,-39.25867c8.39333,1.99867 11.044,4.29334 11.044,4.29334c0,0 2.82666,14.41866 0.236,31.768c-2.59067,17.33466 -7.29734,21.924 -4.92934,23.22666c2.35334,1.288 0,3.87867 0,3.87867c0,0 13.93067,19.40667 16.536,25.44667c1.68667,3.93733 4.55867,10.62933 6.35067,14.804c0.11733,0.296 0.236,0.592 0.35467,0.85866c0.75466,1.76134 1.244,2.90134 1.244,2.90134" fill-rule="nonzero" fill="#6196b4"/>
  <path id="path424" d="m275.688,143.92401c0,0 -9.97467,7.39333 -4.164,18.68933l27.64533,28.62c-15.17333,16.16933 -16.67733,22.80667 -27.64533,30.26133l4.164,6.44667c0,0 38.41333,-29.52133 38.47066,-36.708c0.024,-3.076 -23.464,-40.28533 -38.47066,-47.30933" fill-rule="nonzero" fill="#f57559"/>
  <path id="path426" d="m270.91866,221.49601c0,0 -5.26933,0.58533 -8.588,1.41466c-3.31866,0.82934 -7.74266,1.65867 -7.88133,2.35067c-0.13733,0.69067 7.328,0 7.328,0c0,0 -6.08267,2.49867 -6.22133,3.46133c-0.13867,0.96267 7.74266,-0.696 7.74266,-0.696c0,0 -4.97733,3.04134 -4.70133,3.87067c0.27733,0.82933 6.408,-1.244 6.408,-1.244c0,0 -1.14,2.90267 -2.32267,4.28533c0,0 1.188,0.65334 3.59734,-2.024c2.41066,-2.676 6.25866,-1.81733 9.304,-4.192c3.04533,-2.376 -1.892,-7.584 -4.66534,-7.22666" fill-rule="nonzero" fill="#f57559"/>
  <path id="path428" d="m242.66933,136.80401c0,0 -7.588,4.904 -12.38,16.74666c-4.79333,11.84267 -19.91333,34.128 -23.456,39.88534c-3.54133,5.75866 -1.07467,37.092 -1.07467,37.092c0,0 -4.44133,-18.99734 -6.41466,-26.4c-1.97467,-7.40134 6.37333,-25.69067 7.628,-26.66134c1.25333,-0.97066 7.668,0.80534 6.43466,-6.62133c-1.23333,-7.42667 15.97867,-39.42533 20.572,-40.32667c0,0 7.36,1.38267 8.69067,6.28534" fill-rule="nonzero" fill="#6196b4"/>
  <path id="path430" d="m219.20533,138.40667c-0.13333,0.25067 -0.28133,0.50267 -0.45867,0.74c-1.71733,2.472 -4.91466,4.44134 -4.91466,4.44134c0,0 -5.78934,8.112 -5.848,9.044c-0.05867,0.8 -10.052,8.05333 -14.492,7.90533l-0.01467,0c-0.608,-0.01467 -1.11067,-0.17733 -1.46667,-0.50267c-2.63466,-2.488 8.972,-23.36 11.532,-27.86c0.16267,-0.29733 0.296,-0.51866 0.38534,-0.66666c0.05866,-0.11867 0.104,-0.192 0.104,-0.192c0,0 -2.044,-7.60934 6.484,-6.188c7.09066,1.16933 8.496,6.80933 9.23733,10.584c0.17733,0.90266 -0.07467,1.82133 -0.548,2.69466" fill-rule="nonzero" fill="#6196b4"/>
  <path id="path432" d="m189.432,146.29467c5.85733,-7.7 26.468,-22.63333 37.324,-27.05466l2.71466,5.04533c0,0 -20.97866,18.44267 -25.90666,26.33333c-4.928,7.88934 -11.03333,11.152 -16.86533,8.524c-5.83334,-2.62666 1.50133,-11.228 2.73333,-12.848" fill-rule="nonzero" fill="#f57559"/>
  <path id="path434" d="m217.16266,136.82267l-1.11066,1.27334l-0.56267,0.65066l-1.836,2.10267c0,0 -4.61867,5.59467 -4.44,7.84533c0.132,1.61334 -8.764,8.83734 -15.72133,11.84267c-2.828,1.22933 -5.344,1.76133 -6.81067,0.91733c-5.032,-2.90133 -3.908,-11.62 -1.05067,-17.52666c2.48667,-5.152 13.48667,-11.79867 16.31334,-13.42667c0.356,-0.22267 0.57733,-0.35467 0.652,-0.38533c0.01466,-0.01467 0.01466,-0.01467 0.01466,-0.01467l1.05067,-4.08533c0,0 3.83467,-2.30934 6.85467,-0.888c0,0 -6.66267,0.28133 -5.56667,2.872c1.12533,2.60533 10.36267,8.73333 12.21333,8.82266" fill-rule="nonzero" fill="#91c1df"/>
  <path id="path436" d="m241.35066,115.46134c-6.70533,2.75333 -5.744,8.82267 -11.88666,8.82267c-3.80534,0 -4.308,-4.352 -4.308,-4.352c1.71733,-3.716 2.812,-10.052 3.04933,-13.072c0.252,-3.02 1.25867,-1.85067 1.25867,-1.85067c0,-0.28133 -0.01467,-0.54667 -0.02934,-0.81333c-0.08933,-2.028 -0.46,-3.50933 0.87334,-2.63467c1.50933,0.976 2.028,6.72 2.028,6.72c1.24266,-8.37867 -0.60667,-9.62267 0.844,-8.88267c1.98266,1.008 1.99733,8.40934 1.99733,8.63067c1.59867,-4.87067 1.17067,-7.65333 2.28,-6.54267c1.12533,1.12534 -0.56267,10.06667 -1.228,13.35334c-0.148,0.74 -0.252,1.19866 -0.252,1.19866c5.31467,-2.60533 5.37333,-0.57733 5.37333,-0.57733" fill-rule="nonzero" fill="#f57559"/>
  <path id="path438" d="m236.22933,114.84001c-0.148,0.74 -0.252,1.19867 -0.252,1.19867c0,0 -2.45733,-0.23734 -4.248,2.41333c0,0 0.50267,-3.55334 4.5,-3.612" fill-rule="nonzero" fill="#ef5640"/>
  <path id="path440" d="m229.83333,111.02001c0.04533,-0.71067 0.34133,-4.78133 -0.36933,-6.01067c0,-0.28133 -0.01467,-0.54667 -0.02934,-0.81333c1.53867,0.32533 0.56267,5.96533 0.39867,6.824" fill-rule="nonzero" fill="#ef5640"/>
  <path id="path442" d="m233.99466,146.33601c0,0 4.532,-12.28267 5.97334,-15.024c1.44266,-2.74267 8.95066,-2.272 14.63333,-1.212c5.68267,1.06 6.844,8.668 6.844,8.668c0,0 -17.288,-8.15734 -27.45067,7.568" fill-rule="nonzero" fill="#91c1df"/>
  <path id="path444" d="m263.176,122.16267c0,0 -5.42934,10.02534 -5.34267,21.14267c0,0 -8.81867,5.99333 -11.97467,-1.51333c0,0 3.34934,-9.83467 1.73067,-23.11067c-1.084,-8.89067 15.58667,3.48133 15.58667,3.48133" fill-rule="nonzero" fill="#ef5640"/>
  <path id="path446" d="m245.85866,108.25201c0,0 -1.61333,-5.74667 -4.48533,-1.70667c-3.32667,4.68 0.064,9.22933 1.83867,8.144c1.77466,-1.08533 2.64667,-6.43733 2.64667,-6.43733" fill-rule="nonzero" fill="#f57559"/>
  <path id="path448" d="m271.49333,123.02934c0,0 5.74933,-1.60133 3.78533,2.94933c-2.27733,5.272 -7.92533,4.73067 -7.91733,2.65067c0.008,-2.08 4.132,-5.6 4.132,-5.6" fill-rule="nonzero" fill="#f57559"/>
  <path id="path450" d="m248.212,133.31601c-8.16934,-4.6 -9.77467,-12.532 -0.76267,-28.536c4.648,-8.25467 11.7,-10.952 20.84933,-5.8c9.14934,5.152 10.152,12.38533 5.50267,20.64c-9.68267,17.196 -17.15067,18.448 -25.58933,13.696" fill-rule="nonzero" fill="#f57559"/>
  <path id="path452" d="m267.88266,123.80534c-0.32,0.90133 -1.492,1.30933 -2.62,0.90933c-1.128,-0.39866 -1.78266,-1.45333 -1.464,-2.35466c0.31867,-0.90267 1.492,-1.30934 2.62,-0.91067c1.128,0.4 1.78267,1.45333 1.464,2.356" fill-rule="nonzero" fill="#dc4b44"/>
  <path id="path454" d="m250.828,114.79067c-0.52134,0.80134 -1.75734,0.92134 -2.76,0.268c-1.00134,-0.65466 -1.39067,-1.83333 -0.868,-2.63466c0.52266,-0.80134 1.75866,-0.92134 2.76,-0.268c1.00266,0.65333 1.39066,1.83333 0.868,2.63466" fill-rule="nonzero" fill="#dc4b44"/>
  <path id="path456" d="m269.052,113.45734c-0.21067,0 -0.40134,-0.14133 -0.45467,-0.35333c-0.46267,-1.82267 -2.48267,-2.896 -2.50267,-2.90533c-0.22933,-0.12 -0.31866,-0.404 -0.19866,-0.63334c0.11866,-0.228 0.4,-0.31866 0.632,-0.19866c0.09866,0.052 2.41333,1.28266 2.97733,3.508c0.064,0.24933 -0.088,0.50533 -0.33867,0.568c-0.03866,0.01066 -0.07733,0.01466 -0.11466,0.01466" fill-rule="nonzero" fill="#22434d"/>
  <path id="path458" d="m257.83333,105.47734c-0.08267,0 -0.16667,-0.02267 -0.24267,-0.068c-0.01866,-0.012 -1.988,-1.18133 -3.784,-0.63333c-0.248,0.07733 -0.50933,-0.06267 -0.584,-0.31067c-0.07466,-0.248 0.064,-0.50933 0.312,-0.58533c2.196,-0.67334 4.44667,0.67067 4.54134,0.728c0.22133,0.13333 0.292,0.42 0.15733,0.64267c-0.08667,0.14533 -0.24133,0.22666 -0.4,0.22666" fill-rule="nonzero" fill="#22434d"/>
  <path id="path460" d="m265.676,117.33467c-0.572,1.01467 -1.492,1.57867 -2.05467,1.26134c-0.564,-0.31734 -0.55733,-1.39734 0.01333,-2.41067c0.572,-1.01467 1.492,-1.58 2.05467,-1.26267c0.564,0.31734 0.55867,1.39734 -0.01333,2.412" fill-rule="nonzero" fill="#22434d"/>
  <path id="path462" d="m254.22266,111.19067c-0.572,1.01467 -1.492,1.58 -2.05466,1.26267c-0.564,-0.31733 -0.55734,-1.39733 0.01333,-2.412c0.572,-1.01333 1.492,-1.57867 2.056,-1.26133c0.56267,0.31733 0.556,1.39733 -0.01467,2.41066" fill-rule="nonzero" fill="#22434d"/>
  <path id="path464" d="m250.25466,121.60667c0,0 4.68667,3.57734 8.07334,3.68534c0,0 -3.60134,2.93333 -6.19067,1.03066c-2.588,-1.90266 -1.88267,-4.716 -1.88267,-4.716" fill-rule="nonzero" fill="#22434d"/>
  <path id="path466" d="m263.21333,115.28401c0,0 2.152,-2.08 3.032,-1.348c0.88,0.732 0.42,3.292 0.42,3.292l1.88133,0.048l-1.556,-0.62667c0,0 0.50134,-2.65867 -0.46666,-3.208c-1.37734,-0.78533 -3.31067,1.84267 -3.31067,1.84267" fill-rule="nonzero" fill="#22434d"/>
  <path id="path468" d="m255.10933,111.12401c0,0 0.66267,-2.91867 -0.42,-3.292c-1.08133,-0.37334 -3.03067,1.348 -3.03067,1.348l-1.01733,-1.58533l1.34267,1.00666c0,0 2.01333,-1.80666 2.98533,-1.26533c1.38533,0.772 0.14,3.788 0.14,3.788" fill-rule="nonzero" fill="#22434d"/>
  <path id="path470" d="m270.468,102.40134c0,0 -2.92667,-4.06667 -6.968,-0.83733c-4.04134,3.228 -13.15734,8.396 -17.64134,6.688c-4.48533,-1.70667 9.81067,-20.81334 22.22267,-15.21867c12.412,5.596 11.29467,23.80933 6.132,29.6c-5.16267,5.79067 -2.72,0.396 -2.72,0.396c0,0 0.344,-8.216 2.06933,-13.66c1.72534,-5.44533 -3.09466,-6.968 -3.09466,-6.968" fill-rule="nonzero" fill="#ef294d"/>
  <path id="path472" d="m256.71066,119.74401c-0.22666,0 -0.464,-0.03067 -0.708,-0.092l0.248,-0.98c0.83467,0.212 1.24534,-0.14667 1.44267,-0.484c0.27867,-0.47733 0.23867,-1.092 0.01867,-1.32267c-0.12934,-0.13467 -0.34934,-0.12133 -0.65867,0.04133l-0.46933,-0.89733c1.02933,-0.53867 1.64266,-0.06933 1.86,0.15867c0.556,0.58267 0.60933,1.69333 0.12266,2.52933c-0.39733,0.68 -1.064,1.04667 -1.856,1.04667" fill-rule="nonzero" fill="#dc4b44"/>
  <path id="path474" d="m316.53733,190.10001c-0.488,7.18 -18.252,30.55333 -21.21333,31.38266c-0.76934,0.208 -1.55467,0.63734 -2.29467,1.14c-0.31067,0.22267 -0.62133,0.45867 -0.91733,0.696c-1.688,1.36134 -2.96134,2.93067 -2.96134,2.93067c-5.18133,-0.34 -19.732,-7.076 -15.05466,-8.556c0.28133,-0.08933 0.592,-0.252 0.93333,-0.488c0.192,-0.13333 0.39867,-0.28133 0.60667,-0.47467c5.50666,-4.61866 16.224,-23.36 16.29866,-24.78c0.05867,-1.55466 1.90934,-1.85066 1.90934,-1.85066c0,0 -10.11067,-14.848 -15.97334,-16.63867c-5.86133,-1.792 -8.82266,-8.88267 -8.82266,-8.88267c-5.788,-24.5 11.044,-20.65066 11.044,-20.65066c12.40533,7.38666 36.93333,38.97733 36.44533,46.172" fill-rule="nonzero" fill="#91c1df"/>
  <path id="path476" d="m293.02933,222.62267c-0.31067,0.22267 -0.62133,0.45867 -0.91733,0.696c-7.94934,-0.548 -14.61067,-4.456 -17.08267,-6.11333c0.192,-0.13333 0.39867,-0.28133 0.60667,-0.47467c2.64933,1.732 9.42933,5.596 17.39333,5.892" fill-rule="nonzero" fill="#3d6174"/>
  <path id="path478" d="m219.20533,138.40667c-0.13333,0.25067 -0.28133,0.50267 -0.45867,0.74c-1.14,-0.044 -2.22133,-0.17733 -3.25733,-0.4c-5.25467,-1.06533 -9.296,-4.012 -11.94667,-6.572c-0.60666,-0.59333 -1.14,-1.15466 -1.59866,-1.67333c0.356,-0.22267 0.57733,-0.35467 0.652,-0.38533c0.384,0.42933 0.828,0.904 1.332,1.392c2.63466,2.59067 6.736,5.61067 12.124,6.588c1.00666,0.192 2.05733,0.296 3.15333,0.31067" fill-rule="nonzero" fill="#3d6174"/>
  <path id="path480" d="m298.64,243.91067c-2.44267,4.12934 -6.95734,9.11867 -14.848,10.40667c-0.13334,-0.208 -0.28134,-0.444 -0.41467,-0.68133c8.09733,-1.21334 12.584,-6.46934 14.908,-10.584c0.11733,0.296 0.236,0.592 0.35467,0.85866" fill-rule="nonzero" fill="#3d6174"/>
  <path id="path482" d="m163.91467,378.60667c0,0 -1.85067,1.82 -3.77467,5.16667c-1.92533,3.34533 0.192,6.424 -9.12,14.18133c0,0 -18.78533,-10.99866 -27.26733,-25.136c0,0 0.1484,-4.04133 4.24893,-4.98933c2.20573,-0.50267 8.2744,2.33867 14.10773,3.43467c0.828,0.148 1.65733,0.28133 2.472,0.34c1.02133,0.08933 2.028,0.104 2.98933,-0.01467c0.88934,-0.088 1.73334,-0.28133 2.51734,-0.60667l0.01466,0c1.984,-0.81466 3.55334,-2.428 4.36667,-5.25466c0,0 4.98933,2.84133 1.65867,7.65333c0,0 5.92133,-2.59067 7.78667,5.22533" fill-rule="nonzero" fill="#d2dadc"/>
  <path id="path484" d="m151.02,397.95467c0,0 -18.78534,-10.99867 -27.26734,-25.136c0,0 3.15307,-0.66667 5.7588,4.01067c2.60454,4.69333 23.03387,15.33733 21.50854,21.12533" fill-rule="nonzero" fill="#acbfc3"/>
  <path id="path486" d="m151.09466,375.72001c-1.52533,2.41199 -1.49466,-2.04267 -3.524,-4.13067c0.88934,-0.088 1.73334,-0.28134 2.51734,-0.60667l0.01467,0c0.90266,0.97733 2.19066,2.85733 0.99199,4.73733" fill-rule="nonzero" fill="#acbfc3"/>
  <path id="path488" d="m145.188,375.85334c-1.61333,1.524 -2.132,-2.45733 -3.07867,-4.58934c0.828,0.14801 1.65733,0.28134 2.472,0.34c0.94667,1.288 1.836,3.08 0.60667,4.24934" fill-rule="nonzero" fill="#acbfc3"/>
  <path id="path490" d="m279.484,427.4136l-26.572,0c0,0 -1.10934,-3.7016 0,-7.77239c0.47466,-1.76094 3.228,-3.40374 5.788,-5.69854c0.71066,-0.63733 1.392,-1.30267 2.028,-2.05866c0.504,-0.592 0.96266,-1.24267 1.348,-1.93867c0.488,-0.844 0.87333,-1.76134 1.09466,-2.768c0.42934,-2.01334 0.26667,-4.38267 -0.888,-7.224c0,0 9.04534,-1.89467 12.272,3.03466c0,0 0.31067,-2.28 3.18267,-0.756c0,0 -0.41467,4.57467 0.148,8.40934c0.56267,3.81866 4.13067,4.92946 1.59867,16.77226" fill-rule="nonzero" fill="#d2dadc"/>
  <path id="path492" d="m272.57066,411.41067c-0.236,0.26667 -0.56133,0.4 -0.888,0.4c-0.28133,0 -0.54666,-0.08933 -0.784,-0.26667c-1.37733,-1.096 -4.412,-2.79733 -8.82266,-1.59866c0.488,-0.844 0.87333,-1.76134 1.09466,-2.768c1.77734,-0.652 5.12267,-1.036 9.252,2.48666c0.53334,0.444 0.608,1.228 0.148,1.74667" fill-rule="nonzero" fill="#acbfc3"/>
  <path id="path494" d="m270.336,415.82241l-0.148,0.22133c-0.35467,0.5484 -1.06534,0.7256 -1.628,0.4c-1.80667,-1.06507 -5.86267,-3.0784 -9.86,-2.50107c0.71066,-0.63733 1.392,-1.30267 2.028,-2.05867c1.96933,-0.45866 5.68533,-0.71066 9.34133,2.324c0.47333,0.4 0.60667,1.096 0.26667,1.6144" fill-rule="nonzero" fill="#acbfc3"/>
 </g>
</svg>