<svg xmlns="http://www.w3.org/2000/svg" xmlns:xlink="http://www.w3.org/1999/xlink" viewBox="0 0 140 140"><defs><clipPath id="a"><rect width="140" height="140" style="fill:none"/></clipPath></defs><g style="clip-path:url(#a)"><path d="M69.1408,100.0721a.9317.9317,0,0,0,1.7216,0c2.858-6.88,6.0125-13.954,6.0125-13.954A3.6722,3.6722,0,0,1,79.28,83.9614a34.0381,34.0381,0,1,0-18.5576,0,3.6961,3.6961,0,0,1,2.4129,2.1564S66.28,93.192,69.1408,100.0721Z" style="fill:#1f7acc"/><path d="M42.9342,121.9962h.6928a.1226.1226,0,0,0,.0958-.0547l2.8628-4.6867,1.557,5.3623a.0874.0874,0,0,0,.0809.0614h3.0053a.043.043,0,0,0,.0447-.059l-3.169-10.0338a.0939.0939,0,0,0-.0835-.0612H46.8928a.1258.1258,0,0,0-.0982.0547l-3.86,5.9831-3.8595-5.9831a.1278.1278,0,0,0-.0988-.0547H37.8478a.0938.0938,0,0,0-.0833.0612L34.5957,122.62a.0428.0428,0,0,0,.0448.059h3.0043a.087.087,0,0,0,.0814-.0614l1.5569-5.3623,2.8631,4.6867a.1213.1213,0,0,0,.096.0547Z" style="fill:#005aac"/><path d="M34.7322,116.9991v-.0024a.0655.0655,0,0,0-.0631-.05h-8.56a.82.82,0,0,0,0,1.6405h5.0869c-.606,1.6007-2.6555,2.777-5.0869,2.777-2.9109,0-5.2693-1.684-5.2693-3.7617s2.3584-3.7634,5.2693-3.7634a6.3035,6.3035,0,0,1,3.98,1.2991l.01.0089a.0614.0614,0,0,0,.0353.0084h3.4979a.0641.0641,0,0,0,.0643-.0633.0569.0569,0,0,0-.0152-.0393l-.005-.0067c-1.49-1.5878-4.32-2.6569-7.5671-2.6569-4.7948,0-8.682,2.3338-8.682,5.2132s3.8872,5.214,8.682,5.214,8.68-2.3334,8.68-5.214a3.25,3.25,0,0,0-.0571-.6031" style="fill:#005aac"/><path d="M59.76,112.3888c-4.7941,0-8.68,2.3338-8.68,5.2137s3.8859,5.2135,8.68,5.2135,8.682-2.3331,8.682-5.2135-3.8874-5.2137-8.682-5.2137m0,8.9752c-2.909,0-5.2683-1.684-5.2683-3.7615s2.3593-3.7639,5.2683-3.7639c2.911,0,5.2708,1.6862,5.2708,3.7639s-2.36,3.7615-5.2708,3.7615" style="fill:#005bac"/><path d="M105.04,122.5167a.1485.1485,0,0,0,.15.1616h1.8129a.1782.1782,0,0,0,.1743-.1616l.3113-4.1517a.1486.1486,0,0,0-.15-.1615h-1.8129a.178.178,0,0,0-.1743.1615Z" style="fill:#393c41"/><path d="M115.5315,118.2035a.1483.1483,0,0,0-.15.1615l.3147,4.1518a.1781.1781,0,0,0,.1743.1615h1.8131c.0891,0,.2589-.0727.2521-.1615l-.4173-4.1518a.1778.1778,0,0,0-.1742-.1615Z" style="fill:#393c41"/><path d="M117.4587,116.1472a.1625.1625,0,0,0,.162-.162V114.24a.1625.1625,0,0,0-.162-.162h-4.8476a.1625.1625,0,0,1-.1621-.162v-1.23a.1625.1625,0,0,0-.162-.162h-1.7449a.1626.1626,0,0,0-.1621.162v1.23a.1624.1624,0,0,1-.162.162h-4.8131a.1625.1625,0,0,0-.162.162v1.7448a.1625.1625,0,0,0,.162.162h4.8131a.1623.1623,0,0,1,.162.162v6.2071a.1626.1626,0,0,0,.1621.162h1.7449a.1625.1625,0,0,0,.162-.162v-6.2071a.1624.1624,0,0,1,.1621-.162Z" style="fill:#393c41"/><rect x="118.6327" y="112.3887" width="1.5534" height="2.7122" rx="0.162" style="fill:#3e6f99"/><rect x="121.0193" y="112.3887" width="1.5534" height="2.7122" rx="0.162" style="fill:#3e6f99"/><path d="M71.1291,119.6206a.11.11,0,0,0,0,.1544l1.3085,1.3084a.11.11,0,0,0,.1546,0l4.743-4.743a.1092.1092,0,0,1,.1544,0l6.1945,6.2058a.1092.1092,0,0,0,.1543,0l1.3085-1.3085a.11.11,0,0,0,0-.1543l-7.6559-7.67a.1093.1093,0,0,0-.1543,0Z" style="fill:#393c41"/><path d="M83.832,115.4454a1.5284,1.5284,0,1,0-1.5283-1.5283,1.5282,1.5282,0,0,0,1.5283,1.5283" style="fill:#3e6f99"/><path d="M88.6049,122.57a.0947.0947,0,0,0,.0961.1084h2.01a.1265.1265,0,0,0,.1223-.1084l1.087-9.0371a.0946.0946,0,0,0-.0963-.1083h-2.01a.1264.1264,0,0,0-.1221.1083Z" style="fill:#393c41"/><path d="M96.7468,113.4244a.0948.0948,0,0,0-.0961.1084l1.0969,9.0371a.1267.1267,0,0,0,.1223.1086h2.01a.0948.0948,0,0,0,.096-.1086l-1.0968-9.0371a.1269.1269,0,0,0-.1223-.1084Z" style="fill:#393c41"/><path d="M101.8277,112.3887a1.5284,1.5284,0,1,0,1.5283,1.5283,1.5282,1.5282,0,0,0-1.5283-1.5283" style="fill:#3e6f99"/></g></svg>