<svg width="4144" height="2165.6667" xmlns="http://www.w3.org/2000/svg">
 <metadata id="metadata8">image/svg+xml</metadata>

 <g>
  <title>background</title>
  <rect fill="none" id="canvas_background" height="2167.6667" width="4146" y="-1" x="-1"/>
 </g>
 <g>
  <title>Layer 1</title>
  <g id="g10" transform="matrix(1.3333333,0,0,-1.3333333,0,2666.6667) ">
   <g id="g12" transform="translate(-239.09005737304688,192.20965576171875) scale(0.10000000149011612) ">
    <g id="g14" transform="scale(2.208590030670166) ">
     <path fill="#ffffff" fill-rule="nonzero" d="m16300,0l-16300,0l0,9055.56l16300,0l0,-9055.56" id="path16"/>
    </g>
    <g id="g18" transform="scale(2.0167500972747803) ">
     <path fill="#ebf2f9" fill-rule="nonzero" d="m13580.7,1025.12c0,0 1567.4,-152.428 2036.9,783.93c682.4,1361.15 -672.9,2430.7 -1678.3,2235.43c-1041.3,-202.26 -1468.4,752.15 -2007.6,1706.53c-595.2,1053.68 -1326.8,2107.35 -3171.66,1604.58c-306.28,-83.46 -773.97,12.51 -1295.8,108.47c-1162.91,213.84 -2594.84,427.68 -3109.07,-1343.66c-177.15,-610.25 -804.81,-677.45 -1715.96,-1064.66c-1783.208,-757.83 -967.85,-4043.42 306.32,-4056.309c1274.17,-12.892 10635.17,25.689 10635.17,25.689" id="path20"/>
    </g>
    <g id="g22" transform="scale(1.0859500169754028) ">
     <path fill="#adcbf9" fill-rule="nonzero" d="m14544.9,9604.61c-196.4,-197.01 -412.8,-368.02 -646.5,-512.21c-565.9,413.68 -1170.6,767.88 -1800.6,1054.5c86.6,158.7 172,326.4 255.3,501.4c576.9,-76.4 1131.3,-122.3 1637.5,-134.1c132.1,-3.8 260.4,-3.8 384.9,-2.9c322.7,3.8 609.9,23 855.9,57.5c-172.2,-357.2 -403,-680.79 -686.5,-964.19zm-1128.7,-761.21c-438.5,-185.73 -902.9,-279.57 -1382.6,-279.57c-369.5,0 -730.5,55.8 -1077.3,166.31c262.8,137.66 526.9,454.07 730.2,745.57c104.9,150.35 209.7,316.74 313.2,496.33c596.5,-270.16 1170.1,-602.14 1708.9,-988.76c-95,-50.83 -192.4,-97.52 -292.4,-139.88zm-3528.36,2652.21c-8,19 -15.79,38 -23.44,57.1c273.38,-11 780.2,-52.3 1427.6,-199.7c46.4,-10.6 92.6,-21.6 138.9,-32.9c-33.3,-194.3 -57.9,-380 -73.1,-554.6c-28.7,-330.62 -30.8,-711.81 61.4,-984.1c-280.7,158.02 -538.22,353.39 -769.26,584.41c-326.46,326.48 -583.06,706.59 -762.1,1129.79zm-125.43,803.3c91.92,-34.5 185.75,-68.9 282.45,-102.4c444.48,-154.1 942.85,-297.3 1475.84,-424.3c-19.3,-86.3 -37.2,-171.5 -53.6,-255.2c-43.6,10.5 -87.1,20.9 -130.8,30.8c-736.82,167.7 -1289.83,201.9 -1546.17,207.6c-63.49,191.3 -110.18,386.9 -139.73,586.6c37.33,-14.4 74.68,-28.7 112.01,-43.1zm-515.1,406.9c-678.84,331.3 -989.04,651.1 -850.21,878c112.02,183.8 519.89,308.3 1144.14,354.2c-76.59,-258.5 -123.51,-525.6 -141.7,-796.6c-5.74,-80.4 -8.62,-160.8 -9.57,-242.2l0,-21.1c0,-81.3 2.87,-162.7 7.66,-243.1c-51.71,22.9 -101.49,46.9 -150.32,70.8zm640.53,1554.9c31.6,72.8 64.15,144.6 99.57,214.5l0.09,0.1c438.86,-548.4 1085.57,-1109.1 1841.3,-1595.4c-107.2,-326.2 -198.5,-646.7 -272.4,-953.8c-549.72,133 -1059.23,283.5 -1505.8,444.6c-93.82,33.5 -184.77,68 -271.91,102.4c-51.7,20.2 -102.45,41.2 -152.23,62.3c-7.66,76.6 -13.41,154.1 -15.32,231.7c-0.96,37.3 -1.92,73.7 -1.92,111c0,43.1 0.96,87.2 1.92,130.3c12.45,322.6 67.02,637.6 162.77,942.1c16.27,51.7 33.51,102.4 52.65,153.2c19.15,52.6 39.27,105.3 61.28,157zm-196.21,1725.9c115.5,183.4 373.59,278 736.02,278c173.3,0 370.64,-21.6 587.5,-65.7c82.33,-16.6 166.35,-36.3 251.95,-58.8l0.2,-0.1c-281.43,-162.7 -539.82,-361.8 -772.43,-595.4c-48.81,-47.8 -95.77,-97.6 -141.72,-149.3c-57.43,-63.2 -112.01,-129.3 -164.67,-196.3c-84.25,-107.2 -161.81,-219.3 -233.62,-334.2l-0.17,-0.2c-320.24,475.4 -416.5,878.6 -263.06,1122zm3470.67,444.6c246.1,0 488.1,-24.7 724.7,-73.9c-279,-121.5 -563.9,-459.6 -780.2,-769.6c-221.4,-317.3 -442.4,-705.6 -651.2,-1140.4c-140.9,76.6 -274.1,159.2 -399.2,248c-593.7,421.3 -855.4,875.5 -950.55,1080.6c145.65,103.6 298.85,196.1 458.85,276.9l0.2,-0.1c65.2,32.9 131.7,63.7 199.2,92.6c4.9,2.1 9.7,4.3 14.7,6.3c1.1,0.6 2.3,1 3.4,1.5c14.4,6.1 28.8,12 43.3,17.8c4,1.6 7.9,3.2 11.7,4.7c420.3,169.5 866.5,255.6 1325.1,255.6zm2511.3,-1040.7c326.6,-326.5 583.1,-706.6 762.2,-1129.8c63.9,-151.2 116.8,-305.7 158.9,-463c-818.9,-59.9 -1569.3,-41 -2240.1,56c106.5,434.9 178.1,844.1 209.6,1205.4c34.7,399.1 30.5,871.7 -131.3,1137.7c37.5,-14.4 74.9,-29.4 112,-45.2c423.1,-179 803.2,-434.6 1128.7,-761.1zm-1950.6,-1621.9c124.8,-29 253,-54.7 384.1,-77.5c-92.2,-346.6 -205.6,-707.5 -337.8,-1072c-50.9,-140.4 -103.7,-278.7 -157.9,-414.3c-496.5,182.3 -1023.5,443.1 -1541.7,765.2c26.8,78.2 54.4,156.8 83,235.5c122.7,338.6 256.1,664.5 395.9,969.6c352.1,-170.6 744.8,-306.7 1174.4,-406.5zm428.2,2425.3c108.9,-39.5 164.2,-195.9 191.4,-320.1c43.1,-196.3 50.8,-472 22.5,-797.4c-30.9,-356.1 -102.3,-760.6 -208.4,-1191.3c-128.2,22.1 -253.4,47 -375.2,75.1c-421.3,96.8 -805.3,229.3 -1148.2,395.8c204.6,426.7 421,807.3 637.3,1117.4c186.8,267.8 369.6,474.5 528.5,597.6c82.8,64.2 194.4,133 292.1,133c20.7,0 40.8,-3.2 60,-10.1zm-3208.43,-541.2c32.69,-67.1 77.9,-150.2 138.77,-244.3c259.66,-401.3 602.56,-692.2 844.56,-865.6c139,-99.5 287.3,-191.8 444.5,-276.7c-143.5,-312.5 -280.2,-646.1 -405.8,-992.5c-23.4,-64.6 -46.2,-129.1 -68.4,-193.4c-750.4,488.4 -1385.69,1048.9 -1802.39,1591.3l-0.17,0.2c104.33,178 223.96,346.4 357.93,504.3c55.53,65.1 112.99,128.3 173.31,189.6c8.56,8.6 16.3,16.3 24.86,24.9c93.19,93.2 190.98,180.5 292.83,262.2zm1254.43,-3869.9c-151.1,31.1 -300.1,63.6 -446.4,97.3c68.9,286.7 153.5,585.6 252.3,890.1c513.7,-315.7 1036,-572.5 1530.6,-754.8c-62,-148.1 -125.8,-292.6 -190.8,-432.4c-375.7,53.9 -760.1,120.8 -1145.7,199.8zm845.9,-793.6c-450.6,194.2 -914.1,354.7 -1382.1,478.6c16.5,85 34.6,171.4 54.3,259.1c130.1,-29.6 262,-58.2 395.8,-85.8c391,-80 781.1,-147.9 1163.1,-202.8c-75.7,-156.5 -152.9,-306.5 -231.1,-449.1zm-2401,-2119.75c-108.9,39.6 -164.3,195.96 -191.4,320.18c-43,196.28 -50.8,472.01 -22.5,797.35c14.3,164.51 37.3,339.51 68.2,522.41c446.5,-119 888.8,-272 1319.4,-456.5c-96.9,-167.21 -195,-322.29 -293.1,-462.87c-186.8,-267.84 -369.6,-474.52 -528.5,-597.54c-100.4,-77.91 -243.2,-162.44 -352.1,-123.03zm7067.9,3989.49c-255.7,-46 -574.4,-72.8 -946.9,-76.6c-578,-7.1 -1241.6,38.6 -1941.1,130.8c58.8,128.1 116.5,259.8 172.8,394.4c217.1,-72.6 427.7,-130.1 628.6,-170.9c230.1,-46.7 440.2,-69.8 627.7,-69.8c439.4,0 754.2,126.9 909.7,373.7c25.6,40.7 46.5,83.8 62.5,129.3l-223.9,0c-3.8,-6.8 -7.7,-13.6 -11.8,-20.1c-115.6,-183.4 -373.6,-278.1 -736.1,-278c-173.3,0 -370.6,21.7 -587.5,65.7c-188.9,38.3 -387.2,92.2 -591.5,160c53.8,135 106.3,272.5 157,412.1c136.5,376.5 253.4,749.7 348,1108.1c430.9,-63.5 893.5,-95.4 1384.9,-95.4c306,0 623.4,12.3 951.1,37c48.6,-235.9 73.2,-477.3 73.2,-722.6c0,-477.7 -92.8,-941.1 -276.7,-1377.7zm-3766,-1252.24l-292,6.7c93.9,-121.6 115,-233.6 56.6,-328.4c-58.5,-96.7 -198.3,-176.1 -406.9,-236.5c157.9,420.4 237.4,863.7 237.4,1318.4c0,509.4 -99.6,1003.5 -296.8,1467.8c-189.6,449.1 -461.5,853.1 -808.1,1198.7c-346.6,346.6 -749.7,618.5 -1198.8,809.1c-465.3,196.3 -959.3,295.8 -1467.7,295.8c-509.3,0 -1003.4,-99.5 -1468.8,-295.8c-55.5,-24 -111,-48.9 -164.6,-74.7l-0.5,-0.3c-162.2,49.5 -320.1,90.1 -472.64,121c-769.48,156.2 -1315.56,48.2 -1537.37,-303.9c-211.09,-334.9 -96.17,-839 322.69,-1427l-0.15,-0.2c-56.5,-104.4 -107.24,-211.6 -154.15,-322.7c-35.43,-83.3 -67.02,-166.6 -95.75,-251.8c-787.02,-46.9 -1208.3,-185.4 -1361.48,-436.3c-178.1,-292 65.1,-683.9 843.5,-1065c107.24,-52.6 222.14,-104.3 342.77,-156c40.22,-353.3 131.17,-697.1 270.96,-1026.4c189.57,-449.1 461.48,-853.09 808.09,-1199.69c346.61,-345.6 749.63,-617.53 1198.63,-808.05c465.4,-196.33 959.5,-295.87 1468.8,-295.87c508.4,0 1002.4,99.54 1467.7,295.87c449.1,190.52 852.2,462.45 1198.8,808.05c337,337.02 604.1,729.59 792.8,1164.29c383.9,79.4 636.7,203.9 737.2,368.6c69.9,113.9 61.2,240.3 -20.2,374.3" id="path24"/>
    </g>
    <g id="g26" transform="scale(1.6413899660110474) ">
     <path fill="#acd29a" fill-rule="nonzero" d="m15764.2,1905.09c-53.3,206.41 -413.1,46.55 -709.4,-126.72c-13.9,21.87 -28.2,43.5 -42.9,64.88c212.2,131.6 510.1,350.44 396.7,483.68c-112,131.53 -330.9,-166.39 -467.9,-386.08c-366.8,476.06 -910.8,814.92 -910.8,814.92c0,0 2270.1,1886.2 573.8,2881.21c-1696.3,995.08 -2985,-2506.16 -2985,-2506.16c0,0 -1159.2,1073.35 -2265.97,676.92c-1136.6,-407.09 -426.28,-1161.57 -1413.37,-1365.61c-116.19,444.99 -331,1072.51 -624.78,1109.31c-387.9,48.55 -224.69,-436.95 364.82,-1146.22c-114.3,-10.3 -244.43,-15.54 -393.21,-15.11c-1583.11,4.75 -1176.86,-1135.14 -1176.86,-1135.14l9153.17,-21.08c-12.4,112.16 -45.1,222.44 -92,329.23c313.5,49.23 643.8,147.5 593.7,341.97" id="path28"/>
    </g>
    <g id="g30" transform="scale(1.2846800088882446) ">
     <path fill="#d86713" fill-rule="nonzero" d="m14090.6,8030.48l-510,-6063.92c0,0 -53.4,-367.64 220,-368.26c449.6,-1.1 2237.6,0 2237.6,0c0,0 -338.3,76.51 -334.2,248.7c4.8,202.93 596,6240.87 596,6240.87l-2209.4,-57.39" id="path32"/>
    </g>
    <g id="g34" transform="scale(1.2963999509811401) ">
     <path fill="#ee9849" fill-rule="nonzero" d="m16037,1692.84c-87.6,-0.23 -1780,-5.55 -2213.9,0c-189,2.39 -222.1,168.16 -223.7,275.38c-0.8,51.45 5.7,89.48 5.7,89.48l13.2,156.2l33.4,398.1l29.7,351.67l38,451.95l32,381.44l359.1,4269.93l2189.5,56.81c0,0 -246.8,-2504 -421.3,-4326.74c-19.5,-203.11 -38.1,-397.8 -55.3,-579.61c-5.5,-58.01 -10.8,-114.78 -16,-170.01c-16.2,-172.47 -31,-330.84 -43.9,-470.61c-6.8,-73.74 -13,-142.16 -18.7,-204.95c-22.2,-245.76 -35.3,-402.73 -35.5,-432.58c-0.1,-17.44 1.5,-33.64 4.3,-48.68c36,-191.53 290.5,-197.78 323.4,-197.78" id="path36"/>
    </g>
    <g id="g38" transform="scale(1.6917500495910645) ">
     <path fill="#f1a34f" fill-rule="nonzero" d="m6625.49,8603.95l943.34,-3789.18l129.15,-518.99l439.37,-1764.92l8162.65,0l-1619.4,6073.09l-8055.11,0" id="path40"/>
    </g>
    <path fill="#ee9849" fill-rule="nonzero" d="m11208.7,14555.8l-221.2,-73.7l2484.9,-10423.5l294,223l-2557.7,10274.2" id="path42"/>
    <g id="g44" transform="scale(1.6917500495910645) ">
     <path fill="#d86713" fill-rule="nonzero" d="m7963.57,2399.05l8112.43,0l224,131.81l-8162.65,0l-173.78,-131.81" id="path46"/>
    </g>
    <g id="g48" transform="scale(1.3044999837875366) ">
     <path fill="#f1a34f" fill-rule="nonzero" d="m14022.1,1679.95l0,-108.24l2277.9,0l0,108.24l-2277.9,0" id="path50"/>
    </g>
    <g id="g52" transform="scale(1.2581599950790405) ">
     <path fill="#d86713" fill-rule="nonzero" d="m16300,3225.9l-12.2,-85.84l-2221.1,-448.67l30.5,362.36l14.5,172.15l2188.3,0" id="path54"/>
    </g>
    <g id="g56" transform="scale(1.275480031967163) ">
     <path fill="#e58433" fill-rule="nonzero" d="m15106,1718.17l-511.8,0c-233.1,0.24 -431,1.02 -544.4,2.43c-192.2,2.43 -225.8,170.92 -227.4,279.9l2180.6,410.27c-22.6,-249.79 -35.9,-409.33 -36.1,-439.68c0,-0.54 0,-1.09 0,-1.64c0,-17.09 1.5,-33.01 4.4,-47.83c36.5,-194.67 295.2,-201.02 328.7,-201.02c-50.5,-0.16 -625.3,-1.96 -1194,-2.43" id="path58"/>
    </g>
    <g id="g60" transform="scale(1.1820600032806396) ">
     <path fill="#e78b37" fill-rule="nonzero" d="m16005.1,1853.81c-88.7,0 -175,0.08 -257.4,0.16l0,0l552.3,0c-99.2,-0.08 -198.4,-0.16 -294.9,-0.16" id="path62"/>
    </g>
    <g id="g64" transform="scale(1.2167199850082397) ">
     <path fill="#e78b37" fill-rule="nonzero" d="m11314.3,3518.96l0,0l-610.9,2453.97l5596.6,-744.55l-4985.7,-1709.42" id="path66"/>
    </g>
    <g id="g68" transform="scale(1.6593300104141235) ">
     <path fill="#699dee" fill-rule="nonzero" d="m6754.97,8772.11l8212.53,0l1332.5,-4976.23l-8306.21,0l-1238.82,4976.23" id="path70"/>
    </g>
    <g id="g72" transform="scale(1.2930400371551514) ">
     <path fill="#d86713" fill-rule="nonzero" d="m16269.5,4063.92c-30.4,156.61 -182,283.6 -338.6,283.6c-156.6,0 -259,-126.99 -228.5,-283.6c30.4,-156.61 182.1,-283.59 338.7,-283.59c156.6,0 258.9,126.98 228.4,283.59" id="path74"/>
    </g>
    <g id="g76" transform="scale(1.6198999881744385) ">
     <path fill="#e9f3fe" fill-rule="nonzero" d="m16300,4109.15l-7876.62,0l-891.97,3553.49l-68.4,272.5l-58.34,232.44l-136.8,545.01l7763.03,0l150.3,-545.01l64,-232.44l75.2,-272.5l979.6,-3553.49" id="path78"/>
    </g>
    <g id="g80" transform="scale(1.5087100267410278) ">
     <path fill="#afcdfb" fill-rule="nonzero" d="m16300,8769.52l-8349.61,0l-146.88,585.18l8335.19,0l161.3,-585.18" id="path82"/>
    </g>
    <path fill="#e9f3fe" fill-rule="nonzero" d="m12376.2,13824.9c-60.9,0 -98,-49.5 -82.8,-110.4c15.2,-61 76.9,-110.4 137.9,-110.4c60.9,0 98,49.4 82.8,110.4c-15.2,60.9 -76.9,110.4 -137.9,110.4" id="path84"/>
    <path fill="#e9f3fe" fill-rule="nonzero" d="m12742.9,13824.9c-60.9,0 -98,-49.5 -82.8,-110.4c15.2,-61 76.9,-110.4 137.9,-110.4c60.9,0 98,49.4 82.8,110.4c-15.2,60.9 -76.9,110.4 -137.9,110.4" id="path86"/>
    <path fill="#e9f3fe" fill-rule="nonzero" d="m13275.7,13714.5c-15.2,60.9 -76.9,110.4 -137.9,110.4c-60.9,0 -98,-49.5 -82.8,-110.4c15.2,-61 76.9,-110.4 137.8,-110.4c61,0 98.1,49.4 82.9,110.4" id="path88"/>
    <path fill="#fca56b" fill-rule="nonzero" d="m6934.31,12383.2c0,0 39.06,122.8 -22.23,233.4c-61.28,110.6 37.72,187.3 12.74,220.7c-24.98,33.4 -187.96,30 -243.58,-130.6c-55.63,-160.5 38.35,-341.6 38.35,-341.6l214.72,18.1" id="path90"/>
    <path fill="#e58638" fill-rule="nonzero" d="m6250.43,11499.8c115.62,-34.5 234.74,42.3 250.91,159.3l162.29,706c0,0 33.85,54.7 150.84,49.9c127.38,-5.2 161.83,-68.3 161.83,-68.3c0,0 78.78,-1242.8 -289.15,-1418.2c-367.93,-175.4 -784.53,675 -436.72,571.3" id="path92"/>
    <path fill="#163560" fill-rule="nonzero" d="m7013.2,2061.1l-1036.3,0c-73.7,66.7 -98,459.1 -98,459.1c0,0 321.3,289.5 426.3,60.4c99.8,-217.7 375.6,-333.5 540.3,-362.2c141.9,-24.7 164.3,-128.8 167.7,-157.3" id="path94"/>
    <path fill="#163560" fill-rule="nonzero" d="m5757.9,2061.1l-1036.3,0c-73.7,66.7 -98.1,459.1 -98.1,459.1c0,0 321.3,289.5 426.3,60.4c99.8,-217.7 375.6,-333.5 540.3,-362.2c141.9,-24.7 164.4,-128.8 167.8,-157.3" id="path96"/>
    <path fill="#163560" fill-rule="nonzero" d="m6503.08,7486.2c0,0 -147.42,-942.8 -697.32,-2616.4c-549.9,-1673.6 -624.84,-2398.3 -624.84,-2398.3l-589.91,16.5c0,0 -5.03,1829.1 248.39,2670.6c253.43,841.6 54.7,3034.1 54.7,3034.1l1608.98,-706.5" id="path98"/>
    <path fill="#1c468a" fill-rule="nonzero" d="m6790.14,8141c0,0 20.88,-1420.7 -224.93,-3165.1c-245.82,-1744.4 -162.49,-2484.8 -162.49,-2484.8l-588.73,-19.6c0,0 -351.83,1745 -250.96,2618.1c100.88,873.1 -481.78,2996 -481.78,2996l1708.89,55.4" id="path100"/>
    <path fill="#ffb27d" fill-rule="nonzero" d="m5650.45,11465.7l277.68,-205.7l401.3,84.5c-5.55,36.6 -32.05,188.3 -56.17,325.7c-1.46,8.1 -2.92,16.2 -4.28,24.1c-20.67,116.9 -38.51,217.3 -38.51,217.3l-374.82,186.8l-139.74,69.7c0.36,-2.5 10.83,-129.8 12.29,-148.3c26.22,-330 -77.75,-554.1 -77.75,-554.1" id="path102"/>
    <path fill="#ee9849" fill-rule="nonzero" d="m6301.35,11569.4c-8.8,3.8 -545.91,162.3 -604.26,143c-58.34,-19.3 -92.89,-132.2 -92.89,-132.2l878.53,-198.6c0,0 -69.15,140.6 -181.38,187.8" id="path104"/>
    <path fill="#ee9849" fill-rule="nonzero" d="m4855.03,7965.6c91.04,-415.3 1606.22,-464.6 1996.79,-87.6c44.43,43 46.61,242.9 29.86,512.5c-32.77,526.7 -138.01,1318.9 -142.11,1723.7c-2.01,195.5 -28.86,395.4 -64.64,576.9c-76.11,386.9 -192.19,690.6 -192.19,690.6c0,0 -740.07,239.2 -878.54,198.5c-667.14,-196 -840.22,-3199.2 -749.17,-3614.6" id="path106"/>
    <path fill="#e58638" fill-rule="nonzero" d="m6881.68,8390.5c-32.77,526.7 -138.01,1318.9 -142.11,1723.7c-2.01,195.5 -28.86,395.4 -64.64,576.9l-445.19,78.6c0,0 -435.27,-1777.9 651.94,-2379.2" id="path108"/>
    <path fill="#fca56b" fill-rule="nonzero" d="m5756.33,12013.9c82.3,-157.5 389.02,-293.7 516.93,-343.7c-1.46,8.1 -2.92,16.2 -4.28,24.1c-20.67,116.9 -38.51,217.3 -38.51,217.3l-374.82,186.8c-82.84,1.3 -133.28,-19.6 -99.32,-84.5" id="path110"/>
    <path fill="#ffb27d" fill-rule="nonzero" d="m6412.61,11933.5c0,0 -676.2,-210.9 -801.09,212.2c-124.87,423.2 -296.26,680.9 130.2,833.5c426.46,152.6 558.38,16 634.42,-115.1c76.03,-131.1 209.15,-864.8 36.47,-930.6" id="path112"/>
    <path fill="#163560" fill-rule="nonzero" d="m6315.83,12861.1c0,0 -43.12,-492.4 -144.95,-471c-101.83,21.3 -194.18,37.2 -179.27,-111.2c14.91,-148.5 156.11,-319.8 -157.7,-346.1c-313.82,-26.3 -764.96,783.1 -678.75,936.3c248.75,442.1 1520.19,531.3 1160.67,-8" id="path114"/>
    <path fill="#adcbf9" fill-rule="nonzero" d="m7266.88,12966.8l-655.18,-175l20.29,-270.1l667.98,4.6c52.88,4 88.35,105.8 79.21,227.5c-9.14,121.6 -59.42,217 -112.3,213" id="path116"/>
    <path fill="#699dee" fill-rule="nonzero" d="m6680.56,12661.1c-5.6,74.6 -36.43,133.1 -68.86,130.7c-32.43,-2.5 -54.18,-64.9 -48.57,-139.5c5.6,-74.6 36.43,-133.1 68.86,-130.6c32.43,2.4 54.18,64.8 48.57,139.4" id="path118"/>
    <path fill="#699dee" fill-rule="nonzero" d="m6923.45,12670l-202.62,-3.8c-6.37,-42.6 4.58,-60.9 4.58,-60.9l202,-13.5l-3.96,78.2" id="path120"/>
    <path fill="#adcbf9" fill-rule="nonzero" d="m7648.43,12976.3l-752.19,-200.9l23.3,-310.1l766.89,5.3c60.7,4.6 101.43,121.5 90.93,261.1c-10.49,139.7 -68.22,249.2 -128.93,244.6" id="path122"/>
    <path fill="#699dee" fill-rule="nonzero" d="m6975.29,12625.4c-6.43,85.6 -41.83,152.8 -79.06,150c-37.23,-2.8 -62.19,-74.5 -55.76,-160.2c6.43,-85.6 41.83,-152.7 79.06,-149.9c37.23,2.8 62.2,74.4 55.76,160.1" id="path124"/>
    <path fill="#ffb27d" fill-rule="nonzero" d="m7092.1,12384.3c0,0 -70.99,107.6 -42.07,230.7c28.93,123.1 -87.19,169.9 -72.22,208.9c14.97,38.9 172.74,79.9 269.9,-59.5c97.15,-139.3 55.93,-339.2 55.93,-339.2l-211.54,-40.9" id="path126"/>
    <path fill="#ee9849" fill-rule="nonzero" d="m6167.01,11352.2c0,0 392.8,71.6 755.71,66.3c120.65,-1.8 214.4,104.5 198.16,221.5l-63.38,710c0,0 45.41,75.4 159.29,102.6c124.01,29.6 163.83,-37.3 163.83,-37.3c0,0 424.06,-1159.1 117.65,-1427.9c-306.42,-268.8 -1466.73,-437.4 -1466.73,-437.4l135.47,802.2" id="path128"/>
    <g id="g130" transform="scale(1.9112399816513062) ">
     <path fill="#ee9849" fill-rule="nonzero" d="m16288.7,8459.69c-21.1,-488.41 -134.7,-1086.28 -495.9,-1567.28c-13.3,-17.65 -26.6,-35.15 -40,-52.46c-40.5,-52.36 -81.8,-103.25 -123.6,-152.63c-46.7,-55.02 -128.3,-63.84 -186,-20.51l-1603.4,1204.15c-18.3,13.77 -31.9,31.64 -40.2,51.47c-5.6,13.35 -8.9,27.58 -9.6,42c-1.4,25.68 5.2,51.93 20.4,74.91c37.6,57.1 77,113.98 118.2,170.52c12.9,17.72 26,35.42 39.2,53.07c361.2,480.99 903.8,756.78 1366.9,913.29c244.6,82.64 467,132.05 628.9,160.82c26.9,4.75 53.1,5.74 78.1,3.27c37.9,-3.69 73,-15.29 103.8,-33.52c66.6,-39.34 112.9,-109.56 122.4,-198.25c17.5,-163.51 32.1,-390.9 20.8,-648.85" id="path132"/>
    </g>
    <g id="g134" transform="scale(1.846940040588379) ">
     <path fill="#588fe0" fill-rule="nonzero" d="m14412.3,8494.15c-48.4,-66.46 -94.4,-133.4 -138,-200.54c-28.5,-43.73 -18,-102.02 23.7,-133.34l1701.2,-1277.59c48.7,-36.57 117.4,-28.94 157,17.3c48.8,56.91 96.8,115.79 143.8,176.55l-1887.7,1417.62" id="path136"/>
    </g>
    <g id="g138" transform="scale(1.858839988708496) ">
     <path fill="#b74b42" fill-rule="nonzero" d="m15787,8822.9c-18.2,0 -36.5,-1.29 -54.8,-3.89c-101.5,-14.44 -191.3,-67.53 -252.9,-149.51c-61.6,-81.98 -87.5,-183.02 -73.1,-284.51c14.4,-101.49 67.5,-191.3 149.5,-252.86c82,-61.56 183,-87.51 284.6,-73.08c101.4,14.43 191.3,67.53 252.8,149.5c61.5,81.98 87.5,183.02 73.1,284.52c-14.5,101.49 -67.6,191.29 -149.5,252.86c-67.2,50.43 -147.2,76.97 -229.7,76.97zm-1.8,-883.96c-107.6,0 -211.7,34.57 -299.3,100.29c-106.7,80.19 -175.9,197.18 -194.7,329.4c-18.8,132.22 15,263.85 95.2,370.65c80.2,106.79 197.2,175.95 329.4,194.76c132.3,18.8 263.8,-15.01 370.6,-95.21c106.8,-80.2 176,-197.18 194.8,-329.41c18.8,-132.22 -15,-263.85 -95.2,-370.64c-80.2,-106.79 -197.2,-175.96 -329.4,-194.76c-23.9,-3.4 -47.8,-5.08 -71.4,-5.08" id="path140"/>
    </g>
    <g id="g142" transform="scale(1.9012000560760498) ">
     <path fill="#ffc08d" fill-rule="nonzero" d="m16267.7,9242.68c-4.5,42.37 -17.4,80.58 -36.9,113.25c-31,18.32 -66.3,29.98 -104.4,33.69c0.3,-2.14 0.6,-4.28 0.8,-6.42c17.6,-164.35 32.3,-392.97 21,-652.24c-21.3,-491 -135.5,-1092.02 -498.6,-1575.56c-13.3,-17.78 -26.8,-35.34 -40.3,-52.77c-9,-11.61 -18,-23.11 -27.1,-34.57l157.7,-118.65c3.3,4.23 6.7,8.41 10,12.66c13.5,17.44 26.9,35.04 40.2,52.78c363.2,483.54 477.3,1084.56 498.6,1575.56c11.3,259.3 -3.4,487.89 -21,652.27" id="path144"/>
    </g>
    <g id="g146" transform="scale(1.9112399816513062) ">
     <path fill="#588fe0" fill-rule="nonzero" d="m16267.9,9108.53c-16.8,156.91 -148.9,256.1 -304.3,228.5c-161.9,-28.77 -384.3,-78.16 -628.9,-160.81l954.1,-716.53c11.2,257.93 -3.4,485.34 -20.9,648.84" id="path148"/>
    </g>
    <g id="g150" transform="scale(1.6678999662399292) ">
     <path fill="#b74b42" fill-rule="nonzero" d="m16112.4,8651.39c-179.1,118.98 -461.1,9.54 -629.8,-244.45c-168.8,-253.99 18.9,-675.35 18.9,-675.35c0,0 461.1,-9.54 629.8,244.45c168.7,254 160.2,556.36 -18.9,675.35" id="path152"/>
    </g>
    <g id="g154" transform="scale(1.7709399461746216) ">
     <path fill="#b74b42" fill-rule="nonzero" d="m16123.3,7451.29c-168.7,112.06 -434.3,8.98 -593.2,-230.23c-158.9,-239.22 17.9,-636.05 17.9,-636.05c0,0 434.3,-8.98 593.1,230.23c158.9,239.22 150.9,523.98 -17.8,636.05" id="path156"/>
    </g>
    <g id="g158" transform="scale(1.6424700021743774) ">
     <path fill="#ee9849" fill-rule="nonzero" d="m16168.5,8496.14c-125.6,83.4 -323.2,6.69 -441.4,-171.33c-118.3,-178.02 13.2,-473.35 13.2,-473.35c0,0 323.2,-6.68 441.5,171.34c118.2,178.02 112.2,389.95 -13.3,473.34" id="path160"/>
    </g>
    <g id="g162" transform="scale(1.7457300424575806) ">
     <path fill="#ee9849" fill-rule="nonzero" d="m16176.3,7287.62c-118.1,78.47 -304.1,6.3 -415.3,-161.2c-111.3,-167.49 12.4,-445.34 12.4,-445.34c0,0 304.1,-6.3 415.4,161.2c111.2,167.49 105.6,366.88 -12.5,445.34" id="path164"/>
    </g>
    <g id="g166" transform="scale(1.8337899446487427) ">
     <path fill="#ffe6d2" fill-rule="nonzero" d="m15774.5,8302.14l525.5,92.87c-58.3,-105.71 -170.9,-177.32 -300.2,-177.32c-86.3,0 -165.1,31.88 -225.3,84.45" id="path168"/>
    </g>
    <g id="g170" transform="scale(1.8385499715805054) ">
     <path fill="#ffe6d2" fill-rule="nonzero" d="m16300,8549.65l-663.8,-125.73c-12.7,35.75 -19.6,74.24 -19.6,114.34c0,188.76 153,341.78 341.8,341.78c185,0 335.6,-146.89 341.6,-330.39" id="path172"/>
    </g>
    <path fill="#ffb27d" fill-rule="nonzero" d="m10529.6,6930.4c0,0 204.3,-52.5 334.2,-13.4c129.9,39.2 353.5,-25.1 389.5,-72.5c36,-47.3 22.8,-66.2 -41.5,-82.5c-64.2,-16.3 -291.8,-113.4 -441.4,-57.2c-149.6,56.1 -344.7,58.2 -344.7,58.2l103.9,167.4" id="path174"/>
    <path fill="#4a75cb" fill-rule="nonzero" d="m8763.6,8705.4c0,0 229.54,-1631.5 609.65,-1777.6c187.54,-72.1 1016.45,-235.5 1261.65,-252c0,0 60,48.8 45.4,247.1c0,0 -868.43,318.8 -991.8,492.2c-183.61,258 113.99,1054.2 -116.41,1296.5c-230.39,242.4 -618.43,346.5 -808.49,-6.2" id="path176"/>
    <path fill="#2b478b" fill-rule="nonzero" d="m9110.36,2426.1l0,355.7l560.02,0c15.11,0 27.48,12.4 27.48,27.5l0,57c0,15.1 -12.37,27.5 -27.48,27.5l-560.02,0l0,2024.9c0,56.8 -46.49,103.3 -103.31,103.3l-110.83,0c-56.82,0 -103.3,-46.5 -103.3,-103.3l0,-2024.9l-560.02,0c-15.12,0 -27.48,-12.4 -27.48,-27.5l0,-57c0,-15.1 12.36,-27.5 27.48,-27.5l560.02,0l0,-355.7c-405.2,-30.6 -729.83,-176.5 -820.9,-365l1959.23,0c-91.06,188.5 -415.7,334.4 -820.89,365" id="path178"/>
    <path fill="#163560" fill-rule="nonzero" d="m8840.96,5268.2c66.96,-113.6 144.41,-220 224.23,-320.8c246.71,-311.5 515.27,-568.3 562.06,-811c9.29,-48.4 24.07,-100.5 43.37,-155.4c19.54,-55.6 43.69,-114 71.56,-174.5c104.7,-227.4 261.22,-482.2 417.62,-713.8c270.2,-400.5 524.3,-734.6 524.3,-734.6l466,19.9c-18.7,46.7 -221.9,599.6 -493.8,1275.2c-110.4,274.3 -227.8,566 -341.1,847.4c-15.1,37.6 -30.2,75 -45.1,112.1c-34.6,86.1 -68.7,170.8 -102,253.3c-255.3,634.5 -458.64,1139.7 -458.64,1139.7c0,0 -1020.37,386.5 -1126.34,136c-87.37,-206.5 -16.2,-408.8 257.84,-873.5" id="path180"/>
    <path fill="#163560" fill-rule="nonzero" d="m10698.6,2451.9c0,0 23.9,-384.5 98.3,-390c9.9,-0.8 377.3,-0.8 377.3,-0.8l469.1,0c0,0 -3.1,115.8 -140.2,139.7c-137.1,23.9 -366.6,120.2 -449.7,301.4c-87.3,190.7 -354.8,-50.3 -354.8,-50.3" id="path182"/>
    <path fill="#163560" fill-rule="nonzero" d="m9619.59,3541.4c0,0 -324.12,-208.3 -292.67,-275.9c4.18,-9 183.3,-329.8 183.3,-329.8l231.03,-408.2c0,0 97.19,57.7 51.21,189.1c-45.97,131.3 -73.71,378.7 44.02,539.6c123.85,169.2 -216.89,285.2 -216.89,285.2" id="path184"/>
    <path fill="#1c468a" fill-rule="nonzero" d="m10056.7,6190c0,0 1282.2,-798.7 1425.2,-1334.8c142.9,-536.1 -1703.75,-1679.9 -1703.75,-1679.9c0,0 -202.53,178.7 -238.28,309.8c0,0 834.73,1000 1015.83,1224.2c111.2,137.7 -1644.27,476.6 -1858.73,810.2c-214.45,333.6 -137.68,614.3 -137.68,614.3l1497.41,56.2" id="path186"/>
    <path fill="#ee9849" fill-rule="nonzero" d="m10262.3,5164.7l-2621.28,0c-52.43,0 -95.32,-42.9 -95.32,-95.3l0,-524.3c0,-52.4 42.89,-95.3 95.32,-95.3l2621.28,0c52.4,0 95.3,42.9 95.3,95.3l0,524.3c0,52.4 -42.9,95.3 -95.3,95.3" id="path188"/>
    <path fill="#ffb27d" fill-rule="nonzero" d="m9661,8808.3c-306.8,-79.4 -815.5,204.9 -815.5,204.9c0,0 197.5,132.7 270.7,424.3c3.7,14.7 7.1,29.8 10,45.2c32.2,6.9 92.8,19.7 157.6,33.4l234.4,-209.9c0,0 -5.3,-87.2 -34.7,-237c-5.1,-26.2 -10.9,-54.2 -17.6,-84.1c125.8,-77.9 195.1,-176.8 195.1,-176.8" id="path190"/>
    <path fill="#739af0" fill-rule="nonzero" d="m10096.8,6231.8c-0.6,-3.1 -1.6,-6.3 -2.7,-9.6c-29.6,-82.9 -305,-194.7 -557.7,-272.9c-90.6,-28.1 -178.4,-51.8 -250.8,-68.4c-195.7,-44.8 -686,-124.7 -729,9.7c-49.8,155.6 8,1054.7 -36,1645.8c-51.9,722.6 148.2,1380.3 426.4,1595c21,15.4 62.6,-25.6 183.1,-82.8c111.3,-52.7 234.3,-67.8 338.4,-45l93.3,-80c128.9,-116 270.6,-274.3 334.9,-517c39.3,-148.9 69,-384.3 91,-649.1c8.5,-102.6 15.9,-209.7 22.2,-317.8c10,-172.1 18.7,-345.7 22.9,-510.8c0.1,-3.2 0.2,-6.3 0.2,-9.5l0.1,-6c1.8,-16.6 2.1,-34.8 2.3,-51.5c4.4,-148 3.6,-285.7 8.6,-402.6c0.1,-3.3 0.3,-6.5 0.5,-9.6c6.3,-98 42.2,-142.2 51.8,-183.1c2.6,-11.5 3.2,-22.8 0.5,-34.8" id="path192"/>
    <path fill="#4a75cb" fill-rule="nonzero" d="m10096.8,6231.8c-0.6,-3.1 -1.6,-6.3 -2.7,-9.6c-29.6,-82.9 -305,-194.7 -557.7,-272.9c-513.3,643.1 -458.3,1412.6 -458.3,1412.6l954.7,-433c0.1,-3.2 0.2,-6.3 0.2,-9.5l0.1,-6c1.8,-16.6 2.1,-34.8 2.3,-51.5c4.4,-148 3.6,-285.7 8.6,-402.6c0.1,-3.3 0.3,-6.5 0.5,-9.6c6.3,-98 42.2,-142.2 51.8,-183.1c2.6,-11.5 3.2,-22.8 0.5,-34.8" id="path194"/>
    <path fill="#e2915a" fill-rule="nonzero" d="m9518.2,9306.2c0,0 -5.3,-87.2 -34.7,-237c-228.8,73.9 -332.6,280.6 -367.3,368.3c3.7,14.7 7.1,29.8 10,45.2c32.2,6.9 92.8,19.7 157.6,33.4l234.4,-209.9" id="path196"/>
    <path fill="#ffb27d" fill-rule="nonzero" d="m9610.84,9308.5c0,0 -502.81,-56.8 -533.31,256.9c-30.5,313.7 -115.93,517.6 203.81,567.1c319.74,49.5 393.85,-64.2 429.49,-166.4c35.64,-102.2 30.02,-634.8 -99.99,-657.6" id="path198"/>
    <path fill="#2b478b" fill-rule="nonzero" d="m9079.7,9543.8c0,0 31.88,416.3 489.58,459.5c313.49,29.5 138.71,299.3 105.3,342.4c0,0 -240.2,-33 -486.4,-73.6c-516.75,-85.4 -159.23,-663.5 -108.48,-728.3" id="path200"/>
    <path fill="#4a75cb" fill-rule="nonzero" d="m11888,7674l-354.2,-1090.2l-1245.9,26.6l-1.7,-76l1271.4,-27.2l374.4,1152.5l-44,14.3" id="path202"/>
    <path fill="#ffb27d" fill-rule="nonzero" d="m10424.4,6679.6c0,0 197.3,-74.7 330.8,-50.2c133.4,24.6 348.5,-63.9 379.1,-115c30.5,-51 15.3,-68.2 -50.3,-77.4c-65.7,-9.2 -302.6,-80.6 -445.1,-8.2c-142.5,72.3 -336.2,95.8 -336.2,95.8l121.7,155" id="path204"/>
    <path fill="#739af0" fill-rule="nonzero" d="m8864.9,8638.5c0,0 48.28,-1646.9 409.95,-1834c178.46,-92.4 984.25,-346.2 1226.15,-389.5c0,0 65.1,41.8 72.4,240.5c0,0 -827.98,412.6 -931.49,598.6c-154.03,276.7 229.51,1035.1 27.25,1301.4c-202.28,266.3 -576.46,412.6 -804.26,83" id="path206"/>
    <g id="g208" transform="scale(1.9421700239181519) ">
     <path fill="#ffb27d" fill-rule="nonzero" d="m16143,3794.94l31.1,-50.56c16.2,-18.59 20.6,-28.99 33.4,-35.32c31,-15.25 88.2,-54.38 92.5,-136.55c0,0 -1,-46.5 -32.1,-31.41c-31.2,15.08 -17.6,13.64 -61.9,33.98c-44.4,20.29 -60.8,84.85 -64.6,106.89l-36.2,47.47l37.8,65.5" id="path210"/>
    </g>
    <g id="g212" transform="scale(1.8161799907684326) ">
     <path fill="#ffb27d" fill-rule="nonzero" d="m16282.4,1176.59c-1.8,-19.43 -12.6,-31.99 -29.7,-39.48l-0.3,-0.11c-31.6,-13.87 -84.8,-10.73 -142.1,-2.97c-7.4,0.94 -14,1.76 -19.9,2.31c-1.6,0.11 -3.2,0.28 -4.6,0.39c-1.3,0.05 -2.5,0.16 -3.6,0.22c-57.2,3.8 -52.7,-13.82 -161.9,-13.27c-124.5,0.66 -166.6,42.56 -172.3,60.46c-4.8,15.14 49.7,26.92 110.6,40.47c3,0.66 5.9,1.32 9,1.98c8,1.76 16.2,3.68 24.3,5.5c72.7,17.07 144.6,38.6 168.4,108.36c25.2,74.06 19.2,293.7 19.2,293.7l220.5,0c0,0 -57.9,-242.66 -51.8,-312.58c3.3,-37.39 21.1,-47.96 28.1,-80.34c0.5,-2.26 0.9,-4.51 1.3,-6.83c3.3,-18.88 6.7,-38.26 4.8,-57.81" id="path214"/>
    </g>
    <g id="g216" transform="scale(1.850559949874878) ">
     <path fill="#80bdcc" fill-rule="nonzero" d="m16231.7,3484.73c-18.3,-102.51 -44.3,-208.42 -67,-318.6c-36.3,-177.14 -63.7,-365.35 -35.7,-568c3.6,-26.1 5.6,-54.84 6,-85.81c5.5,-358.16 -154.6,-1007.26 -154.6,-1007.26c0,0 -43.4,-18.75 -116.3,-15.13c-37.5,1.84 -95,26.05 -95,26.05c0,0 -15.2,402.41 -16.1,943.66c-0.7,392.26 -77.7,908.8 -93.2,1212.33c-9.4,183.73 11,428.41 11,428.41c0,0 319,256.52 433.6,125.32c113.2,-129.69 195.6,-357.46 127.3,-740.97" id="path218"/>
    </g>
    <g id="g220" transform="scale(1.8351999521255493) ">
     <path fill="#5f9aa8" fill-rule="nonzero" d="m16264,2619.87c3.6,-26.31 5.6,-55.3 6,-86.53c-240.9,349.07 -294.2,1110.18 -294.2,1110.18l264.6,-128.43c0,0 29.1,-142.71 59.6,-322.47c-36.7,-178.62 -64.3,-368.41 -36,-572.75" id="path222"/>
    </g>
    <g id="g224" transform="scale(1.8927899599075317) ">
     <path fill="#ffb27d" fill-rule="nonzero" d="m16298.2,1128.97c-1.7,-18.65 -12.1,-30.69 -28.5,-37.88l-0.2,-0.11c-30.5,-13.31 -81.4,-10.3 -136.5,-2.85c-7,0.9 -13.4,1.69 -19.1,2.22c-1.5,0.11 -2.9,0.27 -4.4,0.37c-1.1,0.05 -2.3,0.16 -3.4,0.21c-54.8,3.65 -50.6,-13.26 -155.3,-12.73c-119.5,0.63 -159.9,40.84 -165.4,58.01c-4.6,14.53 47.7,25.83 106.2,38.83c2.8,0.64 5.7,1.27 8.5,1.9c7.8,1.69 15.7,3.54 23.4,5.29c69.8,16.37 138.8,37.03 161.6,103.97c24.2,71.06 -10.4,278.53 -10.4,278.53l196,16.38c0,0 -12.2,-236.43 -6.4,-303.52c3.2,-35.82 21.4,-55.53 28,-86.59c0.5,-2.17 0.9,-4.34 1.3,-6.56c3.2,-18.12 6.4,-36.71 4.6,-55.47" id="path226"/>
    </g>
    <g id="g228" transform="scale(1.895550012588501) ">
     <path fill="#80bdcc" fill-rule="nonzero" d="m16246.9,1451.46c0,0 -50.3,-23.8 -86.5,-31.03c-36.2,-7.28 -111.5,6.86 -111.5,6.86c-13.6,152.2 -45.1,390.08 -106.4,658.6c-69.7,305.66 -173.5,666.83 -318.3,1008.89c-30.9,73.07 -158.4,418.82 -180,506.08c-65.5,263.67 0.2,235.29 0.2,235.29l571.8,67.11c0,0 70.5,-36.25 103,-408.54c9.7,-111.47 10.8,-592.92 25.5,-684.18c13.8,-86.42 30.1,-158.27 49.1,-205.01c106.2,-260.72 53.1,-1154.07 53.1,-1154.07" id="path230"/>
    </g>
    <g id="g232" transform="scale(1.8927899599075317) ">
     <path fill="#b84c42" fill-rule="nonzero" d="m16298.2,1128.97c-1.7,-18.65 -12.1,-30.69 -28.5,-37.88l-0.2,-0.11c-32.2,-11.46 -82.4,-8.98 -136.3,-2.53c-7.1,0.84 -13.5,1.48 -19.3,1.9c-1.5,0.11 -2.9,0.27 -4.4,0.37c-1.1,0.05 -2.3,0.16 -3.4,0.21c-54.8,3.65 -50.6,-13.26 -155.3,-12.73c-119.5,0.63 -159.9,40.84 -165.4,58.01c-4.6,14.53 47.7,25.83 106.2,38.83c15.4,-7.61 89,-40.89 180.5,-32.02c80.4,7.72 162.5,39.95 220.2,47.98c0.5,-2.17 0.9,-4.34 1.3,-6.56c3.2,-18.12 6.4,-36.71 4.6,-55.47" id="path234"/>
    </g>
    <g id="g236" transform="scale(1.8144199848175049) ">
     <path fill="#b84c42" fill-rule="nonzero" d="m16298.2,1177.73c-1.8,-19.45 -12.6,-32.02 -29.8,-39.52l-0.3,-0.11c-33.5,-11.96 -85.8,-9.37 -142.2,-2.64c-7.3,0.88 -14,1.54 -20,1.98c-1.5,0.11 -3.1,0.28 -4.6,0.39c-1.2,0.05 -2.4,0.16 -3.6,0.22c-57.2,3.8 -52.7,-13.84 -162,-13.28c-124.6,0.66 -166.7,42.6 -172.5,60.51c-4.8,15.16 49.8,26.95 110.8,40.51c16.1,-7.94 92.8,-42.66 188.2,-33.4c83.9,8.05 169.6,41.67 229.8,50.04c0.5,-2.26 0.9,-4.52 1.3,-6.83c3.4,-18.9 6.7,-38.3 4.9,-57.87" id="path238"/>
    </g>
    <g id="g240" transform="scale(1.9245200157165527) ">
     <path fill="#b74b42" fill-rule="nonzero" d="m15140.5,5530.99c-19.1,155.36 29.5,403.98 339.6,364.25c310.1,-39.72 407.8,-344.48 345.2,-479.99c-62.5,-135.5 90.1,-168.18 138,-313.88c41.1,-125.22 55.5,-280.64 122.1,-350.37c214.6,-224.94 -206.1,-570.74 -459.8,-497.84c-462,132.87 -521.5,152.66 -505.2,515.71c8.5,185.97 153.2,258.04 61.3,311.87c-222,130 1.8,98.68 -41.2,450.25" id="path242"/>
    </g>
    <g id="g244" transform="scale(1.841439962387085) ">
     <path fill="#ffb27d" fill-rule="nonzero" d="m16300,5355.5l-89.3,-230.69l-192.7,-9.4l-96.1,143.53c60.6,46.16 86.3,115.4 95.7,177.32c7.7,49.58 5.5,94.43 3.4,118.78c-1.3,12.4 -2.6,19.65 -2.6,19.65l240.2,73.07l0.8,0.42c3,-63.66 6.4,-113.64 10.2,-152.52c13.7,-137.12 30.4,-140.16 30.4,-140.16" id="path246"/>
    </g>
    <g id="g248" transform="scale(1.8639600276947021) ">
     <path fill="#ffb27d" fill-rule="nonzero" d="m15728.7,5298.83c12.2,0 220.1,42.33 571.3,-47.53c0,0 -192.3,-881.08 -127,-1047.12c65.3,-166.05 90.1,-313.48 90.1,-313.48l-708.7,-8.74c0,0 10,569.97 -22.7,771.69c-32.7,201.77 197,645.18 197,645.18" id="path250"/>
    </g>
    <g id="g252" transform="scale(1.9289400577545166) ">
     <path fill="#ffb93e" fill-rule="nonzero" d="m16072.7,4229.37c-34.2,236.66 -161.4,722.68 -246.8,802.15c-75.5,70.3 -238.4,76.73 -238.4,76.73l0,0l-0.1,0c-33.8,-52.98 -149.6,-184.66 -293.3,-160.92c-77.6,12.75 -93.4,152.26 -95.1,170.87l0.5,2.13l-0.7,-0.1l0,0.1c-0.5,-0.1 -1.1,-0.26 -1.6,-0.36c-22.7,-3.32 -202.9,-32.66 -256.4,-124.68c-78.9,-135.88 -164.9,-543.67 -249.4,-537.6c-38.8,2.74 -429,149.4 -429,149.4c0,0 -65,-60.86 -52.6,-135.62c0,0 192.7,-129.03 355.6,-211.36c22.6,-11.4 44.7,-21.87 65.5,-31.05c58.7,-25.76 108.2,-40.69 135.3,-34.32c7.7,1.82 15.9,5.34 24.5,10.32c35.3,20.42 76.5,65.22 116.1,116.33c26.3,34.01 51.8,70.77 74.4,104.98c0.5,0.73 0.9,1.4 1.4,2.13c9.6,-129.61 19.3,-270.67 9.3,-381.2c-7.6,-84.14 -13.2,-266.26 1.2,-313.33c30.1,-98.09 251.2,-124.01 457.5,-113.79c97.3,4.87 166,10.42 216,21.93c72.6,16.69 105.8,45.88 129.7,103.47c22.7,54.85 -82.6,312.35 -92.6,425.06c-9.1,102.18 6.5,185.33 32.3,267.09c72.8,-168.28 146.9,-288.61 156.7,-314.68c20.4,-54.91 331.4,-401.99 331.4,-401.99c0,0 25.1,5.14 45.1,18.2c20.5,13.43 30.8,31.21 30.8,31.21c-54.8,130.38 -227.3,458.9 -227.3,458.9" id="path254"/>
    </g>
    <g id="g256" transform="scale(1.8720200061798096) ">
     <path fill="#e58638" fill-rule="nonzero" d="m16276.5,3859.47c-24.6,-59.35 -58.8,-89.42 -133.5,-106.62c-99.9,19.23 -165.9,203.15 -199.8,293.64c-39.1,104.27 164.7,640.54 220.9,635.62c41.8,-3.58 49,-74.57 50.4,-109.45c-27.1,-85.04 -42.8,-168.86 -33.3,-275.21c10.3,-116.13 118.8,-381.46 95.3,-437.98" id="path258"/>
    </g>
    <g id="g260" transform="scale(1.6881400346755981) ">
     <path fill="#ffb27d" fill-rule="nonzero" d="m16300,5217.53c0,0 -38,93.24 -79.9,97.03c-41.8,3.8 -175,24.7 -184.5,5.69c-9.6,-19.02 0,-87.49 28.5,-112.25c28.6,-24.71 205.5,-64.69 205.5,-64.69l30.4,74.22" id="path262"/>
    </g>
    <g id="g264" transform="scale(1.7728699445724487) ">
     <path fill="#e58638" fill-rule="nonzero" d="m16300,4816.03c-24.5,-37.23 -52.3,-77.22 -80.9,-114.22c-41,-50.49 -86.3,-99.33 -126.4,-126.58c-9.3,-5.41 -18.3,-9.25 -26.7,-11.22c-29.4,-6.94 -83.2,9.31 -147.1,37.34c38,-2.76 75.3,-1.41 112,1.69c64.3,5.47 83.1,75.13 184.8,179.54c60.7,62.44 79.2,52.8 84.3,33.45" id="path266"/>
    </g>
    <g id="g268" transform="scale(1.8367500305175781) ">
     <path fill="#e2915a" fill-rule="nonzero" d="m16300,5662.15c-36.4,-59.54 -124.2,-182.05 -241.6,-212.03c7.7,49.7 5.5,94.66 3.4,119.08c-1.2,12.43 -2.6,19.7 -2.6,19.7l240.8,73.25" id="path270"/>
    </g>
    <g id="g272" transform="scale(1.8493900299072266) ">
     <path fill="#ffb27d" fill-rule="nonzero" d="m15886.7,5534.46c0,0 287.5,-57.72 320.7,121.83c33.2,179.55 92.6,293.03 -89.5,337.47c-182.1,44.44 -230.5,-17.46 -256.2,-74.69c-25.6,-57.24 -48.9,-364.97 25,-384.61" id="path274"/>
    </g>
    <g id="g276" transform="scale(1.8548400402069092) ">
     <path fill="#b74b42" fill-rule="nonzero" d="m15980.1,6020.85c0,0 -5,-60.72 89.3,-163.76c94.2,-103.03 75.8,-311.4 75.8,-311.4c0,0 154.8,323.26 70,418.6c-84.7,95.33 -235.1,56.56 -235.1,56.56" id="path278"/>
    </g>
    <g id="g280" transform="scale(1.8315500020980835) ">
     <path fill="#b74b42" fill-rule="nonzero" d="m16300,6177.42c0,0 -144.3,48.28 -287.5,-92.81c-61.7,-60.79 -52.3,-180.27 -19.3,-249.6c0,0 50.8,148.57 143.1,180.97c92.3,32.41 163.7,161.44 163.7,161.44" id="path282"/>
    </g>
    <g id="g284" transform="scale(1.8126599788665771) ">
     <path fill="#ffffff" fill-rule="nonzero" d="m16300,5736.74c0,0 -7.8,-21.74 -63.1,-11.87c0,0 -46.3,8.28 -42,32.67c0,0 47.3,12.26 105.1,-20.8" id="path286"/>
    </g>
    <g id="g288" transform="scale(1.3174899816513062) ">
     <path fill="#699dee" fill-rule="nonzero" d="m16190.5,7796.42c109.5,-620.58 -252.8,-1123.58 -809,-1123.58c-36.2,0 -73.3,25.04 -109.3,29.22c495.3,59.66 806.2,514.23 704,1094.36c-102.3,580.12 -580.6,1057.5 -1096.9,1117.14c34.4,4.24 69.7,6.35 105.9,6.35c556.3,0 1096,-503.02 1205.3,-1123.49" id="path290"/>
    </g>
    <g id="g292" transform="scale(1.365689992904663) ">
     <path fill="#699dee" fill-rule="nonzero" d="m14831.9,6460.26c-538.1,0 -1059,480.2 -1163.4,1072.67c-104.5,592.45 247,1072.77 785.1,1072.77c538.2,0 1059,-480.32 1163.5,-1072.77c104.5,-592.47 -247,-1072.67 -785.2,-1072.67zm1216.4,748.2c152.7,0 251.7,141.2 220.9,315.39c-30.6,174.19 -179.4,315.43 -332.2,315.43c-7.7,0 -15.1,-0.68 -22.4,-1.34c-23.1,64.36 -49.5,127.16 -78.7,188.25c77,53.35 117.4,157.68 96.2,277.62c-29.8,169.06 -170.7,307.02 -318.6,315.05l-179.9,-2.22c-9.1,0 -17.9,-0.53 -26.5,-1.49c-18.2,17.11 -36.6,33.85 -55.3,50.14c24.8,52.47 33.8,117.06 21.4,187.22c-30.7,174.19 -179.5,315.42 -332.3,315.42c-1.1,0 -2.4,0 -3.6,-0.07l0,0.07l-149.9,-2.9c-4.3,0.22 -8.5,0.38 -12.8,0.38c-7.6,0 -15,-0.38 -22.3,-1.05l-0.1,-0.07c-42.2,-3.94 -79.7,-19.13 -110.6,-42.86c-30.9,-23.81 -55.3,-56.26 -71.3,-94.73c-3.7,0.82 -7.2,1.79 -10.9,2.61c-0.8,10.56 -2.2,21.28 -4.2,32.14c-30.7,174.19 -179.4,315.43 -332.2,315.43l-164.1,-2.68c-0.8,0 -1.4,0.07 -2.1,0.07c-2.7,0 -5.2,-0.15 -7.8,-0.22l-3.1,-0.08l-0.1,0c-11.9,-0.52 -23.5,-1.93 -34.7,-4.24l-0.1,-0.07c-7.3,-2.53 -248.5,-90.11 -166.1,-394.08l-16.8,-7.38c0,0 -47.9,96.84 -133.7,149.38c-106.2,65.01 -175.4,49.68 -184.6,48.5l-143.2,-0.67l0.1,-0.23c-149.2,-3.79 -245.1,-143.39 -214.8,-315.2c14.4,-81.25 54.5,-155.07 108.6,-210.95c-5,-6.69 -9.9,-13.47 -14.8,-20.32l-49.8,-0.51c-7.3,0.66 -14.7,1.04 -22.1,1.04c-9.3,0 -18.4,-0.53 -27.4,-1.57l-126.5,-1.34c-0.7,0 -1.5,0.08 -2.2,0.15c-3.4,0.08 -6.9,0.16 -10.2,0.16c-6,0 -11.9,-0.23 -17.7,-0.68l-0.3,0c-5,-0.37 -9.9,-0.81 -14.7,-1.48c-133.9,-18.61 -216.8,-151.73 -188.3,-313.27c23.8,-135.13 118.8,-250.16 231.5,-295.04c-6.3,-54.9 -9.7,-111.31 -10,-168.83l-55.4,-0.89c-2.3,0.07 -4.7,0.22 -7.2,0.22c-5.7,0 -11.4,-0.3 -16.9,-0.67l-10.6,-0.15l0.2,-0.74c-137,-15.78 -222.6,-150.23 -193.6,-313.86c30.6,-174.19 179.4,-315.43 332.2,-315.43l62.1,0.95c14.6,-40.63 30.4,-80.69 47.6,-120.15c-106.9,-39.03 -168.7,-159.41 -143.6,-302.05c29.5,-167.46 168.2,-304.39 314.6,-314.64l0,-0.07l0.4,0c5.8,-0.37 11.5,-0.66 17.2,-0.66c7.6,0 15,0.44 22.3,1.1l140.5,1.46l-0.1,0.15c1.2,-0.08 2.4,-0.15 3.6,-0.15c19.4,0 37.8,2.34 55.3,6.66c22.7,-22.99 45.9,-45.47 69.6,-67.22c-30.4,-54.69 -42.2,-125.06 -28.6,-201.87c30.6,-174.27 179.4,-315.45 332.2,-315.45l162.8,2.56l-0.1,0.15c1.2,-0.07 2.4,-0.15 3.6,-0.15c93.2,0 166.1,52.65 202,133.2c18.4,-4.98 37,-9.67 55.6,-13.91c0.9,-10.47 2.3,-21.24 4.2,-32.08c30.8,-174.19 179.6,-315.44 332.3,-315.44l166.1,2.64l0.2,0l0.5,0l10.6,0.14l0,0.15c146.4,6.66 239.8,145.2 209.9,315.15c-1.9,10.77 -4.3,21.45 -7.1,32c5.3,1.39 10.6,2.85 15.9,4.25c64,-77.91 153.8,-128.66 245.2,-128.66l160.1,2.86c2.1,-0.08 4.1,-0.3 6.2,-0.3c152.7,0 251.7,141.25 221,315.45c-11.6,65.68 -40,126.68 -79.1,177.2c20.7,26.51 40.2,54.11 58.6,82.67l187.8,0l0,0.07c1.2,0 2.4,-0.07 3.6,-0.07c152.7,0 251.7,141.25 221,315.44c-22.4,127.27 -108,236.59 -212,286.46c4.1,44.59 6.3,89.91 6.6,136.04c7.7,-0.66 15.3,-1.24 23,-1.24" id="path294"/>
    </g>
    <g id="g296" transform="scale(1.3653899431228638) ">
     <path fill="#afcdfb" fill-rule="nonzero" d="m14835.2,6461.61c-538.2,0 -1059.2,480.45 -1163.7,1073c-104.5,592.58 247.1,1072.96 785.4,1072.96c538.1,0 1059.1,-480.38 1163.7,-1072.96c104.5,-592.55 -247.1,-1073 -785.4,-1073zm1213,748.36c152.8,0 251.8,141.27 221,315.51c-30.7,174.25 -179.5,315.49 -332.2,315.49c-7.7,0 -15.1,-0.61 -22.5,-1.31c-23.1,64.34 -49.5,127.19 -78.8,188.31c77.2,53.34 117.5,157.67 96.3,277.68c-30.6,174.23 -179.5,315.48 -332.2,315.48c-56.5,0 -105.5,-19.38 -143.4,-52.48c-33.9,34.34 -68.8,67.25 -104.8,98.57c24.8,52.41 33.7,117.05 21.3,187.26c-30.7,174.24 -179.4,315.5 -332.3,315.5c-112.2,0 -195.3,-76.45 -219.2,-186.09c-53.5,19.13 -107.6,35.02 -162.3,47.43c-0.9,10.55 -2.3,21.26 -4.2,32.1c-30.8,174.23 -179.5,315.49 -332.3,315.49c-152.8,0 -251.8,-141.26 -221,-315.49c1.9,-10.84 4.2,-21.55 7,-32.1c-61.9,-15.27 -121.1,-35.77 -177.5,-61.15c-61.1,116.94 -175.5,199.81 -292.4,199.81c-152.8,0 -251.8,-141.26 -221,-315.5c14.2,-81.23 54.5,-155.05 108.5,-210.98c-22.7,-30.25 -44.1,-61.89 -64,-94.77c-55.8,45.21 -122,72.4 -189.1,72.4c-152.8,0 -251.7,-141.25 -221,-315.48c23.8,-135.23 118.9,-250.24 231.6,-295.13c-6.7,-57.73 -10.1,-116.96 -10.2,-177.5c-20.5,5.05 -41.4,7.95 -62.4,7.95c-152.8,0 -251.8,-141.24 -221.1,-315.49c30.8,-174.24 179.5,-315.51 332.3,-315.51c21,0 40.9,2.93 59.6,7.99c15.3,-43.14 32.1,-85.55 50.2,-127.22c-107,-39.04 -168.8,-159.44 -143.6,-302.04c30.7,-174.24 179.4,-315.52 332.3,-315.52c66.5,0 122.9,26.88 162.7,71.56c41,-45.48 83.9,-88.69 128.5,-129.49c-30.4,-54.78 -42.2,-125.16 -28.6,-201.99c30.7,-174.24 179.4,-315.52 332.3,-315.52c112,0 194.9,76.17 219.1,185.37c67.2,-26.44 135.6,-47.75 204.9,-63.5c0.9,-10.54 2.3,-21.23 4.2,-32.07c30.7,-174.24 179.5,-315.45 332.3,-315.45c152.8,0 251.8,141.21 221,315.45c-1.9,10.84 -4.2,21.53 -7.1,32.07c52.4,12.97 102.9,29.59 151.3,49.81c63.8,-101.88 168.9,-171.68 276.2,-171.68c152.9,0 251.8,141.28 221.1,315.52c-11.6,65.69 -40,126.7 -79.1,177.24c32.9,42.04 63,86.71 90.1,133.95c49.2,-32.3 104.2,-51.27 159.9,-51.27c152.9,0 251.8,141.28 221,315.52c-22.4,127.29 -107.9,236.71 -211.9,286.59c4.1,44.53 6.3,89.86 6.6,136c7.6,-0.66 15.2,-1.32 22.9,-1.32" id="path298"/>
    </g>
    <g id="g300" transform="scale(1.4669599533081055) ">
     <path fill="#d86713" fill-rule="nonzero" d="m16224.9,6961.98c75.1,-426.1 -173.6,-771.44 -555.5,-771.44c-24.9,0 -50.4,17.18 -75.1,20.04c340.1,40.97 553.6,353.12 483.4,751.4c-70.3,398.31 -398.6,726.08 -753.2,767.03c23.7,2.91 47.9,4.37 72.8,4.37c381.9,0 752.5,-345.38 827.6,-771.4" id="path302"/>
    </g>
    <g id="g304" transform="scale(1.5038100481033325) ">
     <path fill="#d86713" fill-rule="nonzero" d="m15280.7,6054.75c-373.6,0 -735.2,333.43 -807.7,744.74c-72.6,411.32 171.5,744.8 545.1,744.8c373.6,0 735.3,-333.48 807.8,-744.8c72.5,-411.31 -171.5,-744.74 -545.2,-744.74zm844.5,519.42c106.1,0 174.8,98.08 153.5,219.01c-21.3,120.95 -124.7,219 -230.7,219c-5.3,0 -10.5,-0.47 -15.6,-0.93c-16,44.68 -34.3,88.29 -54.6,130.7c53.5,37.04 81.5,109.47 66.8,192.75c-20.7,117.37 -118.6,213.15 -221.2,218.73l-124.9,-1.55c-6.3,0 -12.5,-0.36 -18.5,-1.03c-12.6,11.88 -25.3,23.51 -38.3,34.82c17.2,36.42 23.4,81.26 14.9,129.98c-21.4,120.94 -124.7,218.99 -230.8,218.99c-0.8,0 -1.6,0 -2.4,-0.05l0,0.05l-104.1,-2.02c-3,0.16 -6,0.26 -8.9,0.26c-5.3,0 -10.4,-0.26 -15.5,-0.72l-0.1,-0.05c-29.3,-2.74 -55.3,-13.28 -76.8,-29.76c-21.5,-16.53 -38.4,-39.05 -49.5,-65.76c-2.6,0.56 -4.9,1.24 -7.5,1.8c-0.6,7.34 -1.6,14.78 -3,22.32c-21.2,120.94 -124.5,218.99 -230.6,218.99l-114,-1.86l-1.4,0.06c-1.8,0 -3.6,-0.1 -5.4,-0.16l-2.1,-0.05l-0.1,0c-8.3,-0.36 -16.4,-1.34 -24.1,-2.94l-0.1,-0.06c-5,-1.75 -172.6,-62.56 -115.2,-273.6l-11.8,-5.12c0,0 -33.3,67.24 -92.8,103.7c-73.7,45.15 -121.7,34.51 -128.2,33.67l-99.3,-0.46l0,-0.15c-103.6,-2.64 -170.1,-99.55 -149.1,-218.84c9.9,-56.41 37.8,-107.66 75.3,-146.46c-3.4,-4.65 -6.8,-9.35 -10.2,-14.1l-34.6,-0.37c-5.1,0.47 -10.2,0.73 -15.4,0.73c-6.4,0 -12.7,-0.36 -18.9,-1.09l-87.9,-0.93l-1.5,0.11c-2.4,0.05 -4.8,0.1 -7.1,0.1c-4.2,0 -8.3,-0.15 -12.2,-0.47l-0.3,0c-3.5,-0.25 -6.9,-0.56 -10.2,-1.03c-92.9,-12.91 -150.5,-105.34 -130.8,-217.49c16.6,-93.82 82.6,-173.69 160.8,-204.84c-4.4,-38.12 -6.7,-77.28 -7,-117.22l-38.4,-0.61c-1.7,0.04 -3.3,0.15 -5,0.15c-4,0 -7.9,-0.21 -11.8,-0.47l-7.3,-0.1l0.2,-0.52c-95.2,-10.95 -154.6,-104.31 -134.5,-217.9c21.3,-120.94 124.5,-219.01 230.7,-219.01l43.1,0.67c10.1,-28.2 21.1,-56.06 33,-83.39c-74.2,-27.13 -117.2,-110.65 -99.7,-209.73c20.5,-116.31 116.8,-211.33 218.5,-218.45l0,-0.07l0.2,0c4,-0.26 8,-0.46 11.9,-0.46c5.3,0 10.5,0.33 15.5,0.8l97.6,0.99l-0.1,0.14c0.8,-0.07 1.7,-0.14 2.6,-0.14c13.4,0 26.2,1.6 38.3,4.59c15.8,-15.96 31.9,-31.52 48.3,-46.61c-21.1,-37.97 -29.3,-86.85 -19.9,-140.18c21.4,-120.96 124.7,-218.98 230.8,-218.98l112.9,1.73l0,0.13c0.8,-0.06 1.6,-0.13 2.5,-0.13c64.7,0 115.3,36.58 140.3,92.5c12.7,-3.46 25.6,-6.72 38.5,-9.64c0.7,-7.32 1.6,-14.76 2.9,-22.28c21.4,-120.96 124.7,-218.97 230.8,-218.97l115.3,1.79l0.1,0l0.4,0l7.3,0.07l0,0.13c101.7,4.65 166.6,100.81 145.7,218.78c-1.3,7.51 -2.9,14.96 -4.9,22.27c3.7,0.93 7.3,1.93 11.1,2.93c44.4,-54.06 106.8,-89.31 170.2,-89.31l111.1,1.93c1.5,0 2.9,-0.2 4.3,-0.2c106.1,0 174.9,98.09 153.5,218.98c-8,45.68 -27.8,88.04 -54.9,123.09c14.3,18.42 27.9,37.57 40.7,57.38l130.4,0l-0.1,0.07c0.9,0 1.7,-0.07 2.5,-0.07c106.1,0 174.8,98.09 153.5,218.98c-15.6,88.38 -74.9,164.32 -147.2,198.9c2.9,30.98 4.4,62.44 4.6,94.49c5.3,-0.47 10.6,-0.93 15.9,-0.93" id="path306"/>
    </g>
    <g id="g308" transform="scale(1.5035799741744995) ">
     <path fill="#f1a34f" fill-rule="nonzero" d="m15283.2,6055.69c-373.8,0 -735.4,333.48 -808,744.86c-72.5,411.39 171.6,744.9 545.2,744.9c373.7,0 735.4,-333.51 807.9,-744.9c72.6,-411.38 -171.5,-744.86 -545.1,-744.86zm842,519.5c106.1,0 174.8,98.06 153.5,219.02c-21.3,120.97 -124.6,219.03 -230.7,219.03c-5.3,0 -10.5,-0.42 -15.6,-0.91c-16,44.67 -34.3,88.31 -54.6,130.74c53.4,37.02 81.5,109.46 66.8,192.77c-21.3,120.96 -124.6,219.02 -230.7,219.02c-39.2,0 -73.2,-13.45 -99.6,-36.44c-23.4,23.84 -47.7,46.69 -72.7,68.44c17.2,36.38 23.4,81.26 14.9,130c-21.4,120.96 -124.7,219.03 -230.7,219.03c-78,0 -135.6,-53.08 -152.3,-129.19c-37.1,13.29 -74.7,24.31 -112.7,32.93c-0.5,7.33 -1.5,14.76 -2.9,22.28c-21.3,120.96 -124.5,219.02 -230.6,219.02c-106.1,0 -174.8,-98.06 -153.5,-219.02c1.3,-7.52 3,-14.95 4.9,-22.28c-43,-10.61 -84.1,-24.83 -123.2,-42.45c-42.5,81.18 -121.9,138.71 -203,138.71c-106.1,0 -174.8,-98.07 -153.5,-219.03c9.9,-56.39 37.8,-107.64 75.4,-146.47c-15.8,-21 -30.6,-42.96 -44.4,-65.8c-38.8,31.39 -84.8,50.27 -131.3,50.27c-106.1,0 -174.8,-98.06 -153.5,-219.02c16.5,-93.88 82.5,-173.73 160.8,-204.89c-4.6,-40.08 -7,-81.2 -7.1,-123.23c-14.3,3.51 -28.8,5.52 -43.3,5.52c-106.1,0 -174.8,-98.06 -153.5,-219.03c21.4,-120.96 124.7,-219.02 230.7,-219.02c14.6,0 28.4,1.99 41.4,5.52c10.6,-29.93 22.2,-59.33 34.8,-88.32c-74.3,-27.07 -117.2,-110.67 -99.7,-209.7c21.3,-120.92 124.6,-219.02 230.7,-219.02c46.2,0 85.3,18.63 113,49.68c28.5,-31.59 58.3,-61.58 89.2,-89.91c-21.1,-37.98 -29.3,-86.86 -19.9,-140.2c21.4,-120.98 124.6,-219.08 230.7,-219.08c77.8,0 135.3,52.87 152.2,128.69c46.6,-18.35 94.1,-33.12 142.1,-44.02c0.7,-7.32 1.7,-14.77 3,-22.28c21.3,-120.98 124.6,-219.02 230.7,-219.02c106.1,0 174.8,98.04 153.5,219.02c-1.3,7.51 -3,14.96 -4.9,22.28c36.3,8.97 71.3,20.48 104.9,34.51c44.3,-70.7 117.3,-119.18 191.8,-119.18c106.1,0 174.8,98.1 153.5,219.08c-8.1,45.62 -27.8,87.99 -54.9,123.04c22.7,29.13 43.7,60.19 62.5,92.98c34.1,-22.42 72.4,-35.59 111.1,-35.59c106.1,0 174.8,98.1 153.4,219.02c-15.5,88.38 -74.9,164.34 -147.2,198.99c2.9,30.86 4.4,62.38 4.6,94.44c5.3,-0.53 10.6,-0.93 15.9,-0.93" id="path310"/>
    </g>
    <path fill="#afcdfb" fill-rule="nonzero" d="m13431.3,9733.1l692.3,-2583.6l614.9,0l-692.3,2583.6l-614.9,0" id="path312"/>
    <path fill="#afcdfb" fill-rule="nonzero" d="m14254.7,9996.9l763,-2847.4l614.9,0l-763,2847.4l-614.9,0" id="path314"/>
    <g id="g316" transform="scale(1.0133299827575684) ">
     <path fill="#afcdfb" fill-rule="nonzero" d="m14820.1,10313.7l873.1,-3258.26l606.8,0l-873.1,3258.26l-606.8,0" id="path318"/>
    </g>
    <g id="g320" transform="scale(1.0649700164794922) ">
     <path fill="#afcdfb" fill-rule="nonzero" d="m15469.2,10127.9l-577.4,0l830.8,-3100.37l577.4,0l-830.8,3100.37" id="path322"/>
    </g>
    <path fill="#afcdfb" fill-rule="nonzero" d="m13522.3,9985.6l659,506.5l49.8,-185.9c8.2,-30.7 33.1,-58.8 64.2,-72.3c31.2,-13.8 63.3,-10.6 82.7,8l703.8,672.7l98.5,-88.5c11.9,-10.7 28,-5.8 26.5,8l-31.7,281.7c-1.1,9.7 -10.8,18.5 -20.6,18.9l-292.3,9.3c-14.3,0.5 -17.8,-16.1 -5.8,-26.8l87.9,-79.1l-595.4,-569l-45.6,170.3c-7.9,29.5 -31.2,56.6 -60.9,70.8c-29.5,14.1 -60.9,13 -81.5,-2.7l-761.9,-585.6c-31.2,-24 -28.8,-73.9 5.1,-111.5c22,-24.2 51.6,-37.4 78.3,-37.4c14.8,0 28.8,4.1 39.9,12.6" id="path324"/>
    <path fill="#cae0ff" fill-rule="nonzero" d="m13331.3,7856.1l26,-100.6c-14.6,29.2 -22.7,63.3 -26,100.6" id="path326"/>
    <g id="g328" transform="scale(1.686329960823059) ">
     <path fill="#cae0ff" fill-rule="nonzero" d="m15658.3,3947.7l-7567.1,0l-170.25,651.35c156.79,-336.76 1431.64,31.73 1717.35,236.67c522.4,377.15 526.3,748.55 1067,1000.64c732.2,341.54 1464.4,-193.44 2053.2,-47.14c1805.9,447.35 3302.9,1910.74 3349.1,1956.92c-507,-1173.78 -1742.4,-1791.46 -792.8,-2176.34c985.2,-399.27 343.5,-1622.1 343.5,-1622.1" id="path330"/>
    </g>
    <path fill="#afcdfb" fill-rule="nonzero" d="m13603.5,12243.5c-36.8,22.4 -111.7,53.2 -224.5,92.4c-53.1,18.3 -90.6,33.2 -112.5,44.9c-27.9,15 -46.2,36.6 -54.9,64.9c-10.4,34.1 -6.6,60.6 11.4,79.3c18.1,18.7 44.1,28.1 78.3,28.1c23.4,0 55.4,-7.3 96.1,-21.9c40.7,-14.6 68.6,-21.9 83.6,-21.9c20.8,0 36.3,6 46.4,18c10.1,12 11.9,28.4 5.6,49.1c-7.6,24.8 -26.8,46.7 -57.6,65.8c-55.7,34.8 -125.6,52.2 -209.8,52.2c-81.7,0 -143.8,-21.7 -186.4,-65c-46.6,-46.6 -57.8,-109.4 -33.7,-188.5c26,-84.9 81.8,-148.9 167.6,-192.2c75.9,-27.5 151.8,-54.9 227.7,-82.4c81.7,-30 130.7,-71.6 147,-124.8c11.2,-36.6 7.2,-68.1 -11.8,-94.3c-19.1,-26.2 -47,-39.3 -83.7,-39.3c-34.2,0 -68.6,5 -103.3,15c-2,0.8 -25.2,8.8 -69.8,23.8c-32.8,11.6 -53.7,17.5 -62.9,17.5c-21.7,0 -37.7,-6.3 -48,-18.8c-10.4,-12.5 -12.2,-29.6 -5.6,-51.2c13.5,-44.2 60.2,-78.4 140.1,-102.6c59,-18.3 116.4,-27.5 172.2,-27.5c92.6,0 161.2,25 205.9,74.9c47.9,53.3 58,125.3 30.3,216c-24.7,80.7 -73.9,143.5 -147.7,188.5" id="path332"/>
    <path fill="#afcdfb" fill-rule="nonzero" d="m13999.1,12540.6l128.2,0c66.2,0 91.9,24.1 77.2,72.5c-15.1,49.2 -56.4,73.8 -123.9,73.8l-410.1,0c-67.5,0 -93.7,-24.6 -78.7,-73.8c14.8,-48.4 55.5,-72.5 122.2,-72.5l126.3,0l206,-674c20.9,-68.3 57.4,-102.5 109.5,-102.5c53.8,0 70.2,34.2 49.3,102.5l-206,674" id="path334"/>
    <path fill="#afcdfb" fill-rule="nonzero" d="m14515.4,12120.5l14.7,385c0.6,5.8 1.3,10 2.1,12.5l256.6,-397.5l-273.4,0zm592.9,-238.8l-483.6,722.6c-41.6,62.6 -90.3,93.8 -146.2,93.8c-54.2,0 -83.4,-33.7 -87.8,-101.3l-47.3,-716.4c-0.9,-13.3 1.2,-28.3 6.3,-45c6.6,-21.7 19.2,-39 37.8,-51.9c18.6,-12.9 38.7,-19.4 60.5,-19.4c35,0 53.8,22.1 56.2,66.1l5.9,150.2l368.4,0l95,-145.9c30.1,-46.9 64.2,-70.4 102.4,-70.4c21.5,0 38,6.5 49.3,19.4c11.4,12.9 14,29.8 7.6,50.6c-4.1,13.4 -12.3,29.2 -24.5,47.6" id="path336"/>
    <path fill="#afcdfb" fill-rule="nonzero" d="m15351.1,12266.7c-48.6,0 -84.1,2.5 -106.6,7.6l-82.2,268.8l116.9,0c98.8,0 161.9,-44.8 189.3,-134.4c28.9,-94.7 -10.2,-142 -117.4,-142zm414.5,-351.3l-304.4,251.3c160.6,11.7 217.4,94.6 170.2,248.8c-27.2,89.2 -78.6,157.6 -153.9,205.1c-69.4,44.2 -149.5,66.3 -240.4,66.3l-178.7,0c-65.9,0 -88.2,-34.7 -67,-104.1l219.6,-718.4c21,-68.5 57.5,-102.8 109.6,-102.8c53.8,0 70.3,34 49.5,101.9l-91.6,299.5l8.2,-6.3l395.5,-346.3c37.6,-32.5 69.7,-48.8 96.4,-48.8c20.9,0 36.5,6.5 46.8,19.4c10.2,12.9 12.2,29.8 5.8,50.6c-8.1,26.7 -30,54.6 -65.6,83.8" id="path338"/>
    <path fill="#afcdfb" fill-rule="nonzero" d="m16014.6,12540.6l128.2,0c66.2,0 91.9,24.1 77.1,72.5c-15,49.2 -56.3,73.8 -123.8,73.8l-410.1,0c-67.5,0 -93.7,-24.6 -78.7,-73.8c14.8,-48.4 55.5,-72.5 122.2,-72.5l126.3,0l206,-674c20.9,-68.3 57.4,-102.5 109.5,-102.5c53.8,0 70.2,34.2 49.3,102.5l-206,674" id="path340"/>
    <g id="g342" transform="scale(1.0422799587249756) ">
     <path fill="#afcdfb" fill-rule="nonzero" d="m16293,11391.5c-6.9,22.7 -21.1,42.3 -42.6,58.7c-21.4,16.4 -43.5,24.6 -66.2,24.6c-22.6,0 -39.7,-8.2 -51.1,-24.6c-11.5,-16.4 -13.7,-36 -6.8,-58.7c7,-22.7 21.2,-42.2 42.6,-58.7c21.5,-16.4 43.6,-24.6 66.2,-24.6c22.8,0 39.8,8.2 51.2,24.6c11.4,16.5 13.7,36 6.7,58.7" id="path344"/>
    </g>
    <g id="g346" transform="scale(1.0371500253677368) ">
     <path fill="#afcdfb" fill-rule="nonzero" d="m16279.8,11720.3l-134.6,439.9c-19.3,63.7 -53.8,95.5 -103.4,95.5c-48.8,0 -63.4,-31.8 -43.9,-95.5l134.4,-439.9c20.3,-66 55.1,-99 104.6,-99c48.8,0 63.1,33 42.9,99" id="path348"/>
    </g>
    <g id="g350" transform="scale(1.5815199613571167) ">
     <path fill="#afcdfb" fill-rule="nonzero" d="m15549.1,4209.32l-3916.8,0c167.2,137.46 396,375.46 517,717.09c205.2,576.54 905.8,338.54 1524.5,438.06c619.6,99.47 1869.5,1360.99 1912.2,1215.66c22.9,-77.81 -256.5,-1102.85 153.9,-1218.75c405.2,-113.88 560.1,-754.03 -190.8,-1152.06" id="path352"/>
    </g>
    <g id="g354" transform="scale(2.0487101078033447) ">
     <path fill="#283250" fill-rule="nonzero" d="m16286.6,979.302l-14995.57,0c-7.36,0 -13.38,6.004 -13.38,13.373c0,7.375 6.02,13.375 13.38,13.375l14995.57,0c7.4,0 13.4,-6 13.4,-13.375c0,-7.369 -6,-13.373 -13.4,-13.373" id="path356"/>
    </g>
   </g>
  </g>
 </g>
</svg>